<?xml version="1.0" encoding="UTF-8"?>
<svg width="116px" height="116px" viewBox="0 0 116 116" version="1.1" xmlns="http://www.w3.org/2000/svg" xmlns:xlink="http://www.w3.org/1999/xlink">
    <title>E4137669-90A3-4ADE-936C-B9DAD34E815E</title>
    <g id="Design" stroke="none" stroke-width="1" fill="none" fill-rule="evenodd">
        <g id="Payments" transform="translate(-775.000000, -600.000000)">
            <g id="Group-4-Copy" transform="translate(735.000000, 560.000000)">
                <g id="Pay-Credit-Card---icon" transform="translate(40.000000, 40.000000)">
                    <circle id="Oval-Copy-2" fill="#3DA89A" cx="58" cy="58" r="58"></circle>
                    <g id="Pay-by-Credit-Card" transform="translate(36.000000, 22.000000)" stroke="#FFFFFF" stroke-width="3.16">
                        <path d="M25.28,63.2 L25.28,60.04 C25.28,60.04 30.02,56.485 30.02,52.14 L30.02,45.82" id="Stroke-1"></path>
                        <path d="M12.64,26.86 L4.74,33.18 C2.50588,35.22768 1.58,36.39688 1.58,39.5 L1.58,50.22662 L1.58158,63.2" id="Stroke-3"></path>
                        <polyline id="Stroke-5" points="-6.55475674e-13 71.1 -6.55475674e-13 63.2 28.44 63.2 28.44 71.1"></polyline>
                        <path d="M7.9,44.24 L20.54,31.6 C23.45036,28.68964 27.97548,35.93868 24.5058,40.2742 C22.80098,41.97744 20.54,44.24 20.54,44.24 L20.54,48.98 C20.54,55.17518 15.14904,55.3 14.22,55.3" id="Stroke-7"></path>
                        <path d="M12.64,37.92 L12.64,3.16 C12.64,1.41568 14.05568,-1.45661261e-13 15.8,-1.45661261e-13 L41.08,-1.45661261e-13 C42.82432,-1.45661261e-13 44.24,1.41568 44.24,3.16 L44.24,42.66 C44.24,44.40432 42.82432,45.82 41.08,45.82 L20.54,45.82" id="Stroke-9"></path>
                        <line x1="36.34" y1="-1.45661261e-13" x2="36.34" y2="45.82" id="Stroke-11"></line>
                    </g>
                </g>
            </g>
        </g>
    </g>
</svg>