<?xml version="1.0" encoding="UTF-8"?>
<svg width="116px" height="116px" viewBox="0 0 116 116" version="1.1" xmlns="http://www.w3.org/2000/svg" xmlns:xlink="http://www.w3.org/1999/xlink">
    <title>9F5E6BB1-1188-4AE3-91D4-00CDE802EFA9</title>
    <g id="Design" stroke="none" stroke-width="1" fill="none" fill-rule="evenodd">
        <g id="Payments" transform="translate(-190.000000, -600.000000)">
            <g id="Group-4" transform="translate(150.000000, 560.000000)">
                <g id="Credit-Card-CDN---icon" transform="translate(40.000000, 40.000000)">
                    <circle id="Oval" fill="#3DA89A" cx="58" cy="58" r="58"></circle>
                    <g id="Credit-Card-CDN$-" transform="translate(25.000000, 28.000000)" stroke="#FFFFFF" stroke-width="2.844">
                        <path d="M48.348,22.752 L48.348,4.266 C48.348,1.909746 46.438254,6.39488462e-14 44.082,6.39488462e-14 L4.266,6.39488462e-14 C1.909746,6.39488462e-14 5.24380539e-13,1.909746 5.24380539e-13,4.266 L5.24380539e-13,28.44 C5.24380539e-13,30.796254 1.909746,32.706 4.266,32.706 L7.11,32.706" id="Stroke-31"></path>
                        <line x1="4.266" y1="19.908" x2="12.798" y2="19.908" id="Stroke-33"></line>
                        <polygon id="Stroke-35" points="5.24380539e-13 14.22 48.348 14.22 48.348 7.11 5.24380539e-13 7.11"></polygon>
                        <polygon id="Stroke-37" points="9.954 58.302 65.412 58.302 65.412 25.596 9.954 25.596"></polygon>
                        <path d="M55.458,31.284 L19.908,31.284 C19.908,33.640254 18.486,35.55 15.642,35.55 L15.642,48.348 C18.486,48.348 19.908,50.257746 19.908,52.614 L55.458,52.614 C55.458,50.257746 57.367746,48.348 59.724,48.348 L59.724,35.55 C57.367746,35.55 55.458,33.640254 55.458,31.284 Z" id="Stroke-38"></path>
                        <line x1="24.174" y1="42.66" x2="27.018" y2="42.66" id="Stroke-39"></line>
                        <line x1="48.348" y1="42.66" x2="51.192" y2="42.66" id="Stroke-40"></line>
                        <path d="M31.2861325,41.9448762 C31.288977,38.4097842 34.155729,35.5458762 37.690821,35.5472977 C41.225913,35.5487202 44.089821,38.4154722 44.0869791,41.9505642 C44.085555,45.4842342 41.217381,48.3495642 37.683711,48.3481427 C34.148619,48.3467202 31.284711,45.4785462 31.2861325,41.9448762 Z" id="Stroke-41"></path>
                    </g>
                </g>
            </g>
        </g>
    </g>
</svg>