<?xml version="1.0" encoding="UTF-8"?>
<svg width="116px" height="116px" viewBox="0 0 116 116" version="1.1" xmlns="http://www.w3.org/2000/svg" xmlns:xlink="http://www.w3.org/1999/xlink">
    <title>4942AB12-DCC6-47D3-ADE1-3396E5D90CF3</title>
    <g id="Design" stroke="none" stroke-width="1" fill="none" fill-rule="evenodd">
        <g id="Payments" transform="translate(-775.000000, -982.000000)">
            <g id="Group-4-Copy-2" transform="translate(735.000000, 942.000000)">
                <g id="Call-Advisor-icon" transform="translate(40.000000, 40.000000)">
                    <circle id="Oval-Copy-4" fill="#3DA89A" cx="58" cy="58" r="58"></circle>
                    <g id="Call-Advisor" transform="translate(27.000000, 25.000000)" stroke="#FFFFFF" stroke-width="2.2752">
                        <path d="M50.0544,31.8528 L50.0544,17.4428208 C50.0544,9.066672 41.641848,-7.92965693e-14 31.284,-7.92965693e-14 C20.926152,-7.92965693e-14 12.5136,9.066672 12.5136,17.4428208 L12.5136,29.5776" id="Stroke-53"></path>
                        <line x1="21.6144" y1="43.4037629" x2="21.6144" y2="50.0541725" id="Stroke-54"></line>
                        <line x1="40.9536" y1="43.5376584" x2="40.9536" y2="50.0549688" id="Stroke-55"></line>
                        <polygon id="Stroke-56" points="43.2288 47.7792 31.8528 59.1552 36.4032 63.7056 47.7792 52.3296"></polygon>
                        <polygon id="Stroke-57" points="19.3392 47.7792 30.7152 59.1552 26.1648 63.7056 14.7888 52.3296"></polygon>
                        <path d="M11.7270634,34.128 L12.513145,34.128 L12.513145,22.752 L11.7270634,22.752 C9.21410496,22.752 6.82514496,25.1716752 6.82514496,27.6857712 L6.82514496,29.2681728 C6.82514496,31.7811312 9.21410496,34.128 11.7270634,34.128 Z" id="Stroke-59"></path>
                        <path d="M50.8825728,34.128 L50.0544,34.128 L50.0544,22.752 L50.8404816,22.752 C53.5365936,22.752 55.7424,24.9578064 55.7424,27.6539184 L55.7424,29.2681728 C55.7424,31.9415328 53.5559328,34.128 50.8825728,34.128 Z" id="Stroke-61"></path>
                        <path d="M23.8896,9.1008 C23.8896,16.8569568 38.9332224,26.7722784 47.1387312,27.2819232" id="Stroke-62" stroke-linecap="round"></path>
                        <path d="M45.504,27.0752213 L45.504,30.7155413 C45.504,37.2885941 42.0991632,44.1005429 36.4532544,47.4667013 C36.3895488,47.5042421 36.352008,47.5417829 36.2883024,47.5793237 C33.280488,49.3551173 29.5776,49.3619429 26.5618224,47.5998005 C26.4696768,47.5474709 26.352504,47.4928661 26.2592208,47.4371237 C20.579184,44.0732405 17.064,37.3181717 17.064,30.7155413 L17.064,22.7523413 C18.0980784,19.3395413 22.6416528,14.7880037 26.1067824,14.7880037" id="Stroke-63"></path>
                        <path d="M35.2656,40.9536 L44.3664,40.9536 C46.9453392,40.9536 50.0544,38.6784 50.0544,35.2656 L50.0544,32.9904" id="Stroke-64"></path>
                        <path d="M32.9904,43.2288 L29.5776,43.2288 C28.3216896,43.2288 27.3024,42.2095104 27.3024,40.9536 L27.3024,39.816 C27.3024,38.5600896 28.3216896,37.5408 29.5776,37.5408 L32.9904,37.5408 C34.2463104,37.5408 35.2656,38.5600896 35.2656,39.816 L35.2656,40.9536 C35.2656,42.2095104 34.2463104,43.2288 32.9904,43.2288 Z" id="Stroke-66"></path>
                        <path d="M14.7888,52.3296 L8.3226816,53.7663888 C2.4651792,55.0314 1.4697792,59.2029792 3.14628323e-13,65.9808" id="Stroke-67" stroke-linecap="round"></path>
                        <path d="M47.7792,52.3296 L54.2453184,53.7663888 C60.1028208,55.0314 61.0982208,59.2029792 62.568,65.9808" id="Stroke-68" stroke-linecap="round"></path>
                    </g>
                </g>
            </g>
        </g>
    </g>
</svg>