<?xml version="1.0" encoding="utf-8"?>
<!-- Generator: Adobe Illustrator 25.2.1, SVG Export Plug-In . SVG Version: 6.00 Build 0)  -->
<svg version="1.1" id="Layer_1" xmlns="http://www.w3.org/2000/svg" xmlns:xlink="http://www.w3.org/1999/xlink" x="0px" y="0px"
	 viewBox="0 0 156.1 39.6" style="enable-background:new 0 0 156.1 39.6;" xml:space="preserve">
<style type="text/css">
	.st0{fill:#616265;}
	.st1{fill:#002663;}
	.st2{fill:#FFFFFF;}
</style>
<g transform="matrix(.10763 0 0 -.10763 -4.5 42.4578)">
	<g>
		<g transform="matrix(1.4413 0 0 1.43627 0 170.64)">
			<path class="st0" d="M255.9,13.8c0-6.3,2.8-8.4,11.9-8.4c9.8,0,14,2.8,20.3,16.1h2.1l-2.1-20.3h-59.4v2.1
				c9.1,2.1,9.8,4.2,9.8,12.6v49.6c0,7-1.4,9.1-9.8,11.2v2.1h37.1v-2.1c-7.7-2.1-9.8-4.2-9.8-10.5L255.9,13.8z M315.3,11.7
				c0-4.9,2.8-7.7,8.4-8.4V1.2h-31.5v2.1c6.3,1.4,8.4,3.5,8.4,9.8v26.6c0,6.3-2.1,7.7-9.1,9.1v2.1l21.7,2.1h2.1V11.7z M307.6,84.3
				c4.9,0,9.1-4.2,9.1-9.1s-4.2-8.4-9.1-8.4c-4.2,0-8.4,3.5-8.4,8.4C299.2,80.1,303.4,84.3,307.6,84.3 M348.1,40.3
				c4.9,4.9,7.7,6.3,11.9,6.3c8.4,0,14.7-9.1,14.7-21c0-16.1-7.7-23.1-18.9-23.1c-5.6,0-7.7,2.8-7.7,8.4V40.3z M348.1,84.3H346
				l-20.3-1.4v-2.8c4.2-0.7,7-2.8,7-7v-72c7.7-1.4,15.4-2.1,24.5-2.1c24.5,0,34.2,12.6,34.2,27.9c0,14.7-10.5,25.9-24.5,25.9
				c-7,0-13.3-2.8-18.9-9.1L348.1,84.3z M413.1,33.3c0.7,9.8,4.2,16.1,10.5,16.1s10.5-6.3,11.2-16.1H413.1z M450.8,30.5
				c-1.4,14-11.9,22.4-25.8,22.4c-16.1,0-27.9-11.9-27.9-27.3S409-1,424.3-1c11.9,0,22.4,6.3,26.6,17.5h-2.1
				c-4.9-7.7-10.5-11.2-18.2-11.2c-9.1,0-18.2,8.4-17.5,25.1h37.7V30.5z M499.1,33.3c-4.2,4.9-7.7,7-11.2,7c-4.9,0-7.7-2.1-11.2-7
				v-21c0-5.6,1.4-7.7,8.4-9.1V1.1h-31.4v2.1c6.3,1.4,8.4,3.5,8.4,9.1v26.6c0,6.3-2.8,9.1-9.8,9.8v2.1l22.4,2.1h2.1V36.8
				c4.9,11.2,10.5,16.1,16.8,16.1c3.5,0,6.3-1.4,9.1-4.2L499.1,33.3z M583.6,50.8v-2.1c6.3-1.4,7.7-4.9,3.5-16.1l-7-16.1l-10.5,22.4
				c-3.5,6.3-3.5,9.1,2.1,9.8v2.1h-44v19.6h-2.8c-7-9.1-14.7-16.8-21-21v-2.1h9.1V15.1C513,3.2,520-1,529.8-1
				c7.7,0,12.6,2.8,16.1,9.1l-1.4,1.4c-2.8-2.8-4.9-4.2-7.7-4.2c-7,0-9.1,4.9-9.1,12.6v29.4H541c7.7,0,9.8-2.8,12.6-9.8l18.2-38.4
				C566.2-17.7,560.6-24,551.5-24c-2.1,0-3.5,0-7,1.4L541.7-38h4.2c10.5,0,16.1,4.2,21,16.1l25.8,58c3.5,9.1,5.6,11.2,11.9,12.6v2.1
				L583.6,50.8z M728.2,15.2c1.4-7,4.2-11.2,11.9-12.6V0.5h-38.4v2.1c8.4,2.1,9.8,7,8.4,17.5l-6.3,44L678.7,0.5h-2.8l-25.2,63.6
				l-7-45.4c-1.4-9.1,0.7-15.4,9.1-16.1V0.5h-27.9v2.1c8.4,0.7,11.9,5.6,14,17.5l7.6,50.3c-3.5,3.5-7.7,5.6-11.2,5.6v2.1h27.9
				l20.3-51l20.3,51h26.6V76c-8.4-1.4-9.8-5.6-9.1-12.6L728.2,15.2z M746.4,39.6c0,5.6-2.1,7.7-7.7,8.4v2.8l20.3,2.1h2.1v-37
				c0-6.3,4.2-9.1,9.8-9.1c4.9,0,7.7,2.1,11.9,9.1v25.2c0,4.2-2.1,6.3-7.7,7v2.8L796,53h2.1V13.2c0-7,1.4-8.4,7.7-10.5V0.6
				l-23.1-2.1v12.6c-5.6-8.4-11.9-12.6-19.6-12.6c-10.5,0-16.8,5.6-16.8,15.4L746.4,39.6z M817.7,46.6h-9.1v2.8
				c6.3,3.5,14.7,11.9,21.7,20.3h2.1V50.8h16.8v-4.2h-16.8V17.9c0-8.4,2.1-13.3,9.1-13.3c2.8,0,4.9,1.4,7.7,4.2l1.4-1.4
				c-3.5-6.3-8.4-9.1-16.1-9.1c-9.1,0-16.8,4.9-16.8,16.1L817.7,46.6z M858.9,39.6c0,5.6-2.1,7.7-8.4,8.4v2.8l20.9,2.1h2.1v-37
				c0-6.3,4.2-9.1,9.1-9.1c5.6,0,8.4,2.1,12.6,9.1v25.2c0,4.2-2.8,6.3-7.7,7v2.8l20.3,2.1h2.8V13.2c0-7,1.4-8.4,7.7-10.5V0.6
				l-23.1-2.1v12.6c-5.6-8.4-11.9-12.6-20.3-12.6c-9.8,0-16.1,5.6-16.1,15.4L858.9,39.6z M952.6,8.9c-3.5-2.8-6.3-4.9-9.1-4.9
				c-4.2,0-7,3.5-7,9.1c0,7,3.5,9.8,16.1,15.4V8.9z M967.9,34c0,14-11.2,18.9-22.4,18.9c-11.9,0-19.6-6.3-22.4-17.5h2.1
				c3.5,5.6,8.4,8.4,14.7,8.4c9.1,0,12.6-4.2,12.6-13.3c-11.9-4.2-32.1-5.6-32.1-18.9c0-7,7-13.3,15.4-13.3c6.3,0,10.5,1.4,15.4,6.3
				l1.4,0.7c2.8-4.9,6.3-7,11.9-7c7.7,0,11.9,3.5,12.6,9.8H975c-0.7-2.8-2.1-4.9-4.2-4.9s-2.8,2.1-2.8,7L967.9,34z M987.5,69.7
				c0,7-2.8,9.8-9.8,10.5v2.1l22.4,1.4h2.1V13.1c0-7,1.4-8.4,9.1-10.5V0.5h-33.5v2.1c7.7,1.4,9.8,3.5,9.8,10.5L987.5,69.7z"/>
			<path class="st1" d="M211.1,53.6c-0.7,0.7-2.1,0-2.1,0l-23.8-8.4c-1.4,4.2-3.5,8.4-6.3,12.6l7.7,20.3c0,0,0.7,2.1,0,2.8
				c-0.7,0.7-2.1-0.7-2.1-0.7l-14-11.2c-4.9,5.6-11.2,9.8-18.9,13.3c-2.1,1.4-4.9,2.1-8.4,2.8l-4.2,16.8c0,0,0,1.4-1.4,1.4
				c-0.7,0-1.4-1.4-1.4-1.4l-2.8-14.7c-2.8,0.7-5.6,0.7-9.1,0.7c-10.5,0-19.6-2.1-27.3-5.6c-3.5-1.4-6.3-3.5-9.8-5.6
				c0,0-0.7-0.7-1.4-0.7c-2.8,7-4.9,13.3-5.6,14.7c2.1,1.4,4.9,7,5.6,10.5c1.4,4.9,1.4,7,0,11.2c-0.7,2.1-2.8,4.9-2.8,7
				c0.7,0.7,0.7,2.1,1.4,2.8c0,1.4-1.4,2.1-2.8,2.1c-1.4,0.7-2.1,0-3.5,0c0,0.7-0.7,0.7,0,2.1c0.7,2.8,5.6,4.2,10.5,6.3
				c5.6,2.1,8.4,6.3,8.4,12.6c0.7,4.9-2.1,8.4-5.6,9.8c-0.7-2.1-3.5-4.9-4.9-5.6c-2.1-1.4-4.9-1.4-6.3-0.7c0,2.8-1.4,6.3-4.2,7
				c-0.7-1.4-3.5-3.5-8.4-2.8c-4.2,0-4.9,0.7-11.2,0.7c-9.1,0-16.8-5.6-17.5-13.3c-0.7-5.6,1.4-9.8,2.8-11.9
				c-1.4-0.7-3.5-3.5-4.2-4.2c-0.7,0.7-2.8,1.4-4.9,0c0.7-0.7,0.7-2.1,0.7-3.5c-0.7-1.4-4.2-7.7-4.2-13.3
				c-0.7-9.1,4.2-14.7,8.4-16.8c-0.7-1.4-0.7-2.8,0-4.2c0-0.7,0.7-1.4,2.8-1.4c-0.7-1.4-1.4-2.8-0.7-4.2c0.7-2.1,2.8-4.9,4.9-4.9
				c0-1.4,0.7-5.6,0.7-7c-0.7-1.4-1.4-2.1-0.7-4.2c0-2.8,1.4-4.9,3.5-4.9c0-1.4,0.7-2.8,1.4-3.5s1.4-1.4,2.8-2.1
				c1.4-1.4,2.8-2.1,4.9-2.1h4.2c0,0,0-5.6,0.7-11.2c-4.9-13.3-7.7-28.7-7.7-44.7c0-30,9.1-56.6,25.2-73.4c0,0,0.7-1.4,3.5-2.8
				c0,0,4.9,8.4,12.6,18.2c2.1,2.8,4.2,4.9,6.3,7.7c4.2,2.8,7.7,6.3,11.2,8.4c9.8,7,21.7,11.9,32.1,14c-11.9-6.3-18.9-9.1-30.7-18.9
				c-7-6.3-18.9-17.5-26.6-32.8c1.4-0.7,4.2-2.1,6.3-2.8c2.1,2.1,10.5,18.2,23.8,30.7c26.6,25.2,58,30.7,74.8,30
				c0.7,7,1.4,14,1.4,21.7c0,11.9-1.4,23.1-4.2,33.5l19.6,21.7C209.8,51.5,211.1,52.9,211.1,53.6"/>
			<path class="st2" d="M64.4,63.4c-0.7,0.7-4.2,2.1-6.3,2.1c-2.8,0-4.9-0.7-7-1.4c-0.7,0-0.7,1.4-0.7,2.8c0.7,1.4,1.4,1.4,1.4,1.4
				l-0.7,12.6c0,0,3.5,2.8,4.9,2.8c0.7,0,1.4,0.7,1.4,2.1c1.4-1.4,3.5-3.5,4.9-5.6c0.7-1.4,1.4-2.8,1.4-4.9c0.7-2.1,0.7-4.9,0-7
				c0.7-0.7,1.4-1.4,1.4-2.1C65.8,64.8,65.1,64.8,64.4,63.4 M178.3,24.9c0,2.1-2.8,9.1-4.9,10.5l30,13.3L178.3,24.9z M97.3,73.9
				l25.2-23.1c-2.8-0.7-6.3-4.9-7-7.7L97.3,73.9z M111.9,29.1c-0.7-1.4-1.4-2.1-1.4-4.2c-0.7-1.4,0-2.1,0-3.5l-7.7,4.9
				c0,2.1-0.7,4.9-0.7,6.3v0.7L111.9,29.1z"/>
			<path class="st2" d="M69.3,26.3c0,1.4-2.8,47.5-2.8,48.9l2.8,2.1c-2.1,0-4.2,0.7-4.9,2.1l-0.7,14c-2.1,0-4.9,1.4-5.6,2.1
				c-1.4,1.4-2.1,2.8-0.7,4.9c0.7-0.7,4.9-1.4,7.7-1.4c0.7,0,2.1-1.4,2.8-2.1c0.7,0,2.8-1.4,3.5-1.4s0.7-2.1,0.7-2.1
				c0.7-0.7,23.8-60.1,23.8-60.8c0.7-0.7,2.1-11.2,2.1-11.9c0-0.7,3.5-8.4,4.2-9.1c-3.5,0-8.4-2.1-12.6-5.6
				c-3.5-4.2-7-12.6-8.4-16.8C81.2-8.6,70,25.6,69.3,26.3 M98.6-30.3c-1.4-9.1-3.5-16.8-7-22.4c-2.1-4.2-7.7-11.2-9.8-14
				c2.1,4.2,4.2,15.4,3.5,23.8c0,5.6-1.4,18.2,0,25.9c1.4,9.1,4.2,14,9.8,19.6c2.8,2.8,9.1,6.3,17.5,3.5l7.7-13.3
				c-4.2,0.7-9.1,0-12.6-2.1C101.4-14.2,99.3-20.5,98.6-30.3"/>
			<path class="st2" d="M99.3-48.4c1.4,4.2,4.2,15.4,4.2,18.9c1.4,4.9,2.1,11.2,7.7,16.1c2.8,2.1,7,2.8,9.1,2.1l7.7-16.1
				c0.7-2.1,2.8-2.8,4.9-2.1C125.2-32.4,106.3-41.4,99.3-48.4 M167.1,3.3c-1.4-1.4-0.7-3.5,0-4.9s4.9-9.1,4.9-9.1
				c1.4-4.2,2.1-5.6,3.5-7.7h7.7c-2.8,6.3-9.8,18.2-9.8,18.2v9.8C171.3,8.2,168.5,5.4,167.1,3.3 M132.9,55c3.5,0.7,10.5,0,12.6-1.4
				l-7,41.2L132.9,55z M72.1,93.4c0,0,0,2.1-0.7,2.1s-2.8,1.4-3.5,1.4c-0.7,0.7-2.1,2.1-2.8,2.1c-2.8,0-7,0.7-7.7,1.4
				c-1.4-2.1-0.7-3.5,0.7-4.9c0.7-0.7,3.5-2.1,5.6-2.1l0.7-14c0.7-1.4,2.8-2.1,4.9-2.1l-2.8-2.1c0-1.4,2.8-47.5,2.8-48.9
				c0.7-0.7,11.9-34.9,11.9-37c1.4,4.2,4.9,12.6,8.4,16.8c4.2,3.5,9.1,5.6,12.6,5.6c-0.7,0.7-4.2,8.4-4.2,9.1S96.6,32,95.9,32.7
				C95.9,33.3,72.8,92.7,72.1,93.4 M58.1,104.6c6.3,0,9.1-2.8,10.5-4.2c0.7,2.1,0,4.2-2.1,5.6c-1.4,1.4-4.2,2.8-9.1,2.8
				c-2.8,0-6.3-0.7-7.7-2.8c-2.1-1.4-2.1-2.8-2.1-5.6C48.3,102.5,52.5,104.6,58.1,104.6 M46.2,138.1c0-2.1,0.7-4.9,1.4-6.3
				c0.7-0.7,2.1-2.8,3.5-2.8c1.4,0.7,3.5,3.5,7,3.5c2.8,0,4.2-3.5,6.3-4.2c1.4,0,2.1,2.1,4.2,2.1c1.4,0,1.4-0.7,2.8-1.4
				c0,1.4,1.4,2.1,3.5,3.5c2.1,2.1,11.2,4.2,14.7,7c2.1,2.1,2.1,4.9,2.1,7c-1.4-2.1-5.6-4.2-9.1-4.2c-2.1,0-7,0.7-8.4,1.4
				c0.7,1.4,1.4,3.5,0.7,4.9c-1.4-1.4-7-1.4-9.1-1.4c-2.1,0-6.3,0.7-9.1,0.7C49.7,147.2,46.2,142.3,46.2,138.1"/>
			<path class="st2" d="M58.1,116.5c15.4,0,21.7-7,22.4-12.6c0.7,1.4,0.7,3.5,0,4.9c0,2.1-2.1,6.3-2.1,7.7s0,2.1,0.7,3.5
				c-1.4,0-4.2-1.4-5.6,0c-2.1,0.7-0.7,4.2-2.8,4.9c-2.1,0.7-4.9-2.1-7-1.4c-2.1,0-4.2,2.8-5.6,2.8c-2.8,0-3.5-2.8-6.3-2.8
				c-2.1-0.7-4.2,0.7-5.6,0.7c-0.7-0.7-2.1-1.4-2.1-2.8c-0.7-0.7-1.4-1.4-2.8-2.1c-1.4,0-2.8,0.7-3.5,0.7c0-0.7,0.7-3.5,0-4.9
				c-0.7-2.1-2.1-4.2-2.8-6.3c0-2.8,0.7-3.5,1.4-4.9C35.8,111.6,44.8,117.2,58.1,116.5 M49,87.8c-1.4,0-3.5-2.1-4.9-3.5
				c0.7-1.4,2.1-4.2,2.8-4.9c0.7,1.4,2.1,3.5,2.8,4.2s1.4,0.7,2.1,1.4c1.4,0.7,1.4,0.7,1.4,1.4c0,1.4,0,1.4-0.7,2.1
				c0.7,0,2.1,0,2.8,0.7C56,89.9,56,90.6,56,92c0,0.7-0.7,0.7-1.4,0.7h-4.2c0,0,1.4,1.4,2.1,1.4c0.7,0.7,0.7,0.7,1.4,1.4
				c0,0.7,0,1.4-0.7,2.8c-2.8,0-7.7-2.8-9.1-3.5l1.4-2.8h-2.1c-0.7-1.4,0-3.5,0-4.2H49 M172,28.4c-0.7,2.1-5.6,7-13.3,13.3
				c-6.3,4.9-15.4,9.1-22.4,9.1c-12.6,0-18.2-8.4-18.9-13.3c-0.7-2.1-0.7-5.6,0-7c-2.1-1.4-2.8-2.8-2.8-4.9c-0.7-1.4,0-3.5,1.4-4.9
				c-0.7,2.1,0.7,4.2,2.1,5.6c0.7,1.4,2.8,2.1,4.2,2.8l0.7-2.8c-1.4-1.4-3.5-3.5-4.2-4.2l0.7-5.6l4.2,2.1l0.7-1.4L123,7.4h2.1L130,6
				l-4.9-3.5V1.1c0,0,0.7,0.7,2.8,0.7c1.4,0,4.9-2.1,4.9-2.1V-1h-7.7c0-1.4,0.7-2.1,1.4-2.1s2.1,0.7,2.8,0.7c0,0,1.4-0.7,2.8-0.7
				l-1.4-1.4c0,0-0.7-0.7-2.1-0.7c-0.7,0-1.4-0.7-1.4-1.4s0.7-3.5,0.7-3.5c0.7-2.8,4.2-2.1,4.2-2.1c2.1,0,9.1,2.8,9.1,2.8l-6.3-9.1
				l2.8-9.8c4.2,1.4,16.8,6.3,30.7,8.4c-1.4,2.1-1.4,3.5-3.5,7l-7,16.8l0.7,2.1c1.4-0.7,4.2,0.7,5.6,2.1c1.4,1.4,3.5,3.5,4.2,4.9
				c-0.7,0.7-2.1,0.7-2.8,0s-1.4-2.1-2.8-1.4c-1.4,0.7-0.7,2.1,0,3.5c0,1.4-2.1,1.4-2.8,0c-1.4-0.7-3.5,0-4.9,1.4
				c-2.1,1.4-9.8,7.7-11.9,9.1c-4.2,2.1-9.8,2.8-13.3,2.1c-2.1,0-4.2-1.4-4.9-0.7l-2.8,4.2l0.7,0.7c0.7-0.7,2.1-1.4,2.8-1.4
				c1.4,0.7,5.6,1.4,9.8,1.4c5.6,0.7,12.6-1.4,15.4-2.8c0-4.2,7.7-8.4,11.2-9.1c2.8,0,4.2,0.7,6.3,1.4l-7.7,6.3l4.2,4.9
				c0,0,6.3-5.6,7-7L172,28.4 M128,20.8c0,0,2.8,2.1,6.3,2.8c4.2,0.7,9.1-2.1,12.6-4.2l-0.7-1.4l-4.9-1.4c-1.4,1.4-2.8,1.4-4.9,1.4
				s-3.5-0.7-3.5-0.7l1.4-1.4l-2.1-0.7c-1.4,1.4-2.8,2.8-4.2,3.5L128,20.8z M120.3,31.9c-1.4,4.9,2.1,9.1,4.2,10.5l2.1-5.6
				C124.5,36.1,121.7,33.3,120.3,31.9 M143.4,36.8c-2.8,2.1-10.5,1.4-13.3,0.7l-2.1,7c1.4,0.7,4.9,2.1,7.7,2.1s6.3-0.7,8.4-2.1
				L143.4,36.8z M158,30.5c-3.5,2.1-9.1,4.9-11.2,5.6l2.8,7c2.1-1.4,10.5-6.3,11.9-7.7L158,30.5z M156.6,48.7
				c2.8-0.7,9.1-5.6,10.5-7l15.4,32.1L156.6,48.7z"/>
			<path class="st0" d="M1025.9,18c4.9,0,9.1-3.5,9.1-8.4c0-5.6-4.2-9.1-9.1-9.1c-4.2,0-8.4,3.5-8.4,9.1
				C1017.6,14.5,1021.8,18,1025.9,18 M1025.9,2.6c4.2,0,7,2.8,7,7s-2.8,7-7,7c-3.5,0-6.3-2.8-6.3-7
				C1019.7,5.4,1022.4,2.6,1025.9,2.6 M1023.1,13.8h3.5c2.1,0,3.5-0.7,3.5-2.8c0-1.4-0.7-2.1-2.1-2.1l2.1-4.9h-1.4l-2.8,4.2h-1.4V4
				h-1.4L1023.1,13.8z M1024.5,9.6h2.1c0.7,0,2.1,0.7,2.1,2.1c0,0.7-1.4,0.7-2.1,0.7h-2.1V9.6z M230-30.3h303.3v3.5H230V-30.3z
				 M575.2-30.3h437.4v3.5H575.2V-30.3z M404.7-98.7h8.4v41.9h-8.4V-98.7z M436.2-56.8h7l18.2-30v30h7v-41.9h-7l-17.5,30h-0.7v-30
				h-7V-56.8z M493.5-86.2c2.8-4.2,7.7-6.3,12.6-6.3c3.5,0,9.1,1.4,9.1,5.6c0,2.8-3.5,4.2-9.1,5.6l-4.2,0.7
				c-7,1.4-13.3,4.2-13.3,11.9c0,9.1,9.1,13.3,16.8,13.3c7,0,13.3-2.8,17.5-8.4l-6.3-4.9c-2.1,3.5-6.3,5.6-11.2,5.6
				s-8.4-1.4-8.4-4.2c0-3.5,4.2-4.9,9.1-5.6l4.9-1.4c6.3-1.4,12.6-3.5,12.6-11.9c0-10.5-9.8-14-18.9-14c-7,0-14,3.5-18.2,9.1
				L493.5-86.2z M578-86.2c0-8.4-7-14-17.5-14c-9.8,0-16.8,5.6-16.8,14v29.4h7.7v-27.3c0-4.9,2.1-8.4,9.1-8.4s9.1,3.5,9.1,8.4v27.3
				h8.4V-86.2z M600.4-56.8h17.5c9.1,0,14.7-4.9,14.7-12.6c0-9.8-6.3-11.9-8.4-12.6l9.1-16.8h-9.1l-8.4,15.4h-7.7v-15.4h-7.7
				L600.4-56.8z M608.1-76.4h9.1c4.2,0,7,2.1,7,6.3s-2.8,6.3-8.4,6.3h-7.7C608.1-63.8,608.1-76.4,608.1-76.4z M663.3-56.8h9.1
				l14-41.9H678l-2.1,8.4h-16.1l-2.8-8.4h-8.4L663.3-56.8z M667.5-64.5l-5.6-18.9h11.9L667.5-64.5z M704.5-56.8h7l17.5-30h0.7v30h7
				v-41.9H729l-17.5,30v-30h-7V-56.8z M786.3-70.8c-0.7,4.9-4.2,7.7-9.1,7.7c-8.4,0-11.9-7-11.9-14.7c0-7,3.5-14.7,11.9-14.7
				c5.6,0,8.4,3.5,9.8,8.4l7.7-3.5c-3.5-8.4-9.1-12.6-17.5-12.6c-14,0-20.3,10.5-20.3,22.4s7.7,22.4,20.3,22.4
				c8.4,0,14.7-4.9,16.8-13.3L786.3-70.8z M811.4-56.8h30v-7h-21.7v-9.8h19.6v-7h-19.6v-11.2h23.1v-7h-31.5v42H811.4z"/>
		</g>
	</g>
</g>
</svg>
