<?xml version="1.0" encoding="utf-8"?>
<!-- Generator: Adobe Illustrator 25.2.1, SVG Export Plug-In . SVG Version: 6.00 Build 0)  -->
<svg version="1.1" id="Layer_1" xmlns="http://www.w3.org/2000/svg" xmlns:xlink="http://www.w3.org/1999/xlink" x="0px" y="0px"
	 viewBox="0 0 156 37.8" style="enable-background:new 0 0 156 37.8;" xml:space="preserve">
<style type="text/css">
	.st0{fill:#007CC4;}
</style>
<g>
	<path class="st0" d="M70.6,2.1c-0.4,1.2-0.7,2.3-1.1,3.4c-1.2,3.6-2.3,7.2-3.5,10.8c-0.6,1.8-1.4,3.4-2.7,4.8
		c-1.2,1.3-2.6,2.1-4.4,2.2c-1.6,0.1-3-0.8-3.6-2.3c-0.1-0.1-0.1-0.3-0.2-0.4c-0.6,0.6-1.1,1.2-1.7,1.7c-0.6,0.6-1.4,1.2-2.4,1.1
		c-2.1-0.1-3.3-1-3.4-3.5c-0.1-1.8,0.5-3.4,1-5c1.3-4,2.7-8.1,4-12.1c0.2-0.5,0.4-0.7,0.9-0.6c1,0,2,0,3,0c0.2,0,0.3,0,0.6,0
		c-0.4,1.2-0.7,2.3-1.1,3.4c-1.1,3.6-2.3,7.1-3.4,10.7c-0.1,0.5-0.2,0.9-0.2,1.4c0,0.6,0.4,0.9,1,0.7c0.4-0.2,0.9-0.5,1-0.9
		c0.7-1.9,1.4-3.8,2-5.7c1-2.9,1.9-5.8,2.9-8.7c0.3-0.9,0.3-0.9,1.2-0.9s1.9,0,2.8,0c0.2,0,0.3,0,0.6,0c-0.3,0.8-0.5,1.5-0.7,2.2
		c-0.5,1.6-1,3.1-1.5,4.6c-0.4,1.3-0.8,2.5-1.2,3.8s-0.8,2.6-1.2,3.9c-0.1,0.2-0.1,0.5-0.1,0.8c0,0.7,0.5,1.1,1.2,0.7
		c0.3-0.2,0.7-0.5,0.8-0.9c0.4-0.9,0.8-1.9,1.1-2.8c0.7-2.1,1.4-4.3,2.1-6.5c0.6-1.8,1.2-3.6,1.7-5.3c0.1-0.4,0.3-0.5,0.7-0.5
		C68,2.1,69.3,2.1,70.6,2.1z"/>
	<path class="st0" d="M86.3,19.9c-0.4,0.5-0.8,0.9-1.1,1.3c-1.1,1.3-2.9,1.6-4.3,0.8c-0.8-0.5-1.1-1.3-1.2-2.2
		c-0.1-1.4,0.3-2.8,0.7-4.1c0.6-1.9,1.3-3.9,1.9-5.8c0.1-0.5,0.3-0.7,0.9-0.7c1,0.1,1.9,0,2.9,0c0.2,0,0.3,0,0.6,0
		c-0.4,1.1-0.7,2.1-1,3.1c-0.6,1.8-1.1,3.6-1.7,5.4c0,0.1-0.1,0.3-0.1,0.3c0.1,0.2,0.2,0.6,0.3,0.7c0.2,0.1,0.5-0.1,0.7-0.2
		c0.2-0.2,0.3-0.4,0.4-0.7c0.9-2.7,1.8-5.4,2.7-8.1c0.1-0.4,0.3-0.6,0.7-0.5c1.1,0,2.2,0,3.3,0c0,0.4,0,0.5-0.1,0.7
		c-0.8,2.5-1.7,5.1-2.5,7.6c-0.1,0.2-0.2,0.4-0.1,0.5c0,0.3,0.1,0.7,0.2,0.7c0.3,0,0.6,0,0.9-0.2c0.2-0.2,0.3-0.5,0.4-0.7
		c0.8-2.3,1.5-4.5,2.3-6.8c0.1-0.4,0.3-0.8,0.4-1.2c0.1-0.3,0.2-0.5,0.6-0.5c1.1,0,2.1,0,3.2,0c0.1,0,0.2,0,0.4,0.1
		c0,0.2,0,0.3-0.1,0.4c-1,3-2,6.1-3.1,9.1c-0.9,2.5-3.1,3.8-5.8,3.6c-1.1-0.1-2.1-1.1-2.4-2.1C86.3,20.2,86.3,20.1,86.3,19.9z"/>
	<path class="st0" d="M147.7,22.2c0.2-0.6,0.4-1.1,0.5-1.6l-0.1-0.1c-0.2,0.2-0.4,0.4-0.6,0.5c-0.5,0.4-0.9,0.8-1.5,1.1
		c-1.3,0.7-2.7,0.2-3.3-1.1c-0.6-1.2-0.6-2.5-0.5-3.7c0.3-2.4,1.3-4.5,2.9-6.4c0.7-0.8,1.5-1.4,2.5-1.7c1.4-0.3,2.6-0.1,3.4,1.3
		c0.1-0.1,0.2-0.2,0.2-0.3c0.3-0.9,0.3-0.9,1.1-0.9c1.2,0,2.4,0,3.7,0c-0.2,0.5-0.3,1-0.4,1.4c-1.1,3.5-2.2,7-3.3,10.5
		C152,22,152,22,151.2,22C150,22.2,148.9,22.2,147.7,22.2z M150.2,13.7c-0.1-0.2-0.2-0.7-0.5-0.7c-0.3-0.1-0.7,0.1-1,0.2
		c-0.2,0.1-0.4,0.4-0.5,0.7c-0.4,1.2-0.9,2.4-1.2,3.6c-0.1,0.3,0.1,0.8,0.2,0.9c0.3,0.1,0.7,0,1-0.1c0.1,0,0.2-0.2,0.3-0.3
		C149.5,16.8,149.9,15.3,150.2,13.7z"/>
	<path class="st0" d="M72.6,22.2c0.2-0.6,0.3-1.1,0.5-1.6L73,20.5c-0.1,0.1-0.2,0.1-0.3,0.2c-0.4,0.4-0.8,0.8-1.2,1.1
		c-1.8,1.3-3.6,0.6-4.2-1.5C67,18.9,67,17.4,67.4,16c0.6-2.1,1.5-4.1,3.1-5.6c1-1,2.3-1.5,3.8-1.2c0.6,0.1,0.8,0.3,1.7,1.3
		c0.1-0.3,0.1-0.6,0.3-0.8c0.1-0.1,0.3-0.3,0.4-0.3c1.3,0,2.5,0,3.8,0c0.4,0,0.5,0.1,0.4,0.5c-1.3,4-2.5,7.9-3.8,11.9
		c0,0.1-0.2,0.4-0.3,0.4C75.3,22.2,74,22.2,72.6,22.2z M71.9,17.8c0.1,0.2,0.2,0.6,0.4,0.7c0.3,0.1,0.7-0.1,1-0.2
		c0.2-0.1,0.4-0.3,0.4-0.4c0.5-1.2,0.9-2.5,1.3-3.7c0.1-0.4,0.2-1-0.3-1.2s-0.9,0.2-1.2,0.5l0,0C72.6,14.8,72.2,16.2,71.9,17.8z"/>
	<path class="st0" d="M105,10.5C105.1,10.5,105.1,10.4,105,10.5c0.5-1.1,0.5-1.1,1.6-1.1s2.2,0,3.4,0c-0.2,0.7-0.4,1.4-0.6,2.1
		c-1.1,3.4-2.1,6.7-3.2,10.1c-0.1,0.4-0.3,0.6-0.8,0.6c-1.2,0-2.4,0-3.7,0c0.2-0.6,0.4-1.1,0.5-1.6l-0.1-0.1
		c-0.1,0.1-0.2,0.2-0.4,0.3c-0.6,0.5-1.2,1-1.8,1.4c-1.3,0.7-2.6,0.1-3.2-1.2c-0.6-1.5-0.6-3-0.3-4.5c0.6-2.4,1.6-4.6,3.4-6.2
		c1-0.9,2.2-1.3,3.6-1c0.6,0.1,1,0.6,1.4,1.1C104.8,10.4,104.9,10.4,105,10.5z M101,17.8c0.1,0.2,0.2,0.6,0.4,0.7
		c0.3,0.1,0.7,0,0.9-0.2c0.2-0.1,0.4-0.3,0.5-0.5c0.8-1.2,1.2-2.6,1.4-4c0-0.3-0.1-0.7-0.3-0.8c-0.2-0.1-0.6,0-0.8,0
		c-0.1,0-0.3,0.2-0.4,0.3C101.7,14.7,101.3,16.2,101,17.8z"/>
	<path class="st0" d="M113.8,22.2c0.4-1.3,0.8-2.6,1.2-3.8c0.4-1.2,0.8-2.4,1.1-3.6c0.1-0.3-0.1-0.8-0.2-0.8c-0.3-0.1-0.8-0.1-1,0.1
		c-0.3,0.2-0.6,0.6-0.7,1c-0.7,2.1-1.4,4.2-2.1,6.4c-0.3,0.8-0.3,0.8-1.1,0.8c-1.2,0-2.4,0-3.6,0c0.1-0.2,0.1-0.4,0.2-0.6
		c1.2-3.9,2.5-7.8,3.7-11.6c0.1-0.4,0.3-0.6,0.8-0.6c1.3,0,2.5,0,3.9,0c-0.2,0.5-0.3,1-0.5,1.5l0.1,0.1c0.1-0.1,0.2-0.2,0.3-0.4
		c0.8-0.9,1.7-1.5,2.9-1.5c2.2-0.1,2.9,1.6,2.6,3.1c-0.3,1.7-0.9,3.3-1.4,4.9s-1,3.1-1.5,4.7c-0.1,0.4-0.3,0.5-0.7,0.5
		c-1.2,0-2.3,0-3.5,0C114.2,22.3,114,22.3,113.8,22.2z"/>
	<path class="st0" d="M33.4,31c-0.4,0.4-0.7,0.8-1.1,1.2c-0.1,0.1-0.4,0.2-0.6,0.2c-8.6,0-17.1,0-25.7,0c-0.2,0-0.4-0.1-0.5-0.2
		c-0.4-0.3-0.7-0.7-1.1-1.2c4,0,7.8,0,11.7,0c0-1.8,0-3.5,0-5.2c0-0.7-0.2-1.4-0.8-1.9c-0.9-1-1.9-1.9-2.8-2.9c0.5,0,1,0,1.5,0
		c0.1,0,0.3,0.1,0.4,0.2c0.7,0.6,1.3,1.2,2,1.7c0.1,0.1,0.4,0.2,0.5,0.2c0.1-0.2,0.2-0.4,0.2-0.6c0-1.7,0-3.3,0-5
		c0-0.5,0.2-0.6,0.6-0.7c0.8-0.1,1.6-0.1,2.3,0.2c0.4,0.1,0.5,0.3,0.5,0.7c0,1.8,0,3.6,0,5.4c0,0.2,0.1,0.4,0.2,0.6
		c0.2-0.1,0.4-0.1,0.6-0.3c0.7-0.7,1.4-1.4,2.1-2.1c0.8-0.9,1.9-1,2.9-1.4c0.1,0,0.1,0,0.3-0.1c-0.4,0.4-0.7,0.7-1,1
		c-1.4,1.4-2.7,2.8-4.1,4.2c-0.4,0.4-0.5,0.8-0.5,1.3c0,1.2,0,2.4,0,3.6c0,0.5,0.1,0.6,0.6,0.6c3.6,0,7.3,0,10.9,0
		c0.2,0,0.5,0,0.7,0L33.4,31z"/>
	<path class="st0" d="M127.6,17.6c1.1,0.6,2.1,1.1,3.2,1.7c-0.6,0.9-1.4,1.6-2.2,2.1c-1.5,1-3.2,1.3-5,0.8c-1.5-0.4-2.5-1.7-2.7-3.3
		c-0.2-1.8,0.3-3.4,1-5c1.1-2.2,2.7-3.8,5-4.6c0.9-0.3,1.8-0.5,2.7-0.3c2.1,0.3,3.2,1.8,3.2,3.9c0,1.1-0.3,2.2-0.4,3.3
		c0,0.3-0.2,0.4-0.6,0.4c-2,0-4,0-6,0c-0.4,0-0.6,0.2-0.7,0.5c0,0.2-0.1,0.4-0.1,0.6c0,0.4,0.2,0.8,0.6,0.9c0.5,0.2,0.9-0.1,1.2-0.5
		C127.3,18.1,127.4,17.8,127.6,17.6z M126.5,14.1c0.1,0,0.1,0.1,0.2,0.1c0.5,0,0.9,0,1.4,0c0.7,0,0.8-0.1,0.8-0.8
		c0-0.8-0.6-1.2-1.3-0.8C127,12.9,126.7,13.5,126.5,14.1z"/>
	<path class="st0" d="M133.6,17.7c0.3,0.3,0.6,0.5,0.9,0.7c0.4,0.3,0.9,0.5,1.4,0.4c0.4-0.1,0.8-0.2,0.9-0.6c0.1-0.4,0-0.9-0.4-1.2
		c-0.2-0.2-0.4-0.3-0.7-0.4c-1.5-0.8-2.2-2.4-1.8-4c0.5-1.9,2.1-3.3,4-3.6c1.8-0.3,3.4,0,4.9,0.9c0.1,0.1,0.3,0.2,0.5,0.3
		c-0.8,1-1.6,2-2.3,3c-0.5-0.3-1-0.7-1.5-0.9c-0.6-0.3-1.1,0-1.3,0.5s0,1,0.5,1.3c0.4,0.3,0.9,0.5,1.3,0.8c1.5,1.4,1.6,3.5,0.3,5.3
		c-1.4,1.8-3.4,2.3-5.6,2.2c-1.4-0.1-2.5-0.7-3.6-1.6C132,19.7,132.8,18.7,133.6,17.7z"/>
	<path class="st0" d="M0.6,14.3c0.4,0.2,0.8,0.3,1.1,0.4c1.3,0.6,2.7,0.6,4.1,0.1c0.5-0.2,1-0.3,1.5-0.5c1.3-0.4,2.5-0.3,3.7,0.2
		c1.9,0.8,3.7,0.7,5.5-0.2c1.4-0.7,2.8-0.6,4.2,0c0.5,0.2,0.9,0.4,1.4,0.5c1.2,0.4,2.3,0.2,3.5-0.3c0.5-0.2,1.1-0.5,1.7-0.6
		c1.2-0.3,2.4,0,3.5,0.5c1.7,0.8,3.3,0.7,4.9,0c0.3-0.1,0.5-0.2,0.8-0.3c0.7-0.2,0.7-0.2,0.9,0.5c0,0.2,0.1,0.4,0.1,0.6
		c0,0.1-0.1,0.3-0.1,0.3c-1,0.4-2,0.8-3.1,1c-1.2,0.3-2.4,0.1-3.5-0.4c-1.3-0.6-2.7-0.8-4.1-0.4c-0.6,0.2-1.1,0.5-1.7,0.7
		c-1.4,0.5-2.7,0.3-4-0.3c-1.6-0.8-3.2-0.8-4.8-0.1c-1.8,0.8-3.5,0.8-5.3,0.1c-1.5-0.6-3-0.6-4.5,0c-2,0.8-4,0.6-5.8-0.4
		c-0.1-0.1-0.3-0.3-0.2-0.4C0.4,15.1,0.5,14.7,0.6,14.3z"/>
	<path class="st0" d="M36.8,12.8c-1.5,0.6-2.8,1.4-4.5,1c-0.6-0.1-1.1-0.3-1.6-0.6c-1.6-0.7-3.1-0.7-4.6,0c-0.8,0.3-1.6,0.6-2.5,0.6
		s-1.8-0.3-2.6-0.6c-1.6-0.7-3-0.7-4.6,0c-0.9,0.4-1.9,0.8-2.9,0.7c-0.8-0.1-1.6-0.3-2.3-0.6c-1.6-0.6-3.1-0.6-4.7,0
		C4.6,14,2.8,14.1,1,12.9c0.1-0.4,0.3-0.8,0.5-1.3c0.4,0.2,0.8,0.3,1.2,0.4c1.1,0.4,2.2,0.2,3.3-0.1c0.9-0.3,1.9-0.5,2.9-0.6
		c0.8,0,1.6,0.2,2.4,0.4c1.7,0.6,3.4,0.6,5.1-0.2c1.6-0.7,3.1-0.7,4.7,0c1.2,0.6,2.4,0.8,3.7,0.5c0.5-0.1,1.1-0.4,1.6-0.6
		c1.5-0.7,3-0.6,4.5,0.1c1.6,0.8,3.2,0.8,4.8,0.1c0.7-0.3,0.7-0.3,1,0.4C36.7,12.4,36.7,12.6,36.8,12.8z"/>
	<path class="st0" d="M35.8,10.3c-1.4,0.7-2.8,0.8-4.3,0.2c-0.6-0.2-1.2-0.5-1.8-0.7c-1.2-0.3-2.4-0.1-3.6,0.4
		c-1.6,0.8-3.2,0.8-4.8,0.1c-0.1-0.1-0.3-0.1-0.4-0.2c-1.4-0.6-2.8-0.6-4.2,0c-1.1,0.5-2.2,0.9-3.4,0.7c-0.6-0.1-1.2-0.2-1.8-0.5
		c-1.7-0.7-3.4-0.6-5.1,0.1C5.2,10.8,4,11,2.7,10.6c-0.2-0.1-0.3-0.1-0.6-0.2C2.3,10,2.5,9.6,2.8,9.2C2.8,9.1,3,9.1,3,9.1
		c1.4,0.4,2.7,0,4-0.5c1.5-0.5,3-0.5,4.4,0.1c1.8,0.7,3.5,0.7,5.2-0.2c1.5-0.7,3-0.7,4.5,0c0.5,0.2,1.1,0.4,1.6,0.6
		C23.9,9.4,25,9.2,26,8.7c1.7-0.8,3.4-0.8,5.1,0c1.2,0.6,2.4,0.8,3.7,0.4c0.1,0,0.3,0.1,0.4,0.2C35.4,9.6,35.6,10,35.8,10.3z"/>
	<path class="st0" d="M99.8,36.3c0.1-0.4,0.2-0.7,0.3-1.1l-0.1-0.1c-0.2,0.2-0.4,0.5-0.7,0.6c-0.4,0.2-0.8,0.5-1.2,0.6
		c-1,0.2-1.7-0.6-1.8-1.7C96,32.1,97,29.9,99,28.2c0.9-0.7,1.9-0.7,2.6-0.2c0.2,0.1,0.3,0.3,0.5,0.5h0.1c0.1-0.6,0.5-0.7,1-0.6
		c0.7,0,1.3,0,2,0h0.1c0,0.1,0,0.2,0,0.3c-0.9,2.6-1.8,5.1-2.6,7.7c-0.1,0.4-0.3,0.5-0.7,0.5C101.3,36.3,100.5,36.3,99.8,36.3z
		 M101.6,30.7c-0.1-0.2-0.2-0.5-0.3-0.5c-0.2,0-0.6,0.1-0.7,0.3c-0.7,0.8-1,1.7-1.2,2.7c0,0.2,0.1,0.5,0.2,0.7
		c0.3-0.1,0.6-0.1,0.8-0.3C101.1,32.8,101.3,31.8,101.6,30.7z"/>
	<path class="st0" d="M103.8,36.3c0.9-2.6,1.8-5.1,2.7-7.6c0.3-0.9,0.4-0.9,1.4-0.9c0.6,0,1.2,0,1.8,0c-0.1,0.4-0.2,0.7-0.3,1
		c0.4-0.3,0.8-0.6,1.2-0.8c0.8-0.6,1.7-0.6,2.4,0.1c0.5,0.5,0.5,1.2,0.3,1.8c-0.3,1.1-0.7,2.1-1,3.1c-0.3,0.9-0.7,1.8-0.9,2.8
		c-0.1,0.3-0.2,0.5-0.6,0.5c-0.8,0-1.6,0-2.5,0c0.4-1.1,0.7-2.2,1.1-3.2c0.2-0.6,0.4-1.1,0.5-1.7c0-0.2-0.1-0.5-0.1-0.7
		c-0.3,0.1-0.6,0-0.8,0.2c-0.2,0.3-0.4,0.6-0.5,1c-0.5,1.3-0.9,2.6-1.3,3.9c-0.1,0.4-0.3,0.5-0.7,0.5
		C105.5,36.3,104.7,36.3,103.8,36.3z"/>
	<path class="st0" d="M66,36.3c0.5-1.4,0.9-2.7,1.4-4.1c0.5-1.3,0.9-2.7,1.4-4c0.1-0.3,0.3-0.5,0.6-0.4c0.8,0,1.6,0,2.4,0
		c-0.1,0.4-0.2,0.7-0.3,1c0.1,0,0.1,0.1,0.2,0.1c0.2-0.2,0.3-0.5,0.5-0.6c0.5-0.5,1.1-0.7,1.8-0.6c1.2,0.2,1.7,1,1.3,2.2
		c-0.3,1.3-0.8,2.5-1.2,3.8c-0.2,0.7-0.5,1.5-0.8,2.2c-0.1,0.2-0.2,0.4-0.3,0.4c-0.9,0-1.8,0-2.7,0c0.5-1.5,1-2.8,1.4-4.2
		c0.1-0.2,0.2-0.5,0.2-0.7s0-0.6-0.1-0.6c-0.2-0.1-0.6-0.1-0.7,0.1c-0.3,0.3-0.5,0.6-0.6,1c-0.4,1.2-0.8,2.4-1.3,3.6
		c-0.4,1-0.2,0.8-1.2,0.8C67.4,36.3,66.8,36.3,66,36.3z"/>
	<path class="st0" d="M91,27.8c-0.7,1.9-1.2,3.8-1.9,5.6c-1,2.4-3.4,3.4-5.8,2.9c-1.3-0.3-1.9-1.4-1.5-2.9c0.5-1.8,1.1-3.5,1.7-5.2
		c0-0.1,0.3-0.3,0.4-0.3c0.7,0,1.4,0,2.2,0c0.4,0,0.5,0.1,0.3,0.5c-0.5,1.5-1,3.1-1.5,4.6c-0.1,0.3-0.3,0.7,0.2,0.9
		c0.4,0.2,0.8-0.1,1-0.5c0.3-0.9,0.6-1.7,0.9-2.6c0.3-0.8,0.5-1.7,0.8-2.5c0.1-0.2,0.2-0.4,0.4-0.4C89.2,27.8,90,27.8,91,27.8z"/>
	<path class="st0" d="M3.5,8c0.6-0.7,0.9-1.6,2-1.7C6,6.2,6.5,5.9,7,5.8c1.5-0.5,2.9-0.4,4.3,0.1c0.7,0.2,1.5,0.5,2.2,0.5
		c0.8,0,1.5-0.2,2.3-0.4c0.6-0.2,1.2-0.5,1.9-0.7C18.8,5,19.9,5.2,21,5.7c1.8,0.9,3.6,0.9,5.4,0c1.4-0.7,2.9-0.7,4.4,0
		c0.7,0.3,1.4,0.4,2.1,0.7c0.1,0,0.2,0,0.2,0.1C33.5,7,33.8,7.4,34.3,8c-0.6,0-1.1,0.1-1.5,0c-0.7-0.2-1.4-0.4-2-0.7
		c-1.5-0.7-3.1-0.6-4.6,0.1c-0.8,0.4-1.7,0.8-2.6,0.6c-0.8-0.1-1.6-0.3-2.3-0.6c-1.7-0.8-3.4-0.8-5.1,0.1c-1.5,0.7-3.1,0.8-4.6,0.1
		c-1.7-0.7-3.5-0.7-5.2,0C5.6,7.9,4.6,8.1,3.5,8z"/>
	<path class="st0" d="M127.4,34.5c-1.1,1.2-2.2,2.1-3.9,2c-1.8,0-2.9-1.3-2.7-3.1c0.3-2.2,1.4-4.1,3.4-5.2c0.9-0.5,1.8-0.7,2.8-0.5
		s1.7,0.9,1.8,2c0,0.8-0.1,1.7-0.2,2.6c0,0.4-0.3,0.5-0.6,0.5c-1.2,0-2.4,0-3.6,0c-0.3,0-0.6,0-0.6,0.4c-0.1,0.4-0.1,0.8,0.3,0.9
		c0.2,0.1,0.7,0,0.8-0.2c0.4-0.6,0.8-0.4,1.2-0.1C126.4,34,126.9,34.2,127.4,34.5z M124.5,30.9c0,0.1,0.1,0.1,0.1,0.2
		c0.4,0,0.9,0,1.3,0c0.1,0,0.2-0.1,0.2-0.2c0-0.3,0-0.7-0.2-0.9c-0.1-0.1-0.6-0.1-0.8,0.1C124.9,30.3,124.7,30.7,124.5,30.9z"/>
	<path class="st0" d="M117.9,33.2c0.6,0.3,1.3,0.5,2,0.8c-1,1.9-3.1,2.9-4.9,2.4c-1-0.3-1.7-1.1-1.8-2.2c-0.2-2.6,1.7-5.5,4.1-6.4
		c0.7-0.3,1.4-0.4,2.2-0.2c1.3,0.4,1.8,1.4,1.7,2.7c0,0.1-0.2,0.3-0.4,0.3c-0.6,0.1-1.1,0.1-1.7,0.1c-0.3,0-0.4-0.1-0.5-0.3
		c-0.2-0.7-0.6-0.9-1.2-0.3c-0.8,0.9-1.3,2-1.4,3.2c0,0.2,0.2,0.6,0.3,0.7c0.2,0.1,0.5,0,0.7-0.1C117.4,33.7,117.6,33.5,117.9,33.2z
		"/>
	<path class="st0" d="M61.6,36.3c1.3-4,2.6-7.8,3.8-11.7c0.1-0.3,0.3-0.5,0.6-0.4c0.9,0,1.7,0,2.7,0c-0.2,0.7-0.4,1.3-0.6,2
		c-1.1,3.2-2.1,6.5-3.2,9.7c-0.1,0.3-0.3,0.5-0.6,0.5C63.4,36.3,62.6,36.3,61.6,36.3z"/>
	<path class="st0" d="M76,33.5c0.4,0.2,0.7,0.5,1,0.7c0.4,0.2,0.9,0,1.1-0.3s0-0.8-0.4-1c-1-0.5-1.5-1.3-1.4-2.5
		c0.2-1.2,0.8-2,1.9-2.4c1.4-0.6,2.8-0.4,4.1,0.3c0.1,0.1,0.2,0.1,0.3,0.2c-0.5,0.7-1,1.3-1.5,1.9c-0.4-0.2-0.8-0.4-1.2-0.5
		c-0.2,0-0.5,0.2-0.6,0.3c-0.1,0.2,0.1,0.5,0.1,0.7c0,0.1,0.1,0.2,0.2,0.2c1.6,0.6,2.1,2.8,0.5,4.4c-1.4,1.4-4.1,1.5-5.7-0.1
		C75,34.7,75.5,34.1,76,33.5z"/>
	<path class="st0" d="M30.6,33.7c-0.4,0.3-0.8,0.6-1.2,0.9c-0.5,0.4-1.1,0.6-1.8,0.6c-5.8,0-11.6,0-17.3,0c-0.7,0-1.2-0.1-1.8-0.5
		c-0.5-0.4-1-0.7-1.6-1.1C14.9,33.6,22.7,33.6,30.6,33.7C30.6,33.6,30.6,33.7,30.6,33.7z"/>
	<path class="st0" d="M31,4.3c-0.8-0.1-1.4-0.3-2.1-0.4c-1.2-0.1-2.3,0.5-3.4,0.9c-1.2,0.4-2.3,0.4-3.5,0c-0.6-0.2-1.1-0.4-1.7-0.6
		C19,3.8,17.8,4,16.6,4.5c-0.7,0.3-1.5,0.5-2.3,0.6c-1,0.2-1.9-0.1-2.8-0.5c-1.4-0.5-2.8-0.7-4.2-0.2c-0.1,0-0.2,0-0.4,0
		C7.1,4.2,7.2,4,7.4,3.9C7.8,3.6,8.3,3.3,8.7,3c0.6-0.5,1.3-0.5,2-0.3c0.6,0.2,1.2,0.4,1.8,0.6c1.4,0.5,2.8,0.1,4.1-0.5
		c1.5-0.7,3-0.7,4.6,0c1.7,0.8,3.4,0.9,5.1,0.1c0.3-0.1,0.7-0.2,1-0.3c0.5-0.3,0.9-0.1,1.4,0.2C29.4,3.2,30.2,3.7,31,4.3z"/>
	<path class="st0" d="M95,27.8c-0.1,0.4-0.2,0.6-0.3,0.9c0.7-0.6,1.5-1.1,2.6-1.1c-0.4,1.1-0.7,2.2-1.1,3.3
		c-1.6-0.3-2.3,0.2-2.8,1.8c-0.3,1-0.7,2-1,3c-0.1,0.2-0.2,0.4-0.4,0.4c-0.9,0-1.8,0-2.8,0c0.3-1,0.6-2,0.9-2.9
		c0.5-1.7,1.1-3.3,1.6-5c0.1-0.4,0.3-0.6,0.7-0.5C93.3,27.8,94.1,27.8,95,27.8z"/>
	<path class="st0" d="M21.5,17.8c1.6,0.6,3.1,0.3,4.5-0.3c1.5-0.7,3-0.7,4.5,0c1.8,0.8,3.5,0.9,5.3,0c0.4-0.2,0.8-0.3,1.2-0.4
		c0.7-0.2,0.8-0.2,0.9,0.6c0,0.2,0.1,0.4,0,0.6c0,0.1-0.1,0.3-0.2,0.3c-0.9,0.3-1.8,0.5-2.7,0.9c-1.4,0.6-2.7,0.4-4-0.2
		c-0.8-0.3-1.6-0.5-2.4-0.7c-0.9-0.2-1.8,0.2-2.6,0.5c-0.7,0.3-1.5,0.5-2.3,0.6c-0.6,0.1-1.2-0.2-1.8-0.3c-0.1,0-0.2-0.2-0.2-0.3
		C21.5,18.7,21.5,18.3,21.5,17.8z"/>
	<path class="st0" d="M0.2,17.1c0.3,0.1,0.7,0.2,1,0.4c1.6,0.8,3.3,0.8,4.9,0.1c1.7-0.7,3.3-0.7,5,0c1.5,0.6,3.1,0.7,4.6,0
		c0.1,0,0.2,0,0.4-0.1c0,0.5,0,0.9,0,1.3c0,0.1-0.2,0.3-0.3,0.3c-1.3,0.6-2.6,0.7-4,0.3c-0.7-0.2-1.3-0.4-2-0.6
		c-1.2-0.3-2.3,0-3.4,0.3c-0.8,0.2-1.6,0.5-2.4,0.6c-1,0.1-1.9-0.3-2.8-0.7c-0.4-0.2-0.9-0.3-1.1-0.6C-0.1,18.1,0.1,17.6,0.2,17.1
		C0.1,17.3,0.1,17.2,0.2,17.1z"/>
	<path class="st0" d="M0.5,23.2c0.5,0.2,1,0.4,1.5,0.6c1.4,0.5,2.8,0.2,4.1-0.3c1.6-0.6,3.3-0.6,4.9,0c0.9,0.3,1.7,0.5,2.7,0.5
		c0.6,0,1.1,0.5,1.4,1.3c-0.6,0.3-1.3,0.4-1.9,0.3c-0.9-0.1-1.8-0.4-2.7-0.7c-1.3-0.4-2.5-0.4-3.7,0c-0.9,0.3-1.9,0.5-2.8,0.7
		S2.2,25.4,1.4,25C1.1,25,1,24.9,1,24.8C0.8,24.3,0.7,23.8,0.5,23.2z"/>
	<path class="st0" d="M22.8,25.6c1.1-1.6,2.7-2.3,4.5-2.7c1.2-0.3,2.3,0.2,3.4,0.7c1.4,0.6,2.9,0.6,4.3,0c0.5-0.2,1.1-0.4,1.6-0.6
		c0.2-0.1,0.4-0.1,0.7-0.1c-0.1,0.5-0.2,1-0.4,1.4c0,0.1-0.2,0.3-0.3,0.3c-0.7,0.3-1.3,0.5-2,0.7c-1.4,0.5-2.8,0.5-4.1-0.2
		c-0.9-0.4-1.8-0.8-2.8-0.7c-0.9,0.1-1.8,0.5-2.7,0.7c-0.6,0.2-1.3,0.3-1.9,0.5C23.1,25.7,23,25.6,22.8,25.6z"/>
	<path class="st0" d="M0.1,20.1c0.4,0.1,0.7,0.2,0.9,0.3c1.7,0.9,3.4,0.8,5.1,0.2c1.1-0.4,2.2-0.6,3.4-0.4c0.6,0.1,1,0.4,1.4,0.8
		c0.5,0.5,1.1,1,1.7,1.5l-0.1,0.2c-0.4-0.1-0.9-0.2-1.3-0.4c-1.9-0.8-3.7-0.7-5.6,0.1c-1.8,0.7-3.5,0.2-5.2-0.6
		c-0.1-0.1-0.2-0.4-0.2-0.6C0.1,20.8,0.1,20.5,0.1,20.1z"/>
	<path class="st0" d="M26.4,1.5c-1.4,0.7-2.7,0.8-4,0.3c-0.8-0.3-1.7-0.6-2.5-0.8c-0.9-0.3-1.8,0-2.7,0.3c-1.1,0.4-2.2,1-3.5,0.8
		C13,2,12.3,1.8,11.6,1.5C16.5-0.4,21.4-0.5,26.4,1.5z"/>
	<path class="st0" d="M37.8,19.9c0,0.5,0,0.8-0.1,1.2c0,0.2-0.3,0.4-0.4,0.5c-0.7,0.2-1.4,0.4-2,0.7c-1.6,0.7-3.1,0.7-4.7-0.1
		c-1.2-0.6-2.5-0.9-3.9-0.4c0.6-0.6,1.1-1.2,1.7-1.7c0.1-0.1,0.6,0,0.8,0c0.5,0.1,1,0.3,1.5,0.5c1.6,0.7,3.1,0.7,4.7,0
		c0.6-0.3,1.2-0.4,1.8-0.6C37.3,19.9,37.5,19.9,37.8,19.9z"/>
	<path class="st0" d="M11.8,36.3c4.8,0,9.6,0,14.4,0C21.4,38.3,16.6,38.3,11.8,36.3z"/>
	<path class="st0" d="M22.5,21c-0.3,0.3-0.6,0.6-0.9,1c0-0.4,0-0.8,0-1.2C21.9,20.9,22.2,21,22.5,21z"/>
	<path class="st0" d="M16.1,20.4c0,0.4,0,0.7,0,1.1c-0.3-0.3-0.5-0.5-0.8-0.7C15.6,20.6,15.8,20.5,16.1,20.4z"/>
</g>
</svg>
