<?xml version="1.0" encoding="utf-8"?>
<!-- Generator: Adobe Illustrator 25.2.1, SVG Export Plug-In . SVG Version: 6.00 Build 0)  -->
<svg version="1.1" id="Layer_1" xmlns="http://www.w3.org/2000/svg" xmlns:xlink="http://www.w3.org/1999/xlink" x="0px" y="0px"
	 viewBox="0 0 156.1 16" style="enable-background:new 0 0 156.1 16;" xml:space="preserve">
<style type="text/css">
	.st0{fill:#2A2A2A;}
</style>
<g>
	<path class="st0" d="M145.6,13.1H129V9.2h16.6V13.1z M129,2.7h16.6v3.9H129V2.7z M144.3,15.8c2.9,0,4.3-1.2,4.3-3.3v-1.8
		c0-0.5-0.2-1-0.6-1.2l-1.9-1.6l1.9-1.6c0.4-0.3,0.7-0.7,0.6-1.2V3.5c0-2.1-1.3-3.3-4.3-3.3H126V16L144.3,15.8z M113.6,13.1H97V9.2
		h16.6V13.1z M97,2.7h16.6v3.9H97V2.7z M112.3,15.8c2.9,0,4.3-1.2,4.3-3.3v-1.8c0-0.5-0.2-1-0.6-1.2l-1.9-1.6l1.9-1.6
		c0.4-0.3,0.7-0.7,0.6-1.2V3.5c0-2.1-1.3-3.3-4.3-3.3H94.1V16L112.3,15.8z M80.8,0v12.9H65.2V0h-3v12.2c0,2.2,1.3,3.6,4,3.6h13.6
		c2.7,0,4-1.3,4-3.6V0H80.8z M33.1,6.5V0.1h-3v15.8h3V9.3H49v6.6h3V0h-3v6.4L33.1,6.5L33.1,6.5z M21.4,2.8V0H4C1.3,0,0,1.3,0,3.6
		v8.6c0,2.2,1.3,3.6,4,3.6h17.5V13H3V2.8H21.4z"/>
	<path class="st0" d="M154.7,0.2c0.3,0.1,0.5,0.3,0.7,0.5s0.3,0.4,0.5,0.7c0.1,0.3,0.2,0.6,0.2,0.8c0,0.3-0.1,0.6-0.2,0.9
		c-0.1,0.3-0.3,0.5-0.5,0.7s-0.4,0.3-0.7,0.5c-0.5,0.2-1.2,0.2-1.7,0s-0.9-0.6-1.1-1.1c-0.1-0.3-0.2-0.6-0.2-0.9s0.1-0.6,0.2-0.8
		c0.1-0.3,0.3-0.5,0.5-0.7s0.4-0.4,0.7-0.5C153.6,0,154.2,0,154.7,0.2z M153.1,0.5c-0.2,0.1-0.4,0.2-0.6,0.4
		c-0.2,0.2-0.3,0.4-0.4,0.6c-0.2,0.5-0.2,1,0,1.5c0.1,0.2,0.2,0.4,0.4,0.6c0.7,0.7,1.9,0.7,2.6,0c0.2-0.2,0.3-0.4,0.4-0.6
		c0.1-0.2,0.1-0.5,0.1-0.7s0-0.5-0.1-0.7s-0.2-0.4-0.4-0.6C154.6,0.3,153.8,0.2,153.1,0.5z M153.1,3.4V0.9h1c0.2,0,0.4,0,0.6,0.2
		c0.1,0.1,0.2,0.3,0.2,0.5c0,0.1,0,0.2,0,0.3c0,0.1-0.1,0.1-0.1,0.2c-0.1,0.1-0.1,0.1-0.2,0.1c-0.1,0-0.2,0.1-0.2,0.1l0.7,1.1h-0.4
		L154,2.3h-0.5v1.1L153.1,3.4z M154.1,2.1h0.2c0.1,0,0.1-0.1,0.2-0.1c0-0.1,0-0.2,0-0.2c0-0.1,0-0.1,0-0.2s-0.1-0.1-0.1-0.1
		c-0.1,0-0.1-0.1-0.2-0.1h-0.8v0.9L154.1,2.1L154.1,2.1z"/>
</g>
</svg>
