<?xml version="1.0" encoding="utf-8"?>
<!-- Generator: Adobe Illustrator 25.2.1, SVG Export Plug-In . SVG Version: 6.00 Build 0)  -->
<svg version="1.1" id="Layer_1" xmlns="http://www.w3.org/2000/svg" xmlns:xlink="http://www.w3.org/1999/xlink" x="0px" y="0px"
	 viewBox="0 0 104 63.7" style="enable-background:new 0 0 104 63.7;" xml:space="preserve">
<style type="text/css">
	.st0{fill:#005AA9;}
	.st1{fill:#03296A;}
</style>
<g>
	<path class="st0" d="M48.1,0c-9.7,0-17.5,7.8-17.5,17.5c0,4,1.3,7.7,3.6,10.6L48.7,9h-1.6h-1.6c-1.7,0-3.2,0.1-4.3,0.3
		c-0.7,0.1-1.3,0.4-1.8,0.7c-0.6,0.4-1.3,1.3-1.8,2.1c-0.1,0.1-0.1,0.3-0.2,0.5l-0.9-0.2l1.4-5.5h18.2L41.8,26.3
		c0.9-0.1,1.3-0.1,2.1-0.1c0.6,0,1.5,0,2.7,0.1l2.6,0.2c0.9,0.1,1.7,0.1,2.3,0.1c1.3,0,2.2-0.1,3-0.4c0.7-0.2,1.3-0.5,1.9-0.9
		c1-0.7,2-1.8,2.6-3c0.1-0.1,0.2-0.3,0.3-0.5l0.8,0.2c-0.2,1-0.4,1.3-0.8,2.2c-0.8,1.7-1.7,2.9-2.9,3.8c-1.2,0.9-2.6,1.4-4.2,1.4H52
		c-1.2,0-2.1-0.1-5-0.5s-4.4-0.6-5.9-0.6c-1,0-1.9,0.1-2.9,0.2c-1.3,0.2-1.7,0.4-2.9,0.9c3.2,3.5,7.8,5.7,12.9,5.7
		c9.7,0,17.5-7.8,17.5-17.5C65.6,7.9,57.8,0,48.1,0"/>
	<path class="st1" d="M12.2,60.9c-0.7,0.1-1.6,0.2-2.6,0.2c-0.3,0-0.8,0-1.3,0H5.7l10.1-14.4H2.7L1,50.2c0.5-0.3,0.8-0.4,1.2-0.6
		c0.7-0.3,1.6-0.5,2.4-0.7c0.7-0.1,1.3-0.2,2.4-0.2c0.5,0,0.9,0,1.3,0h1.9L0,63.2h14.5l1.7-3.8c-0.6,0.3-0.8,0.4-1.2,0.6
		C14.1,60.5,13.1,60.7,12.2,60.9 M59,49.8c0-1.1,0-1.4,0.2-1.9c0.1-0.2,0.1-0.4,0.2-0.5c0.2-0.3,0.3-0.4,0.6-0.7h-5.4
		c0.4,0.3,0.5,0.4,0.6,0.7c0.1,0.2,0.2,0.4,0.3,0.5c0.1,0.4,0.2,0.8,0.2,1.8c0,0.5,0,0.8,0,1v9.9c0,0.6-0.1,1.2-0.3,1.6
		c-0.1,0.2-0.2,0.3-0.3,0.5c-0.1,0.2-0.2,0.3-0.5,0.6H60c-0.3-0.2-0.3-0.3-0.5-0.6c-0.1-0.2-0.2-0.3-0.3-0.5
		c-0.1-0.4-0.2-0.9-0.2-1.4v-10V49.8z M75,60.8c-1,0.4-1.9,0.6-2.9,0.6c-1.7,0-3.2-0.6-4.3-1.8c-1.1-1.2-1.7-2.8-1.7-4.6
		c0-1.7,0.5-3.3,1.5-4.5c0.4-0.5,0.9-0.9,1.5-1.2c0.9-0.5,2-0.8,3.2-0.8c1,0,2,0.2,3,0.6c0.6,0.2,0.8,0.4,1.4,0.7v-3.1
		c-0.4-0.1-0.6-0.2-1-0.3c-1-0.2-1.9-0.3-2.9-0.3c-1.8,0-3.3,0.3-4.8,0.9c-0.8,0.4-1.6,0.8-2.3,1.3c-2.1,1.6-3.2,4-3.2,6.8
		c0,2.7,1.1,4.9,3.1,6.5c1.6,1.3,3.7,1.9,6.2,1.9c1.6,0,3-0.2,4.7-0.7c0.1,0,0.2,0,0.3-0.1v-3c-0.4,0.3-0.5,0.4-0.8,0.5
		C75.7,60.5,75.4,60.7,75,60.8 M94.7,49.7c0-0.7,0.1-1.3,0.2-1.7c0.1-0.2,0.1-0.4,0.3-0.6c0.2-0.3,0.3-0.4,0.7-0.7h-5.5
		c0.3,0.3,0.4,0.4,0.6,0.7c0.1,0.2,0.2,0.4,0.3,0.6c0.1,0.4,0.2,0.9,0.2,1.7v4H84v-3c0-0.9,0-1.5,0-2c0-0.3,0.1-0.5,0.1-0.7
		c0.1-0.4,0.4-0.8,0.7-1.1c0,0,0.1-0.1,0.2-0.2h-5.4c0.3,0.3,0.4,0.4,0.6,0.6c0.1,0.2,0.2,0.4,0.3,0.6c0.1,0.4,0.2,0.6,0.2,1.7v1v9
		c0,0.9,0,1.3-0.1,1.7c0,0.2-0.1,0.4-0.2,0.7c-0.1,0.4-0.3,0.6-0.6,0.9c0,0-0.1,0.1-0.2,0.2h5.3c-0.2-0.2-0.3-0.3-0.4-0.5
		s-0.2-0.3-0.3-0.5C84,61.7,84,61.4,84,60.7c0-0.3,0-0.7,0-1v-4h7.5v4c0,0.9,0,1.2-0.1,1.7c0,0.2-0.1,0.5-0.2,0.7
		c-0.1,0.3-0.3,0.6-0.6,0.9c-0.1,0-0.1,0.1-0.2,0.2h5.3c-0.2-0.2-0.3-0.3-0.5-0.5c-0.1-0.2-0.2-0.4-0.3-0.6
		c-0.2-0.4-0.2-0.7-0.2-1.5c0-0.5,0-0.8,0-0.9v-9.1C94.7,50.6,94.7,49.7,94.7,49.7z M52,62.1c-0.6-0.6-1.1-1.1-1.9-1.9
		c-0.5-0.5-0.9-1-1.2-1.3l-2.6-3c0.3-0.1,0.4-0.1,0.7-0.3c0.8-0.3,1.5-0.7,2.1-1.2c0.7-0.5,1.1-1.1,1.3-1.9c0.1-0.4,0.2-0.8,0.2-1.3
		c0-1-0.4-1.9-1.1-2.7c-0.7-0.7-1.6-1.2-2.7-1.5c-0.8-0.2-1.5-0.3-2.9-0.3c-0.5,0-1,0-1.5,0H38c0.3,0.3,0.4,0.4,0.6,0.6
		c0.1,0.2,0.2,0.4,0.3,0.6c0.1,0.4,0.2,0.9,0.2,1.8v10.8c0,0.8-0.1,1.2-0.2,1.6c-0.1,0.2-0.2,0.4-0.3,0.5c-0.1,0.2-0.2,0.3-0.6,0.6
		h5.3c-0.2-0.3-0.3-0.3-0.5-0.5c-0.1-0.2-0.2-0.3-0.3-0.5c-0.1-0.4-0.2-0.8-0.2-1.5c0-0.3,0-0.5,0-0.8v-3.7l3.1,3.7
		c0.1,0.2,0.4,0.4,0.7,0.8c0.4,0.4,0.6,0.7,0.8,0.9c0.6,0.6,1.2,1.1,1.7,1.4s0.9,0.4,1.7,0.4c0.3,0,0.6,0,0.9,0h2.1
		c-0.3-0.2-0.4-0.3-0.6-0.5C52.5,62.5,52.2,62.3,52,62.1 M45.6,54c-0.6,0.3-1.2,0.5-2.1,0.7c-0.3,0.1-0.6,0.1-0.9,0.1
		c-0.1,0-0.1,0-0.3,0v-6.1c0.2,0,0.3,0,0.4,0c0.8,0,1.6,0.1,2.3,0.3c0.4,0.1,0.8,0.3,1.1,0.6c0.6,0.5,0.9,1.2,0.9,2
		c0,0.7-0.2,1.4-0.7,1.9C46.2,53.6,45.9,53.8,45.6,54 M30.5,47.3c0.1,0.2,0.2,0.4,0.2,0.6c0.1,0.4,0.1,0.8,0.1,1.7v6.3
		c0,1.3,0,2.1-0.1,2.8c-0.1,0.4-0.2,0.9-0.4,1.2c-0.4,0.7-1.2,1.2-2.1,1.4c-0.4,0.1-0.8,0.1-1.2,0.1c-1.4,0-2.7-0.5-3.3-1.4
		c-0.5-0.7-0.6-1.3-0.6-3v-1.4v-5c0-1,0-1.4,0-1.9c0-0.3,0.1-0.5,0.1-0.8c0.1-0.4,0.4-0.9,0.7-1.2l0.1-0.1h-5.4
		c0.3,0.3,0.4,0.4,0.6,0.7c0.1,0.2,0.2,0.4,0.2,0.6c0.1,0.3,0.1,0.5,0.1,0.8c0,0.2,0,0.5,0,1v5.7c0,1.8,0,2.2,0.1,2.9
		c0.1,1.2,0.5,2.2,1.2,3c1.3,1.6,3.3,2.4,5.9,2.4c1.2,0,2.4-0.2,3.4-0.5c1-0.4,1.9-0.9,2.5-1.6c0.8-0.9,1.2-1.9,1.4-3.2
		c0.1-0.8,0.1-1.7,0.1-3v-4.7v-0.9v-0.2c0-0.7,0-1.1,0.1-1.5c0.1-0.2,0.2-0.5,0.3-0.7c0.2-0.3,0.3-0.4,0.7-0.7h-5.3
		C30.3,47,30.4,47.1,30.5,47.3 M101.4,42.6L101.4,42.6c0.4-0.1,0.7-0.3,0.7-0.8c0-0.6-0.4-0.9-1-0.9h-0.8v3.3h0.3v-1.5h0.3
		c0.3,0,0.5,0,0.7,0.4l0.5,1.1h0.4l-0.6-1.3C101.8,42.8,101.7,42.6,101.4,42.6 M100.7,42.4v-1.2h0.3c0.4,0,0.8,0,0.8,0.6
		c0,0.4-0.4,0.6-0.8,0.6H100.7z M101.3,39.9c-1.5,0-2.7,1.2-2.7,2.7s1.2,2.7,2.7,2.7s2.7-1.2,2.7-2.7S102.8,39.9,101.3,39.9
		 M101.3,45c-1.3,0-2.4-1.1-2.4-2.4s1.1-2.4,2.4-2.4s2.4,1.1,2.4,2.4S102.6,45,101.3,45"/>
</g>
</svg>
