<?xml version="1.0" encoding="utf-8"?>
<!-- Generator: Adobe Illustrator 25.2.1, SVG Export Plug-In . SVG Version: 6.00 Build 0)  -->
<svg version="1.1" id="Layer_1" xmlns="http://www.w3.org/2000/svg" xmlns:xlink="http://www.w3.org/1999/xlink" x="0px" y="0px"
	 viewBox="0 0 155.5 43.4" style="enable-background:new 0 0 155.5 43.4;" xml:space="preserve">
<style type="text/css">
	.st0{fill:#FEFEFD;}
	.st1{fill:#5D9732;}
	.st2{fill:#609935;}
</style>
<g>
	<g>
		<path class="st0" d="M16.3,18.5c0.1-0.1,0.1-0.1,0.2-0.2s0.2-0.1,0.2-0.2l0,0l0,0c-0.1,0.1-0.2,0.1-0.2,0.2
			C16.5,18.3,16.4,18.4,16.3,18.5c0,0.1-0.1,0.2-0.2,0.3c-2.8,2.2-6,3.7-9.6,3.9c6.5-2.4,11.3-6.5,13.3-13.4
			c1.9,5.7-3.5,16.9-9.4,19.4c1.5-1.4,2.8-2.8,4-4.7c-2.3,1.8-4.5,2.9-6.8,3.8S3,29.3,0.2,29.9c1.5,0,2.6,0,3.7,0c0,2.1,0,4.2,0,6.4
			c5.4,0,10.7,0,16.1,0c-0.2,2.4-0.4,4.6-0.6,7.1c3.5-11,3.2-21.9,2.2-32.8c2.7,8.3,3.6,16.9,3.1,25.5c4.2,0,8.2,0,12.2,0
			c0-11,0-21.9,0-32.9c-6.2,0-12.4,0-18.6,0c0.4,3.6-0.8,6.5-3.3,8.9c-2.4,2.3-5.1,4-8.3,4.9c3.2-2.5,6.2-5.3,8.7-8.8
			c-0.9,0.1-1.6,0.2-2.5,0.3c4-3.4,5.1-5.8,4.3-8.5C17,1.1,17,2.2,16.1,3.2c-4,0-8,0-12,0c0,8.4,0,16.6,0,25
			c2.4-1.2,4.6-2.5,6.6-4.1s4.2-3.1,5.6-5.4C16.2,18.6,16.3,18.5,16.3,18.5z"/>
		<path class="st1" d="M16.1,18.7c-1.4,2.2-3.6,3.8-5.6,5.4S6.3,27,3.9,28.2c0-8.4,0-16.6,0-25c4,0,8,0,12,0c0.8-1,0.9-2.1,1.1-3.2
			c0.9,2.7-0.3,5.1-4.3,8.5c0.9-0.1,1.6-0.2,2.5-0.3c-2.5,3.5-5.5,6.3-8.7,8.8c3.2-0.9,6-2.6,8.3-4.9c2.5-2.4,3.7-5.4,3.3-8.9
			c6.3,0,12.4,0,18.6,0c0,11,0,21.9,0,32.9c-4,0-8,0-12.2,0c0.5-8.6-0.4-17.2-3.1-25.5c1,10.9,1.3,21.8-2.2,32.8
			c0.2-2.6,0.4-4.8,0.6-7.1c-5.5,0-10.7,0-16.1,0c0-2.2,0-4.3,0-6.4c-1.2,0-2.2,0-3.7,0c2.8-0.6,5.2-1.2,7.4-2.1
			c2.3-0.9,4.4-2.1,6.8-3.8c-1.2,2-2.5,3.3-4,4.7c5.9-2.5,11.3-13.7,9.4-19.4c-2,7-6.8,11.1-13.3,13.4
			C10.2,22.4,13.3,20.9,16.1,18.7L16.1,18.7z M20.6,19.8c-1.5,5.1-3.8,9.5-8.8,12.6C20.4,29.7,21.4,26.6,20.6,19.8z"/>
		<polygon class="st2" points="16.8,18.1 16.8,18 16.8,18 		"/>
		<path class="st2" d="M16.6,18.3c0.1-0.1,0.2-0.1,0.2-0.2l0,0C16.7,18.1,16.6,18.2,16.6,18.3L16.6,18.3z"/>
		<path class="st2" d="M16.6,18.2c-0.1,0.1-0.1,0.1-0.2,0.2l0,0C16.4,18.4,16.5,18.3,16.6,18.2C16.6,18.3,16.6,18.2,16.6,18.2z"/>
		<path class="st2" d="M16.2,18.7c0.1-0.1,0.1-0.2,0.2-0.2l0,0C16.3,18.5,16.2,18.6,16.2,18.7C16.1,18.7,16.2,18.7,16.2,18.7z"/>
		<path class="st0" d="M20.6,19.8c0.8,6.8-0.2,10-8.8,12.6C16.8,29.3,19,24.9,20.6,19.8z"/>
	</g>
	<g>
		<path class="st1" d="M57.7,10.7v3.9h-0.3c-0.1-0.5-0.2-1-0.3-1.3c-0.1-0.4-0.3-0.7-0.6-0.9c-0.2-0.2-0.5-0.4-0.9-0.5
			s-0.8-0.1-1.2-0.1H52v12.8c0,1,0.1,1.7,0.3,1.9c0.3,0.3,0.8,0.5,1.4,0.5h0.6v0.4h-7.1v-0.5h0.6c0.7,0,1.2-0.2,1.5-0.6
			c0.2-0.2,0.3-0.8,0.3-1.8V11.8h-2c-0.8,0-1.3,0.1-1.7,0.2s-0.8,0.4-1.1,0.9c-0.3,0.4-0.5,1.1-0.5,1.8h-0.5v-3.9L57.7,10.7
			L57.7,10.7z"/>
		<path class="st1" d="M76,27.4h-4.5l-5.7-7.8c-0.2,0-0.4,0-0.6,0s-0.3,0-0.4,0s-0.2,0-0.4,0c-0.1,0-0.3,0-0.4,0v4.9
			c0,1,0.1,1.7,0.3,2c0.3,0.4,0.8,0.5,1.4,0.5h0.6v0.4h-7.2v-0.5h0.6c0.7,0,1.2-0.2,1.5-0.7c0.2-0.3,0.3-0.9,0.3-1.8V13.7
			c0-1-0.1-1.7-0.3-2c-0.3-0.4-0.8-0.6-1.4-0.6h-0.6v-0.4h6.1c0.9,0,1.7,0,2.3,0.1c0.6,0.1,1.2,0.2,1.6,0.3c0.5,0.1,0.9,0.3,1.2,0.6
			c0.3,0.2,0.6,0.5,0.9,0.9c0.6,0.7,0.9,1.5,0.9,2.5s-0.3,1.9-1,2.7c-0.7,0.8-1.7,1.3-3.1,1.6l3.4,4.8c0.4,0.6,0.8,1,1.1,1.4
			c0.3,0.4,0.6,0.6,1,0.8s0.6,0.4,1,0.4c0.4,0.1,0.8,0.2,1.2,0.2v0.4H76z M64.1,18.8h0.7c0.8,0,1.5-0.1,2.1-0.3
			c0.6-0.2,1.1-0.4,1.5-0.8c0.4-0.3,0.7-0.7,0.9-1.2c0.2-0.4,0.3-0.9,0.3-1.4s-0.1-1-0.3-1.4c-0.2-0.4-0.4-0.8-0.7-1.1
			c-0.3-0.3-0.7-0.6-1.1-0.7c-0.4-0.2-0.9-0.3-1.5-0.3c-0.5,0-1.1,0.1-1.9,0.2V18.8z"/>
		<path class="st1" d="M84,27v0.4h-7.2v-0.5h0.6c0.7,0,1.2-0.2,1.5-0.6c0.2-0.3,0.3-0.9,0.3-1.9V13.7c0-0.4,0-0.7,0-1
			c0-0.2,0-0.5-0.1-0.6c0-0.2-0.1-0.3-0.2-0.4s-0.2-0.2-0.3-0.3c-0.4-0.2-0.7-0.3-1.1-0.3h-0.6v-0.4h7.2v0.4h-0.6
			c-0.7,0-1.2,0.2-1.5,0.6c-0.2,0.3-0.3,0.9-0.3,1.9v10.8c0,0.4,0,0.7,0,1c0,0.2,0,0.4,0.1,0.6c0,0.2,0.1,0.3,0.2,0.4
			s0.2,0.2,0.4,0.3c0.3,0.2,0.7,0.3,1.1,0.3C83.5,27,84,27,84,27z"/>
		<path class="st1" d="M96.6,10.3v5.8h-0.4c-0.1-0.6-0.2-1.1-0.3-1.5c-0.1-0.4-0.3-0.8-0.5-1.2c-0.2-0.3-0.4-0.6-0.7-0.9
			c-0.3-0.3-0.6-0.5-0.9-0.7c-0.7-0.4-1.4-0.6-2.2-0.6c-0.4,0-0.8,0.1-1.2,0.2c-0.4,0.1-0.7,0.3-0.9,0.6c-0.3,0.2-0.5,0.5-0.6,0.8
			c-0.2,0.3-0.2,0.6-0.2,1c0,0.3,0.1,0.6,0.2,0.9s0.3,0.5,0.6,0.8c0.3,0.3,0.7,0.6,1.3,1c0.5,0.3,1.2,0.8,2.1,1.2
			c1.6,0.8,2.6,1.5,3.2,1.9s1,1,1.3,1.6s0.5,1.3,0.5,1.9s-0.1,1.2-0.4,1.8c-0.3,0.6-0.6,1.1-1.1,1.5s-1,0.8-1.7,1
			c-0.6,0.2-1.4,0.4-2.1,0.4c-0.2,0-0.5,0-0.6,0c-0.2,0-0.3,0-0.5-0.1c-0.2,0-0.4-0.1-0.7-0.2c-0.3-0.1-0.6-0.2-1.1-0.3
			c-0.4-0.1-0.7-0.2-1-0.3c-0.2-0.1-0.4-0.1-0.5-0.1c-0.2,0-0.4,0.1-0.5,0.2s-0.2,0.4-0.3,0.8H87v-5.7h0.2c0.1,0.6,0.2,1.1,0.4,1.6
			c0.1,0.4,0.3,0.8,0.5,1.1c0.2,0.3,0.4,0.6,0.7,0.8c0.3,0.2,0.6,0.4,1,0.6c0.7,0.4,1.5,0.6,2.4,0.6c0.5,0,1-0.1,1.4-0.2
			s0.8-0.3,1.1-0.6c0.3-0.2,0.5-0.5,0.7-0.9c0.2-0.3,0.2-0.7,0.2-1c0-0.4-0.1-0.8-0.3-1.3c-0.2-0.4-0.6-0.8-1.1-1.2
			c-0.1,0-0.2-0.1-0.5-0.3c-0.3-0.2-0.6-0.3-0.9-0.6c-0.4-0.2-0.8-0.5-1.2-0.7c-0.4-0.3-0.9-0.5-1.3-0.8c-0.4-0.2-0.8-0.5-1.1-0.7
			c-0.3-0.2-0.6-0.4-0.7-0.5c-0.6-0.5-1.1-1-1.4-1.6s-0.5-1.2-0.5-1.9c0-0.6,0.1-1.2,0.4-1.7c0.2-0.5,0.6-1,1-1.4s0.9-0.7,1.5-0.9
			s1.2-0.4,2-0.4c0.9,0,1.8,0.2,2.8,0.7c0.5,0.2,0.8,0.3,1,0.3s0.4-0.1,0.5-0.2s0.2-0.4,0.3-0.8h0.5V10.3z"/>
		<path class="st1" d="M111.6,11.2v-0.4h5.9v0.4h-0.6c-0.7,0-1.2,0.3-1.5,0.8c-0.2,0.3-0.3,0.9-0.3,1.8v6.8c0,0.7,0,1.3-0.1,1.9
			c0,0.6-0.1,1.1-0.3,1.5c-0.1,0.4-0.3,0.8-0.5,1.2c-0.2,0.4-0.5,0.7-0.8,1s-0.7,0.6-1.1,0.9c-0.4,0.2-0.8,0.4-1.2,0.5
			c-0.4,0.1-0.8,0.2-1.3,0.3c-0.4,0-0.9,0.1-1.3,0.1c-1.1,0-2-0.1-2.8-0.3c-0.8-0.2-1.4-0.5-1.9-0.9s-0.9-0.8-1.1-1.3
			c-0.3-0.5-0.5-1-0.6-1.6s-0.2-1.1-0.2-1.7s0-1.2,0-1.7V14c0-0.5,0-1-0.1-1.3s-0.2-0.6-0.3-0.8c-0.1-0.2-0.3-0.3-0.6-0.4
			c-0.2-0.1-0.5-0.1-0.8-0.1h-0.6V11h7.2v0.4h-0.6c-0.3,0-0.6,0-0.8,0.1c-0.2,0.1-0.4,0.2-0.6,0.4c-0.1,0.2-0.3,0.4-0.3,0.8
			c-0.1,0.3-0.1,0.8-0.1,1.3v7.3c0,0.7,0,1.4,0.1,2.1s0.3,1.3,0.6,1.9c0.3,0.6,0.7,1,1.3,1.4c0.6,0.3,1.4,0.5,2.3,0.5
			c0.8,0,1.5-0.1,2.2-0.4s1.3-0.6,1.7-1.1c0.3-0.3,0.5-0.7,0.7-1.1s0.3-0.8,0.4-1.2c0.1-0.4,0.1-0.9,0.1-1.3s0-0.9,0-1.3V14
			c0-1-0.1-1.7-0.3-2c-0.3-0.4-0.8-0.6-1.4-0.6h-0.4V11.2z"/>
		<path class="st1" d="M135.3,27.4h-4.5l-5.7-7.8c-0.2,0-0.4,0-0.6,0s-0.3,0-0.4,0s-0.2,0-0.4,0s-0.3,0-0.4,0v4.9c0,1,0.1,1.7,0.3,2
			c0.3,0.4,0.8,0.5,1.4,0.5h0.6v0.4h-7.2v-0.5h0.6c0.7,0,1.2-0.2,1.5-0.7c0.2-0.3,0.3-0.9,0.3-1.8V13.7c0-1-0.1-1.7-0.3-2
			c-0.3-0.4-0.8-0.6-1.4-0.6h-0.6v-0.4h6.1c0.9,0,1.7,0,2.3,0.1s1.2,0.2,1.6,0.3c0.5,0.1,0.9,0.3,1.2,0.6c0.3,0.2,0.6,0.5,0.9,0.9
			c0.6,0.7,0.9,1.5,0.9,2.5s-0.3,1.9-1,2.7c-0.7,0.8-1.7,1.3-3.1,1.6l3.4,4.8c0.4,0.6,0.8,1,1.1,1.4s0.6,0.6,1,0.8
			c0.3,0.2,0.6,0.4,1,0.4c0.4,0.1,0.8,0.2,1.2,0.2v0.4H135.3z M123.4,18.8h0.7c0.8,0,1.5-0.1,2.1-0.3c0.6-0.2,1.1-0.4,1.5-0.8
			c0.4-0.3,0.7-0.7,0.9-1.2c0.2-0.4,0.3-0.9,0.3-1.4s-0.1-1-0.3-1.4s-0.4-0.8-0.7-1.1c-0.3-0.3-0.7-0.6-1.1-0.7
			c-0.4-0.2-0.9-0.3-1.5-0.3c-0.5,0-1.1,0.1-1.9,0.2C123.4,11.8,123.4,18.8,123.4,18.8z"/>
		<path class="st1" d="M147,21.8h-6.5l-1.1,2.6c-0.3,0.6-0.4,1.1-0.4,1.4s0.1,0.5,0.4,0.7c0.2,0.2,0.8,0.3,1.6,0.4v0.5h-5.3v-0.5
			c0.7-0.1,1.2-0.3,1.4-0.5c0.4-0.4,0.9-1.2,1.4-2.4l5.9-13.8h0.4l5.8,13.9c0.5,1.1,0.9,1.8,1.3,2.2c0.4,0.3,0.9,0.5,1.6,0.6v0.5
			h-6.6v-0.5c0.3,0,0.6,0,0.8-0.1s0.4-0.1,0.5-0.2s0.2-0.2,0.3-0.3c0.1-0.1,0.1-0.2,0.1-0.4c0-0.4-0.2-0.9-0.5-1.7L147,21.8z
			 M146.7,20.9l-2.8-6.8l-2.9,6.8H146.7z"/>
	</g>
	<g>
		<path class="st1" d="M153.5,10.1c0.2,0,0.3,0,0.5,0.1c0.2,0,0.3,0.1,0.5,0.2s0.3,0.2,0.4,0.3c0.1,0.1,0.2,0.3,0.3,0.4
			c0.1,0.2,0.2,0.3,0.2,0.5c0.1,0.2,0.1,0.4,0.1,0.6s0,0.4-0.1,0.5c0,0.2-0.1,0.3-0.2,0.5c-0.1,0.2-0.2,0.3-0.3,0.4
			s-0.3,0.2-0.4,0.3c-0.2,0.1-0.3,0.2-0.5,0.2c-0.2,0.1-0.4,0.1-0.6,0.1c-0.3,0-0.5-0.1-0.8-0.2s-0.5-0.3-0.7-0.4
			c-0.2-0.2-0.4-0.4-0.5-0.7c-0.1-0.3-0.2-0.5-0.2-0.8s0.1-0.5,0.2-0.8c0.1-0.3,0.3-0.5,0.4-0.7c0.2-0.2,0.4-0.3,0.7-0.5
			C152.9,10.2,153.2,10.1,153.5,10.1z M153.5,10.3c-0.2,0-0.5,0-0.7,0.1s-0.4,0.2-0.6,0.4c-0.2,0.2-0.3,0.4-0.4,0.6
			c-0.1,0.2-0.2,0.5-0.2,0.8c0,0.2,0,0.5,0.1,0.7s0.2,0.4,0.4,0.6s0.4,0.3,0.6,0.4c0.2,0.1,0.5,0.2,0.8,0.2c0.2,0,0.5,0,0.7-0.1
			s0.4-0.2,0.6-0.4c0.2-0.2,0.3-0.4,0.4-0.6c0.1-0.2,0.2-0.5,0.2-0.8s0-0.5-0.1-0.7s-0.2-0.4-0.4-0.6s-0.4-0.3-0.6-0.4
			C154,10.4,153.7,10.3,153.5,10.3z M152.3,10.9h1.1c0.1,0,0.3,0,0.4,0.1c0.1,0,0.2,0.1,0.3,0.1c0.1,0.1,0.1,0.1,0.2,0.2
			c0,0.1,0.1,0.2,0.1,0.3c0,0.2-0.1,0.3-0.2,0.4c-0.1,0.1-0.3,0.2-0.5,0.3l0.6,0.9l0.1,0.1l0.1,0.1h0.1h0.1v0.1h-0.5l-0.9-1.2h-0.2
			v0.9v0.1c0,0,0,0,0.1,0.1h0.1c0,0,0.1,0,0.2,0v0.1h-1.1v-0.1c0.1,0,0.1,0,0.2,0c0,0,0.1,0,0.1-0.1v-0.1c0-0.1,0-0.1,0-0.2v-1.6
			c0-0.1,0-0.2,0-0.2c0-0.1,0-0.1,0-0.1s0,0-0.1-0.1c0,0-0.1,0-0.2,0v-0.1H152.3z M153,12.2c0.3,0,0.5,0,0.7-0.1
			c0.1-0.1,0.2-0.2,0.2-0.4c0-0.1,0-0.2,0-0.2c0-0.1-0.1-0.1-0.1-0.2s-0.1-0.1-0.2-0.1c-0.1,0-0.2,0-0.2,0c-0.1,0-0.2,0-0.3,0
			L153,12.2L153,12.2z"/>
	</g>
</g>
</svg>
