<?xml version="1.0" encoding="utf-8"?>
<!-- Generator: Adobe Illustrator 25.2.1, SVG Export Plug-In . SVG Version: 6.00 Build 0)  -->
<svg version="1.1" id="Layer_1" xmlns="http://www.w3.org/2000/svg" xmlns:xlink="http://www.w3.org/1999/xlink" x="0px" y="0px"
	 viewBox="0 0 155.9 33.6" style="enable-background:new 0 0 155.9 33.6;" xml:space="preserve">
<style type="text/css">
	.st0{fill:#636569;}
	.st1{fill:#F18A00;}
</style>
<g>
	<path class="st0" d="M35.8,25c-0.1,0-0.2,0-0.3,0.1s-0.1,0.2-0.1,0.3V33c0,0.1,0,0.3,0.1,0.3c0.1,0.1,0.2,0.1,0.3,0.1
		s0.3,0,0.3-0.1c0.1-0.1,0.1-0.2,0.1-0.3v-7.6c0-0.1,0-0.3-0.1-0.3C36,25,35.9,25,35.8,25z M43.1,27.8c-0.2-0.2-0.5-0.4-0.7-0.5
		c-0.3-0.1-0.6-0.2-1-0.2c-0.5,0-1,0.1-1.3,0.4s-0.6,0.5-0.8,0.9v-0.7c0-0.1,0-0.2-0.1-0.3c-0.1-0.1-0.2-0.1-0.3-0.1s-0.2,0-0.3,0.1
		s-0.1,0.2-0.1,0.3v5.4c0,0.1,0,0.2,0.1,0.3c0.1,0.1,0.2,0.1,0.3,0.1s0.2,0,0.3-0.1s0.1-0.2,0.1-0.3v-3.2c0-0.3,0-0.6,0.1-0.8
		c0.1-0.2,0.2-0.4,0.4-0.6s0.4-0.3,0.6-0.4c0.2-0.1,0.5-0.1,0.7-0.1c0.6,0,1,0.2,1.3,0.5s0.4,0.8,0.4,1.4v3.2c0,0.1,0,0.2,0.1,0.3
		c0.1,0.1,0.2,0.1,0.3,0.1s0.2,0,0.3-0.1s0.1-0.2,0.1-0.3v-3.5c0-0.4-0.1-0.7-0.2-1C43.5,28.3,43.3,28,43.1,27.8z M49.3,30.5
		c-0.2-0.1-0.4-0.2-0.6-0.3C48.5,30.1,48.2,30,48,30c-0.2-0.1-0.4-0.1-0.6-0.2c-0.2-0.1-0.4-0.1-0.5-0.2s-0.3-0.2-0.4-0.3
		c-0.1-0.1-0.1-0.2-0.1-0.4l0,0c0-0.3,0.1-0.5,0.3-0.6c0.2-0.2,0.5-0.3,0.9-0.3c0.3,0,0.5,0,0.8,0.1s0.5,0.2,0.8,0.4
		c0.1,0,0.1,0,0.2,0c0.1,0,0.2,0,0.3-0.1s0.1-0.2,0.1-0.3c0-0.1,0-0.2-0.1-0.2c0-0.1-0.1-0.1-0.2-0.2c-0.3-0.2-0.6-0.3-1-0.4
		c-0.3-0.1-0.7-0.1-1-0.1s-0.6,0-0.8,0.1c-0.3,0.1-0.5,0.2-0.7,0.4c-0.2,0.2-0.3,0.3-0.4,0.6c-0.1,0.2-0.2,0.5-0.2,0.7l0,0
		c0,0.3,0.1,0.5,0.2,0.7c0.1,0.2,0.3,0.4,0.5,0.5s0.4,0.2,0.7,0.3c0.2,0.1,0.5,0.2,0.7,0.2c0.2,0.1,0.4,0.1,0.6,0.2
		c0.2,0.1,0.3,0.1,0.5,0.2c0.1,0.1,0.3,0.2,0.3,0.3c0.1,0.1,0.1,0.2,0.1,0.4l0,0c0,0.3-0.1,0.5-0.4,0.7c-0.2,0.2-0.6,0.3-0.9,0.3
		c-0.7,0-1.3-0.2-2-0.7c-0.1,0-0.1-0.1-0.2-0.1c-0.1,0-0.2,0-0.3,0.1s-0.1,0.2-0.1,0.3c0,0.1,0,0.1,0.1,0.2c0,0.1,0.1,0.1,0.1,0.1
		c0.3,0.2,0.7,0.4,1.1,0.6c0.4,0.1,0.8,0.2,1.3,0.2c0.3,0,0.6,0,0.9-0.1c0.3-0.1,0.5-0.2,0.7-0.4c0.2-0.2,0.4-0.4,0.5-0.6
		s0.2-0.5,0.2-0.8l0,0c0-0.3-0.1-0.5-0.2-0.7C49.7,30.8,49.5,30.6,49.3,30.5z M56.4,27.2c-0.1,0-0.2,0-0.3,0.1S56,27.5,56,27.6v3.2
		c0,0.3,0,0.6-0.1,0.8c-0.1,0.2-0.2,0.4-0.4,0.6s-0.4,0.3-0.6,0.4c-0.2,0.1-0.5,0.1-0.7,0.1c-0.6,0-1-0.2-1.3-0.5s-0.4-0.8-0.4-1.4
		v-3.2c0-0.1,0-0.2-0.1-0.3c-0.1-0.1-0.2-0.1-0.3-0.1s-0.2,0-0.3,0.1s-0.1,0.2-0.1,0.3v3.5c0,0.4,0.1,0.7,0.2,1
		c0.1,0.3,0.3,0.6,0.5,0.8c0.2,0.2,0.5,0.4,0.7,0.5c0.3,0.1,0.6,0.2,1,0.2c0.5,0,1-0.1,1.3-0.4c0.3-0.2,0.6-0.5,0.8-0.9V33
		c0,0.1,0,0.2,0.1,0.3c0.1,0.1,0.2,0.1,0.3,0.1s0.2,0,0.3-0.1S57,33.1,57,33v-5.4c0-0.1,0-0.2-0.1-0.3
		C56.6,27.2,56.5,27.2,56.4,27.2z M61.8,27.1c-0.2,0-0.4,0-0.6,0.1c-0.2,0.1-0.4,0.2-0.6,0.3c-0.2,0.1-0.4,0.3-0.5,0.5
		c-0.2,0.2-0.3,0.4-0.4,0.7v-1.2c0-0.1,0-0.2-0.1-0.3c-0.1-0.1-0.2-0.1-0.3-0.1s-0.2,0-0.3,0.1s-0.1,0.2-0.1,0.3v5.4
		c0,0.1,0,0.2,0.1,0.3c0.1,0.1,0.2,0.1,0.3,0.1s0.2,0,0.3-0.1s0.1-0.2,0.1-0.3v-2.1c0-0.4,0.1-0.8,0.2-1.2c0.1-0.3,0.3-0.6,0.5-0.9
		c0.2-0.2,0.4-0.4,0.7-0.6c0.3-0.1,0.6-0.2,0.8-0.2c0.1,0,0.2-0.1,0.3-0.2c0.1-0.1,0.1-0.2,0.1-0.3c0-0.1,0-0.2-0.1-0.3
		C62.1,27.2,62,27.1,61.8,27.1z M65.8,27.1c-0.4,0-0.8,0-1.1,0.1c-0.3,0.1-0.6,0.2-0.9,0.3c-0.1,0-0.1,0.1-0.2,0.1
		c-0.1,0.1-0.1,0.2-0.1,0.2c0,0.1,0,0.2,0.1,0.3c0.1,0.1,0.2,0.1,0.3,0.1c0.1,0,0.1,0,0.2,0c0.2-0.1,0.5-0.2,0.7-0.3
		c0.3-0.1,0.6-0.1,0.9-0.1c0.6,0,1,0.1,1.4,0.4c0.3,0.3,0.5,0.7,0.5,1.3v0.2c-0.3-0.1-0.6-0.1-0.9-0.2c-0.3,0-0.6-0.1-1-0.1
		s-0.8,0-1.1,0.1c-0.3,0.1-0.6,0.2-0.8,0.4c-0.2,0.2-0.4,0.4-0.5,0.6s-0.2,0.5-0.2,0.9l0,0c0,0.3,0.1,0.6,0.2,0.8
		c0.1,0.2,0.3,0.4,0.5,0.6s0.5,0.3,0.7,0.4c0.3,0.1,0.6,0.1,0.8,0.1c0.6,0,1-0.1,1.4-0.3c0.4-0.2,0.7-0.5,0.9-0.7v0.6
		c0,0.1,0,0.2,0.1,0.3c0.1,0.1,0.2,0.1,0.3,0.1c0.1,0,0.2,0,0.3-0.1c0.1-0.1,0.1-0.2,0.1-0.3v-3.4c0-0.8-0.2-1.4-0.6-1.8
		C67.3,27.4,66.7,27.1,65.8,27.1z M67.5,31.2c0,0.2-0.1,0.5-0.2,0.7s-0.3,0.4-0.4,0.5c-0.2,0.1-0.4,0.3-0.7,0.3
		c-0.3,0.1-0.5,0.1-0.8,0.1c-0.2,0-0.4,0-0.6-0.1s-0.4-0.1-0.5-0.2S64,32.3,64,32.1c-0.1-0.2-0.1-0.3-0.1-0.5l0,0
		c0-0.4,0.2-0.7,0.5-0.9c0.3-0.2,0.8-0.3,1.3-0.3c0.4,0,0.7,0,1,0.1s0.6,0.1,0.8,0.2C67.5,30.7,67.5,31.2,67.5,31.2z M75,27.8
		c-0.2-0.2-0.5-0.4-0.7-0.5c-0.3-0.1-0.6-0.2-1-0.2c-0.5,0-1,0.1-1.3,0.4c-0.3,0.2-0.6,0.5-0.8,0.9v-0.7c0-0.1,0-0.2-0.1-0.3
		c-0.1-0.1-0.2-0.1-0.3-0.1c-0.1,0-0.2,0-0.3,0.1c-0.1,0.1-0.1,0.2-0.1,0.3v5.4c0,0.1,0,0.2,0.1,0.3c0.1,0.1,0.2,0.1,0.3,0.1
		c0.1,0,0.2,0,0.3-0.1c0.1-0.1,0.1-0.2,0.1-0.3v-3.2c0-0.3,0-0.6,0.1-0.8c0.1-0.2,0.2-0.4,0.4-0.6c0.2-0.2,0.4-0.3,0.6-0.4
		S72.8,28,73,28c0.6,0,1,0.2,1.3,0.5s0.4,0.8,0.4,1.4v3.2c0,0.1,0,0.2,0.1,0.3c0.1,0.1,0.2,0.1,0.3,0.1c0.1,0,0.2,0,0.3-0.1
		c0.1-0.1,0.1-0.2,0.1-0.3v-3.5c0-0.4-0.1-0.7-0.2-1C75.3,28.3,75.2,28,75,27.8z M82.3,31.9c-0.1,0-0.1,0-0.2,0L82,32
		c-0.2,0.2-0.5,0.4-0.8,0.5s-0.6,0.2-1,0.2c-0.3,0-0.6-0.1-0.9-0.2s-0.5-0.3-0.7-0.5s-0.4-0.5-0.5-0.8s-0.2-0.6-0.2-0.9l0,0
		c0-0.3,0.1-0.7,0.2-0.9c0.1-0.3,0.3-0.5,0.5-0.8c0.2-0.2,0.4-0.4,0.7-0.5c0.3-0.1,0.6-0.2,0.9-0.2c0.4,0,0.7,0.1,1,0.2
		s0.5,0.3,0.7,0.5c0.1,0.1,0.2,0.1,0.3,0.1c0.1,0,0.2,0,0.3-0.1c0.1-0.1,0.1-0.2,0.1-0.3c0-0.1,0-0.1,0-0.2S82.5,28,82.5,28
		c-0.3-0.3-0.6-0.5-1-0.6c-0.4-0.2-0.8-0.3-1.3-0.3s-0.9,0.1-1.3,0.3c-0.4,0.2-0.7,0.4-1,0.7c-0.3,0.3-0.5,0.6-0.7,1
		S77,29.9,77,30.4l0,0c0,0.4,0.1,0.8,0.2,1.2c0.2,0.4,0.4,0.7,0.7,1c0.3,0.3,0.6,0.5,1,0.7s0.8,0.3,1.3,0.3s1-0.1,1.3-0.3
		c0.4-0.2,0.7-0.4,1-0.7c0.1-0.1,0.1-0.2,0.1-0.3c0-0.1,0-0.2-0.1-0.3C82.5,31.9,82.4,31.9,82.3,31.9z M88.9,28.1
		c-0.2-0.3-0.5-0.5-0.9-0.7s-0.8-0.3-1.2-0.3c-0.4,0-0.8,0.1-1.2,0.3c-0.4,0.2-0.7,0.4-0.9,0.7c-0.3,0.3-0.5,0.6-0.6,1
		s-0.2,0.8-0.2,1.3l0,0c0,0.5,0.1,0.9,0.2,1.3c0.2,0.4,0.4,0.7,0.7,1c0.3,0.3,0.6,0.5,1,0.7s0.8,0.2,1.2,0.2c0.5,0,1-0.1,1.3-0.3
		c0.4-0.2,0.7-0.4,1-0.7c0.1-0.1,0.1-0.2,0.1-0.3c0-0.1,0-0.2-0.1-0.3c-0.1-0.1-0.2-0.1-0.3-0.1c-0.1,0-0.2,0-0.3,0.1
		c-0.2,0.2-0.5,0.4-0.8,0.5s-0.6,0.2-1,0.2c-0.3,0-0.5,0-0.8-0.1s-0.5-0.2-0.7-0.4c-0.2-0.2-0.4-0.4-0.5-0.7
		c-0.1-0.3-0.2-0.6-0.2-0.9h4.5c0.1,0,0.2,0,0.3-0.1c0.1-0.1,0.1-0.2,0.1-0.3c0-0.4-0.1-0.8-0.2-1.2C89.3,28.7,89.1,28.3,88.9,28.1z
		 M84.7,30c0-0.3,0.1-0.6,0.2-0.8c0.1-0.3,0.3-0.5,0.4-0.7c0.2-0.2,0.4-0.3,0.6-0.4s0.5-0.2,0.8-0.2s0.6,0.1,0.8,0.2
		c0.2,0.1,0.4,0.3,0.6,0.5s0.3,0.4,0.4,0.7c0.1,0.3,0.2,0.5,0.2,0.8L84.7,30L84.7,30z M46.2,20.4L46.2,20.4c0.5,0,0.7-0.1,1-0.4
		c0.2-0.2,0.3-0.5,0.3-0.9v-12c0-0.3-0.1-0.6-0.4-0.9c-0.2-0.2-0.5-0.4-0.9-0.4c-0.3,0-0.6,0.1-0.9,0.4c-0.2,0.2-0.4,0.5-0.4,0.9
		v8.8l-7.2-9.3c-0.2-0.2-0.4-0.4-0.6-0.5c-0.2-0.1-0.4-0.2-0.8-0.2H36c-0.4,0-0.7,0.1-0.9,0.4c0,0.2-0.1,0.5-0.1,0.8v12
		c0,0.3,0.1,0.6,0.4,0.9c0.2,0.2,0.5,0.4,0.9,0.4c0.3,0,0.6-0.1,0.9-0.4c0.2-0.2,0.4-0.5,0.4-0.9V10l7.4,9.6
		c0.2,0.2,0.4,0.4,0.6,0.6C45.6,20.3,45.8,20.4,46.2,20.4z M60.7,17.1c0.3-0.7,0.4-1.4,0.4-2.2l0,0c0-0.8-0.1-1.5-0.4-2.2
		c-0.3-0.7-0.7-1.3-1.2-1.8s-1.1-0.9-1.8-1.2c-0.7-0.3-1.5-0.4-2.3-0.4s-1.6,0.2-2.3,0.5s-1.3,0.7-1.8,1.2s-0.9,1.1-1.2,1.8
		c-0.3,0.7-0.4,1.4-0.4,2.2l0,0c0,0.8,0.1,1.5,0.4,2.2c0.3,0.7,0.7,1.3,1.2,1.8s1.1,0.9,1.8,1.2c0.7,0.3,1.5,0.4,2.3,0.4
		s1.6-0.2,2.3-0.5s1.3-0.7,1.8-1.2C60,18.4,60.4,17.8,60.7,17.1z M58.7,15c0,0.5-0.1,0.9-0.2,1.3c-0.2,0.4-0.4,0.8-0.7,1.1
		c-0.3,0.3-0.6,0.6-1,0.7c-0.4,0.2-0.9,0.3-1.4,0.3s-0.9-0.1-1.3-0.3c-0.4-0.2-0.8-0.4-1-0.7c-0.3-0.3-0.5-0.7-0.7-1.1
		s-0.2-0.9-0.2-1.3l0,0c0-0.5,0.1-0.9,0.2-1.3c0.2-0.4,0.4-0.8,0.7-1.1c0.3-0.3,0.6-0.6,1-0.7c0.4-0.2,0.9-0.3,1.3-0.3
		c0.5,0,0.9,0.1,1.3,0.3c0.4,0.2,0.8,0.4,1,0.7c0.3,0.3,0.5,0.7,0.7,1.1C58.6,14,58.7,14.4,58.7,15L58.7,15z M68.4,9.3
		c-0.5,0-1.1,0.2-1.6,0.7s-0.9,1-1.2,1.7v-1.1c0-0.4-0.1-0.7-0.4-0.9c-0.2-0.2-0.5-0.4-0.9-0.4s-0.6,0.1-0.9,0.4
		c-0.2,0.2-0.3,0.5-0.3,0.9v8.6c0,0.4,0.1,0.6,0.4,0.9c0.2,0.2,0.5,0.3,0.9,0.3s0.7-0.1,0.9-0.4c0.2-0.2,0.4-0.5,0.4-0.9v-3.2
		c0-1.3,0.3-2.3,0.8-3s1.3-1.1,2.2-1.3c0.3-0.1,0.5-0.2,0.7-0.4c0.2-0.2,0.3-0.5,0.3-0.8c0-0.4-0.1-0.6-0.3-0.9
		C69.1,9.5,68.8,9.3,68.4,9.3z M77.7,19.8c0.1-0.2,0.2-0.4,0.2-0.6c0-0.3-0.1-0.5-0.3-0.7c-0.2-0.2-0.5-0.3-0.7-0.3c0,0-0.1,0-0.2,0
		s-0.2,0-0.4,0c-0.4,0-0.8-0.1-1-0.3c-0.2-0.2-0.3-0.6-0.3-1v-5.3h1.9c0.3,0,0.6-0.1,0.8-0.3c0.2-0.2,0.3-0.5,0.3-0.8
		s-0.1-0.6-0.3-0.8c-0.2-0.2-0.5-0.3-0.8-0.3H75V7.6c0-0.3-0.1-0.6-0.4-0.9c-0.2-0.2-0.5-0.4-0.9-0.4S73,6.4,72.8,6.7
		c-0.2,0.2-0.4,0.5-0.4,0.9v1.8H72c-0.3,0-0.6,0.1-0.8,0.3c-0.2,0.2-0.3,0.5-0.3,0.8s0.1,0.6,0.3,0.8c0.2,0.2,0.5,0.3,0.8,0.3h0.4
		v5.7c0,0.6,0.1,1.1,0.2,1.5c0.2,0.4,0.4,0.7,0.6,1c0.3,0.2,0.6,0.4,1,0.5s0.8,0.2,1.3,0.2c0.3,0,0.6,0,0.9-0.1
		c0.3,0,0.5-0.1,0.8-0.2C77.4,20.1,77.5,20,77.7,19.8z M86.1,9.3c-0.4,0-0.8,0.1-1.1,0.2c-0.3,0.1-0.6,0.2-0.9,0.4
		c-0.3,0.2-0.5,0.4-0.7,0.6S83,11,82.8,11.2V6.5c0-0.3-0.1-0.6-0.4-0.9c-0.2-0.2-0.5-0.4-0.9-0.4s-0.6,0.1-0.9,0.4
		c-0.2,0.2-0.3,0.5-0.3,0.9v12.7c0,0.4,0.1,0.6,0.4,0.9c0.2,0.2,0.5,0.3,0.9,0.3s0.7-0.1,0.9-0.3c0.2-0.2,0.4-0.5,0.4-0.9v-5
		c0-0.8,0.2-1.5,0.7-2s1-0.7,1.8-0.7c0.7,0,1.3,0.2,1.7,0.7c0.4,0.5,0.6,1.1,0.6,2v5c0,0.4,0.1,0.6,0.4,0.9c0.2,0.2,0.5,0.3,0.9,0.3
		s0.6-0.1,0.9-0.3c0.2-0.2,0.3-0.5,0.3-0.9v-5.8c0-1.3-0.3-2.3-1-3C88.2,9.6,87.3,9.3,86.1,9.3z M102.3,10.7c-0.5-0.5-1-0.8-1.6-1.1
		c-0.6-0.2-1.2-0.4-1.9-0.4c-0.9,0-1.6,0.2-2.2,0.6s-1.1,0.9-1.5,1.4V6.4c0-0.4-0.1-0.6-0.4-0.9c-0.2-0.2-0.5-0.3-0.9-0.3
		s-0.6,0.1-0.9,0.3c-0.2,0.2-0.3,0.5-0.3,0.9v12.7c0,0.3,0.1,0.6,0.4,0.9c0.2,0.2,0.5,0.4,0.9,0.4s0.7-0.1,0.9-0.4
		c0.2-0.2,0.4-0.5,0.4-0.9v-0.6c0.4,0.5,0.9,1,1.5,1.3c0.6,0.4,1.3,0.6,2.2,0.6c0.6,0,1.3-0.1,1.9-0.4c0.6-0.2,1.1-0.6,1.6-1.1
		s0.8-1.1,1.1-1.8c0.3-0.7,0.4-1.5,0.4-2.4l0,0c0-0.9-0.1-1.7-0.4-2.4C103.1,11.8,102.7,11.2,102.3,10.7z M101.3,14.9
		c0,0.5-0.1,1-0.2,1.4c-0.2,0.4-0.4,0.8-0.7,1.1c-0.3,0.3-0.6,0.5-1,0.7s-0.8,0.2-1.2,0.2c-0.4,0-0.8-0.1-1.2-0.2
		c-0.4-0.2-0.7-0.4-1-0.7c-0.3-0.3-0.5-0.7-0.7-1.1S95,15.4,95,14.9l0,0c0-0.5,0.1-1,0.3-1.4c0.2-0.4,0.4-0.8,0.7-1.1
		c0.3-0.3,0.6-0.5,1-0.7s0.8-0.2,1.2-0.2c0.4,0,0.8,0.1,1.2,0.2c0.4,0.2,0.7,0.4,1,0.7c0.3,0.3,0.5,0.7,0.7,1.1
		C101.2,13.9,101.3,14.4,101.3,14.9L101.3,14.9z M111.1,9.3c-0.5,0-1.1,0.2-1.6,0.7s-0.9,1-1.2,1.7v-1.1c0-0.4-0.1-0.7-0.4-0.9
		c-0.2-0.2-0.5-0.4-0.9-0.4s-0.6,0.1-0.9,0.4c-0.2,0.2-0.3,0.5-0.3,0.9v8.6c0,0.4,0.1,0.6,0.4,0.9c0.2,0.2,0.5,0.3,0.9,0.3
		s0.7-0.1,0.9-0.4c0.2-0.2,0.4-0.5,0.4-0.9v-3.2c0-1.3,0.3-2.3,0.8-3s1.3-1.1,2.2-1.3c0.3-0.1,0.5-0.2,0.7-0.4
		c0.2-0.2,0.3-0.5,0.3-0.8c0-0.4-0.1-0.6-0.3-0.9C111.8,9.5,111.5,9.3,111.1,9.3z M115.6,9.4c-0.4,0-0.6,0.1-0.9,0.4
		c-0.2,0.2-0.3,0.5-0.3,0.9v8.6c0,0.4,0.1,0.6,0.4,0.9c0.2,0.2,0.5,0.3,0.9,0.3s0.7-0.1,0.9-0.3c0.2-0.2,0.4-0.5,0.4-0.9v-8.6
		c0-0.4-0.1-0.7-0.4-0.9C116.2,9.5,115.9,9.4,115.6,9.4z M116.6,5.7c-0.3-0.2-0.6-0.3-1-0.3s-0.7,0.1-1,0.3
		c-0.3,0.2-0.4,0.5-0.4,0.9v0.1c0,0.4,0.1,0.7,0.4,0.9c0.3,0.2,0.6,0.3,1,0.3s0.7-0.1,1-0.3c0.3-0.2,0.4-0.5,0.4-0.9V6.6
		C117,6.2,116.9,5.9,116.6,5.7z M129,5.2c-0.3,0-0.6,0.1-0.9,0.3c-0.2,0.2-0.4,0.5-0.4,0.9v4.7c-0.4-0.5-0.9-1-1.5-1.3
		c-0.6-0.4-1.3-0.6-2.2-0.6c-0.6,0-1.3,0.1-1.9,0.4c-0.6,0.2-1.1,0.6-1.6,1.1s-0.8,1.1-1.1,1.8c-0.3,0.7-0.4,1.5-0.4,2.4l0,0
		c0,0.9,0.1,1.7,0.4,2.4c0.3,0.7,0.7,1.3,1.1,1.8c0.5,0.5,1,0.8,1.6,1.1c0.6,0.2,1.2,0.4,1.9,0.4c0.9,0,1.6-0.2,2.2-0.6
		c0.6-0.4,1.1-0.9,1.5-1.4v0.7c0,0.4,0.1,0.6,0.4,0.9c0.2,0.2,0.5,0.3,0.9,0.3c0.3,0,0.6-0.1,0.9-0.3c0.2-0.2,0.4-0.5,0.4-0.9V6.5
		c0-0.4-0.1-0.6-0.4-0.9C129.6,5.4,129.3,5.2,129,5.2z M127.8,14.9c0,0.5-0.1,1-0.3,1.4s-0.4,0.8-0.7,1.1c-0.3,0.3-0.6,0.5-1,0.7
		c-0.4,0.2-0.8,0.2-1.2,0.2c-0.4,0-0.8-0.1-1.2-0.2c-0.4-0.2-0.7-0.4-1-0.7c-0.3-0.3-0.5-0.7-0.7-1.1s-0.2-0.9-0.2-1.4l0,0
		c0-0.5,0.1-1,0.2-1.4c0.2-0.4,0.4-0.8,0.7-1.1c0.3-0.3,0.6-0.5,1-0.7s0.8-0.2,1.2-0.2c0.4,0,0.8,0.1,1.2,0.2c0.4,0.2,0.7,0.4,1,0.7
		c0.3,0.3,0.5,0.7,0.7,1.1S127.8,14.4,127.8,14.9L127.8,14.9z M142.3,9.4c-0.3,0-0.6,0.1-0.9,0.4c-0.2,0.2-0.4,0.5-0.4,0.9v0.5
		c-0.4-0.5-0.9-0.9-1.5-1.3s-1.4-0.5-2.3-0.5c-0.6,0-1.2,0.1-1.8,0.3c-0.6,0.2-1.1,0.6-1.6,1s-0.8,1-1.1,1.6s-0.4,1.3-0.4,2.2l0,0
		c0,0.8,0.1,1.5,0.4,2.1c0.3,0.6,0.6,1.2,1.1,1.6s1,0.8,1.6,1s1.2,0.3,1.8,0.3c0.9,0,1.6-0.2,2.2-0.6c0.6-0.4,1.1-0.8,1.6-1.4v0.8
		c0,1.1-0.3,1.9-0.9,2.5c-0.6,0.6-1.4,0.8-2.5,0.8c-0.6,0-1.2-0.1-1.8-0.2c-0.5-0.2-1.1-0.4-1.6-0.6c-0.1-0.1-0.3-0.1-0.5-0.1
		c-0.3,0-0.5,0.1-0.7,0.3c-0.2,0.2-0.3,0.4-0.3,0.7c0,0.5,0.2,0.8,0.7,1c0.7,0.3,1.3,0.6,2,0.7c0.7,0.2,1.4,0.2,2.2,0.2
		c1,0,1.8-0.1,2.6-0.4c0.7-0.2,1.4-0.6,1.9-1.1c0.9-0.9,1.4-2.3,1.4-4.1v-7.5c0-0.4-0.1-0.7-0.4-0.9C143,9.5,142.7,9.4,142.3,9.4z
		 M141.2,14.4c0,0.4-0.1,0.8-0.3,1.2c-0.2,0.4-0.4,0.7-0.7,0.9c-0.3,0.3-0.6,0.5-1,0.6s-0.8,0.2-1.2,0.2s-0.8-0.1-1.2-0.2
		s-0.7-0.3-1-0.6c-0.3-0.3-0.5-0.6-0.7-0.9c-0.2-0.4-0.2-0.8-0.2-1.2l0,0c0-0.5,0.1-0.9,0.2-1.2c0.2-0.4,0.4-0.7,0.7-0.9
		c0.3-0.3,0.6-0.5,1-0.6s0.8-0.2,1.2-0.2s0.8,0.1,1.2,0.2s0.7,0.3,1,0.6c0.3,0.3,0.5,0.6,0.7,0.9C141.1,13.5,141.2,13.9,141.2,14.4
		L141.2,14.4z M155.7,12.7c-0.2-0.6-0.5-1.2-1-1.7c-0.4-0.5-1-0.9-1.6-1.3c-0.6-0.3-1.4-0.5-2.3-0.5c-0.8,0-1.5,0.1-2.1,0.4
		s-1.2,0.7-1.7,1.2s-0.8,1.1-1.1,1.8c-0.3,0.7-0.4,1.4-0.4,2.2l0,0c0,0.8,0.1,1.6,0.4,2.3c0.3,0.7,0.7,1.3,1.2,1.8s1.1,0.9,1.8,1.1
		c0.7,0.3,1.4,0.4,2.2,0.4s1.6-0.1,2.2-0.4c0.6-0.3,1.2-0.6,1.7-1c0.1-0.1,0.2-0.2,0.2-0.3c0.1-0.1,0.1-0.3,0.1-0.4
		c0-0.3-0.1-0.5-0.3-0.7s-0.4-0.3-0.7-0.3c-0.2,0-0.3,0-0.4,0.1c-0.1,0-0.2,0.1-0.3,0.2c-0.4,0.3-0.7,0.5-1.2,0.7
		c-0.4,0.2-0.9,0.3-1.4,0.3c-0.8,0-1.5-0.2-2.1-0.7s-0.9-1.2-1.1-2h6.8c0.3,0,0.6-0.1,0.8-0.3c0.2-0.2,0.3-0.5,0.3-0.9
		C156,14,155.9,13.3,155.7,12.7z M148,14.1c0.1-0.8,0.4-1.5,0.9-2.1c0.5-0.5,1.1-0.8,1.9-0.8c0.4,0,0.8,0.1,1.1,0.2s0.6,0.3,0.8,0.6
		c0.2,0.3,0.4,0.6,0.6,0.9c0.1,0.3,0.2,0.7,0.3,1.1H148V14.1z"/>
	<path class="st1" d="M24.8,2.9c-0.8,0-1.5,0.7-1.5,1.5V16c0,4-3.3,7.2-7.2,7.2S8.9,19.9,8.9,16v-5.8c0-0.8,0.6-1.4,1.4-1.4
		s1.4,0.6,1.4,1.4V16c0,2.4,2,4.4,4.4,4.4s4.4-2,4.4-4.4v-5.8c0-1.4-0.3-2.7-0.8-4C19.2,5,18.4,3.9,17.5,3c-0.9-0.9-2-1.7-3.2-2.2
		C13,0.3,11.7,0,10.3,0s-2.7,0.3-4,0.8C5,1.3,3.9,2.1,3,3C2.1,3.9,1.3,5,0.8,6.2C0.3,7.5,0,8.8,0,10.2v11.6c0,0.8,0.7,1.5,1.5,1.5
		S3,22.7,3,21.9V10.2C3,6.2,6.3,3,10.2,3s7.2,3.3,7.2,7.2V16c0,0.8-0.6,1.4-1.4,1.4s-1.4-0.6-1.4-1.4v-5.8c0-2.4-2-4.4-4.4-4.4
		s-4.4,2-4.4,4.4V16c0,1.4,0.3,2.7,0.8,4c0.5,1.2,1.3,2.3,2.2,3.2c0.9,0.9,2,1.7,3.2,2.2c1.3,0.5,2.6,0.8,4,0.8s2.7-0.3,4-0.8
		c1.2-0.5,2.3-1.3,3.2-2.2c0.9-0.9,1.7-2,2.2-3.2c0.5-1.3,0.8-2.6,0.8-4V4.4C26.3,3.6,25.6,2.9,24.8,2.9z"/>
</g>
</svg>
