<?xml version="1.0" encoding="utf-8"?>
<!-- Generator: Adobe Illustrator 25.2.1, SVG Export Plug-In . SVG Version: 6.00 Build 0)  -->
<svg version="1.1" id="Layer_1" xmlns="http://www.w3.org/2000/svg" xmlns:xlink="http://www.w3.org/1999/xlink" x="0px" y="0px"
	 viewBox="0 0 122.1 64" style="enable-background:new 0 0 122.1 64;" xml:space="preserve">
<style type="text/css">
	.st0{fill:#001871;}
</style>
<g>
	<path class="st0" d="M30.6,14L13.4,50h6l4.1-8.7h15.9l3.9,8.7h6.1L32.8,14H30.6z M31.6,23.9l5.5,12.3H25.8L31.6,23.9z"/>
	<rect x="55.2" y="14" class="st0" width="5.6" height="35.9"/>
	<path class="st0" d="M90.2,31.3h15.3v1.2c0,2.7-0.3,5.1-1,7.2c-0.6,1.9-1.7,3.7-3.2,5.4c-3.4,3.8-7.8,5.6-13.1,5.6
		c-5.2,0-9.6-1.8-13.3-5.4c-3.7-3.6-5.5-8-5.5-13.1c0-5.2,1.9-9.6,5.6-13.3c3.8-3.6,8.3-5.5,13.7-5.5c2.9,0,5.6,0.6,8.1,1.7
		c2.4,1.1,4.8,3,7.1,5.6l-4,3.7c-3-3.9-6.7-5.9-11.1-5.9c-3.9,0-7.2,1.3-9.9,3.9c-2.7,2.6-4,5.8-4,9.7c0,4,1.5,7.3,4.4,9.9
		c2.8,2.4,5.8,3.6,9,3.6c2.8,0,5.2-0.9,7.4-2.7c2.2-1.8,3.4-4,3.7-6.5h-9.2V31.3z"/>
	<path class="st0" d="M0,64h122.1V0H0V64z M5.1,4.9h112V59H5.1V4.9z"/>
</g>
</svg>
