<?xml version="1.0" encoding="utf-8"?>
<!-- Generator: Adobe Illustrator 25.2.1, SVG Export Plug-In . SVG Version: 6.00 Build 0)  -->
<svg version="1.1" id="Layer_1" xmlns="http://www.w3.org/2000/svg" xmlns:xlink="http://www.w3.org/1999/xlink" x="0px" y="0px"
	 viewBox="0 0 156 62.6" style="enable-background:new 0 0 156 62.6;" xml:space="preserve">
<g>
	<path d="M104.8,22c-0.6,0-1.4,0.1-1.6,0.2s-0.3,0.3-0.3,0.6c0,1-0.1,3.2-0.1,5.4V36c0,2.9,0.2,3.5,0.5,3.8c0.5,0.4,1.4,0.9,3.3,0.9
		c5.8,0,8.5-3,8.5-9l0,0C115.2,25,110.8,22,104.8,22z"/>
	<path d="M63.9,21.7c-3.2,0-6.4,2.5-6.4,8.8c0,5.4,2.7,10.4,7.6,10.4c4,0,6.4-3.1,6.4-9C71.5,25.6,68.2,21.7,63.9,21.7z"/>
	<path d="M0,0v62.6h156V0H0z M34.5,41.1c-0.2,0.6-0.3,0.7-0.3,0.7H19.8v-0.7c0.4,0,1.3-0.1,1.5-0.1c0.5-0.1,0.8-0.5,0.9-1.3
		c0.1-0.9,0.1-3.3,0.1-5.7v-5.4c0-4.1,0-4.7-0.1-5.5c-0.1-0.9-0.2-1.4-1.1-1.5c-0.2,0-0.9-0.1-1.3-0.1v-0.6h5.9v2.3c0,0,0,1.4,0,5.5
		v5.4c0,3.7,0,5.3,0.5,5.8c0.5,0.4,1.6,0.6,3.7,0.6c1.9,0,2.6-0.1,3.2-0.7s0.8-1.2,1.1-2.4h1C35.4,37.3,34.7,40.4,34.5,41.1z
		 M51.5,41.1c-0.2,0.6-0.3,0.7-0.3,0.7H36.7v-0.7c0.4,0,1.3-0.1,1.5-0.1c0.5-0.1,0.8-0.5,0.9-1.3c0.1-0.9,0.1-3.3,0.1-5.7v-5.4
		c0-4.1,0-4.7-0.1-5.5c-0.1-0.9-0.2-1.4-1.1-1.5c-0.2,0-0.9-0.1-1.3-0.1v-0.6h5.9v2.3c0,0,0,1.4,0,5.5v5.4c0,3.7,0,5.3,0.6,5.8
		c0.5,0.4,1.6,0.6,3.7,0.6c1.9,0,2.6-0.1,3.2-0.7c0.5-0.6,0.8-1.2,1.1-2.4h1C52.3,37.3,51.7,40.4,51.5,41.1z M64.3,42.2
		c-7.6,0-10.6-5.9-10.6-10.9c0-5.1,3.2-10.9,10.8-10.9c6.7,0,10.7,4.2,10.7,10.4C75.3,37.1,71.2,42.2,64.3,42.2z M96.2,21.4
		c-1.3,0-2,0.5-2.9,1.5c-0.9,1.1-4.6,8-5.1,9.2c-0.4,1-0.4,1.8-0.4,2.7V37c0,0.4,0,1.4,0.1,2.5c0.1,0.8,0.3,1.4,1.1,1.5
		c0.4,0.1,1.3,0.1,1.7,0.1v0.7h-9.1v-0.7c0.4,0,1.5,0,1.7-0.1c0.3-0.1,0.9-0.2,1-1.5c0.1-1.1,0.1-2.1,0.1-2.5v-2.2
		c0-1.5-0.3-2.1-0.6-2.8c-0.2-0.4-3.8-6.9-4.8-8.4c-0.7-1-1.3-1.6-1.8-1.9c-0.4-0.2-1.2-0.4-1.5-0.4v-0.6h5.6c0,0,0.1,0.4,0.9,2
		c0.4,0.8,4.1,7.7,4.5,8.4c0,0,3.8-7.2,5.5-10.5h4.1L96.2,21.4L96.2,21.4z M115.8,38.9c-1.2,1.3-3.8,3-8.8,3H96.6v-0.7
		c1.8-0.1,2.5,0,2.7-1.5c0.1-1.1,0.1-4.3,0.1-5.6v-5.4c0-4.1,0-4.7-0.1-5.5c-0.1-0.9-0.3-1.4-1.2-1.5c-0.2,0-1-0.1-1.4-0.1V21h8.5
		c3.4,0,7.9,0,10.8,3.1c1.3,1.4,2.6,3.7,2.6,7C118.8,34.5,117.3,37.3,115.8,38.9z M120.1,25.3l-0.6-0.5c0.9-1,0.8-4.2,0-5v-0.1
		c0.7,0,1.8,0.2,2.3,0.4c0.4,0.1,0.4,0.2,0.7,0.3C122.6,22.1,121.1,24.8,120.1,25.3z M128.3,42.1c-1.7,0-4-0.4-5.1-0.9
		c0,0-0.1-0.1-0.1-0.7c0-1.5,0.1-3.8,0.2-4.2h0.7c0.1,0.5,0.2,1.1,0.4,1.8c0.6,2,2.3,2.7,4.2,2.7c2.3,0,3.8-1.1,3.8-3.4
		c0-1.6-1.1-2.6-3.1-4.1l-1.3-1c-2.6-2-4.4-3.9-4.4-6.6c0-3,2.4-5.4,6.5-5.4c1.7,0,3.4,0.3,4.1,0.5c0.2,0.1,0.4,0.1,0.4,0.3
		c0,0.4-0.1,1.9-0.1,4h-0.7c-0.7-2.3-1.1-3.5-4-3.5c-2.3,0-3.6,1.4-3.6,3c0,1.3,1.1,2.7,3.2,4.3l1.3,0.9c3,2.3,4.3,3.7,4.3,6.4
		C135.2,39.6,132.7,42.1,128.3,42.1z"/>
</g>
</svg>
