<?xml version="1.0" encoding="utf-8"?>
<!-- Generator: Adobe Illustrator 25.2.1, SVG Export Plug-In . SVG Version: 6.00 Build 0)  -->
<svg version="1.1" id="Layer_1" xmlns="http://www.w3.org/2000/svg" xmlns:xlink="http://www.w3.org/1999/xlink" x="0px" y="0px"
	 viewBox="0 0 156 57.6" style="enable-background:new 0 0 156 57.6;" xml:space="preserve">
<style type="text/css">
	.st0{fill:#939BA0;}
	.st1{fill:#BD3037;}
	.st2{fill:#221F1F;}
</style>
<g>
	<path class="st0" d="M23,25.1c1.9,1.7,3.4,3.8,4.5,6.1c0.6-0.4,1.2-0.9,1.7-1.4c-0.8-1.7-1.9-3.2-3.1-4.6h8.3
		C32,31.2,26,35.6,19,35.6c-9,0-16.4-7.3-16.4-16.4c0-9,7.3-16.4,16.4-16.4c2.4,0,4.8,0.5,6.9,1.5c0-0.9,0.2-1.8,0.5-2.7
		c-2.3-1-4.8-1.5-7.4-1.5c-10.5,0-19,8.5-19,19s8.5,19,19,19c8.4,0,15.6-5.5,18.1-13.1c0.2-0.8,0.5-1.6,0.6-2.4H19.8
		C21,23.4,22,24.2,23,25.1"/>
	<path class="st1" d="M23.9,13.3c-1-0.9-0.8-1.9-0.8-1.9s-1.1,2.3,0.5,6c1.5,3.7,6.6,4.2,6.6,4.2s-2.8-1.2-3.2-3.8
		c-0.3-1.9,0.8-4.6,0.8-4.6s0.7,1.8,1.4,2.4c1.7,1.5,3.3,1.7,4.1,2.5c1.3,1.2,1,2.1,0.5,2.8c-0.7,0.8-1.8,1-1.8,1s1.7,0.2,3.1-0.6
		c1.4-0.7,2.3-2.3,1.7-4.3c-0.6-1.9-3-3.3-5.6-4.5c-5-2.2-4.9-6.1-4.9-6.1s-1.2,1-1.6,2c-1,2.6-0.3,4.2-0.3,4.2
		c0.3,0.5,1.1,1.3,1.1,1.3S24.6,14,23.9,13.3"/>
	<path class="st1" d="M34.4,13.3c-0.8-0.5-1.3-1.1-1.5-2l0,0c-0.2-0.5-0.2-1.2-0.1-1.7c0.2-0.9,0.6-1.4,0.9-1.7l0.2-0.2
		C34,7.7,34,7.6,34,7.6s0,0-0.1,0.1l0,0c-1,0.6-1.7,1.7-1.7,2.9c0,0.5,0.1,1,0.4,1.5c0,0,0,0.1,0.1,0.1c-0.8-0.4-1.5-1-2-1.8
		s-1.1-1.9-1.2-2.7c-0.3-2.3,0.4-3.4,0.4-3.4S29,5.2,29.1,7.4c0.1,1.4,0.8,2.6,1.3,3.4c-2-1.7-3.6-4.4-3-7.3
		c0.6-2.9,2.1-3.4,2.1-3.4s-0.6,1,0.2,1.5S32,0.4,32,0.4S31.1,2.3,31.6,3c0.4,0.5,1.3,0.3,1.3,0.3s-1,0.7-1.3,1.6
		c-0.2,0.8,0,1.4,0.6,1.7s1.3,0,1.7-0.6s0.6-1.3,0.6-1.3S34.4,5.8,35,6s1.6-0.8,1.6-0.8S35.9,6.6,36.2,7c0.3,0.4,1.1,0.3,1.1,0.3
		s-2.8,1.4-2.9,3c-0.1,1.4,0.3,2,0.8,2.8c0.3,0.5,0.9,1.8,0.9,1.8S35.6,14.2,34.4,13.3L34.4,13.3"/>
	<path class="st2" d="M55.1,10.2h7.4v0.6c-2.4,0-2.4,0.4-2.4,3.9v1.8c-0.2,0-0.3-0.1-0.5-0.1c-1,0-2.2,0.4-2.6,0.6
		c-0.9,0.4-2.1,0.8-4,0.8c-4.9,0-8.6-3.6-8.6-8.5c0-3.8,2.4-9.2,8.6-9.2c1.3,0,3.6,0.2,5.7,2.5c0.4-0.9,0.5-1.7,0.5-1.9H60v5.7h-0.6
		c-0.5-3.9-3.2-5.7-5.9-5.7c-1.6,0-3.2,0.6-4.4,2c-1.2,1.3-1.6,3.5-1.6,6.2c0,2.4,0.4,5,1.9,6.6c1,1.1,2.6,1.7,4.2,1.7
		c1.4,0,2.8-0.5,3.6-1.4c0.7-0.8,0.7-1.8,0.7-2.3c0-2.5-0.4-2.6-2.1-2.6h-0.4v-0.7"/>
	<path class="st2" d="M73.3,17.2c5.6,0,6.3-5.4,6.3-8.2c0-2.5-0.5-8.2-6.4-8.2c-5.3,0-6.4,4.6-6.4,8.2
		C66.8,14.3,68.8,17.2,73.3,17.2 M73.1,0.1c4.7,0,9.4,2.7,9.4,8.8c0,5.2-3.6,8.9-9.3,8.9c-5.2,0-9.3-3.3-9.3-9
		C63.9,3,68.5,0.1,73.1,0.1"/>
	<path class="st2" d="M89.1,8.7c3.3,0,4.5-1.4,4.5-3.9c0-3.4-2.1-4-4.7-4c-0.5,0-0.9,0-1.2,0.1v7.8L89.1,8.7 M91.5,8.9
		c1.1,0.6,2.7,2.7,3,3.1c0.1,0.2,0.7,1,0.9,1.2c2.5,3.4,3.8,3.7,5.2,3.7v0.6H96c-1.3-0.9-3.1-3.5-3.7-4.5c-1-1.5-2.2-2.8-2.7-3.4
		c-0.4-0.4-0.9-0.4-1.2-0.4h-0.7V13c0,3.3,0,3.9,2.1,3.9h0.8v0.6h-8.2v-0.6H83c2.2,0,2.2-0.6,2.2-3.9V4.6c0-3.4-0.1-3.7-2.1-3.7
		h-0.5V0.3h0.3c0.5,0,2.7-0.2,3.4-0.2c0.6,0,1.8-0.1,2.6-0.1c3.5,0,5,0.7,6,1.5c1,0.9,1.4,1.8,1.4,2.9C96.4,7.2,94.2,8.6,91.5,8.9
		L91.5,8.9z"/>
	<path class="st2" d="M108.7,16.9c1.4,0,4,0,5.1-4.8h0.6l-0.4,5.3H99.8v-0.6h0.3c2.2,0,2.2-0.6,2.2-3.9V4.5c0-3.4,0-3.7-2.2-3.7V0.2
		h12.3l0.4,4.3h-0.6c-0.8-3.6-2.1-3.7-5-3.7h-2.4V8h1.8c2.4,0,2.6-0.6,2.6-2.6h0.6v5.9h-0.6c0-2.6-0.6-2.7-2.5-2.7h-1.9v4.2
		c0,3.9,0.2,4.1,2.5,4.1H108.7"/>
	<path class="st2" d="M56.5,34.9l6.2-14.2H68v0.6h-0.6c-2.2,0-2.3,0.2-2.3,3.7v8.4c0,3.3,0,3.9,2.2,3.9H68v0.5h-8.2v-0.6h0.6
		c2.2,0,2.2-0.6,2.2-3.9V22.5h-0.1l-6.7,15.3h-0.6l-6.8-15.4h-0.1v10c0,2.4,0,3.1,0.6,3.9c0.6,0.7,1.5,0.9,2.1,0.9v0.6h-6v-0.6
		c0.5,0,1.4-0.1,2.1-1c0.6-0.7,0.6-1.6,0.6-3.9v-7.4c0-3.5,0-3.7-2.3-3.7H45v-0.6h5.2L56.5,34.9"/>
	<path class="st2" d="M82.1,20.7h5.7v0.6c-2.5,0.2-2.5,1.5-2.5,3.6v5.7c0,2.2,0,3.4-0.7,4.6c-0.9,1.7-3,2.9-6.3,2.9
		c-3.5,0-5.2-1.5-5.9-2.5c-0.9-1.3-0.9-2.5-0.9-5.4V25c0-3.5,0-3.7-2.3-3.7H69v-0.6h7.8v0.6c-2.6,0-2.6,0-2.6,3.7v5.4
		c0,2.5,0,3.8,0.6,4.9c0.6,1,2,2,4.2,2c1.7,0,3.9-0.6,5-2.3c0.7-1.1,0.7-2.3,0.7-4.5v-5.8c0-2.1,0-3.2-2.6-3.4V20.7"/>
	<path class="st2" d="M93.7,21.3c-1.8,0-2.5,0-3.1,0.7c-0.4,0.5-0.8,1.6-1,2.8H89l0.1-4.1h16.6l0.1,4.1h-0.5
		c-0.6-3.5-1.8-3.5-3.9-3.5h-2.7v12.1c0,3.3,0,3.9,2.2,3.9h0.9v0.5h-8.6v-0.6H94c2.2,0,2.2-0.6,2.2-3.9v-12H93.7"/>
	<path class="st2" d="M120.1,20.7h5.7v0.6c-2.5,0.2-2.5,1.5-2.5,3.6v5.7c0,2.2,0,3.4-0.7,4.6c-0.9,1.7-3,2.9-6.3,2.9
		c-3.5,0-5.2-1.5-5.9-2.5c-0.9-1.3-0.9-2.5-0.9-5.4V25c0-3.5,0-3.7-2.3-3.7H107v-0.6h7.8v0.6c-2.6,0-2.6,0-2.6,3.7v5.4
		c0,2.5,0,3.8,0.6,4.9c0.6,1,2,2,4.2,2c1.7,0,3.9-0.6,5-2.3c0.7-1.1,0.7-2.3,0.7-4.5v-5.8c0-2.1,0-3.2-2.6-3.4V20.7"/>
	<path class="st2" d="M127.8,31h6l-3-7.3L127.8,31 M134.1,31.5h-6.5l-0.4,1.1c0,0-0.1,0.1-0.1,0.3c-0.4,1.1-0.9,2.1-0.9,2.8
		c0,0.7,0.4,1.6,1.9,1.6v0.5H123v-0.6c1.8-0.3,2.2-1.3,3-3.4c0.1-0.2,0.5-1.2,0.6-1.5l5-11.9h0.5l6,14.2c0.1,0.3,0.2,0.5,0.3,0.6
		c0.5,1.2,0.9,1.8,2.3,2v0.6H134v-0.6c1.2,0,2.1,0,2.1-0.9c0-0.3-0.1-0.5-0.3-0.9c0-0.1-0.3-0.6-0.3-0.7L134.1,31.5z"/>
	<path class="st2" d="M156,32.8l-0.1,5h-14.6v-0.6h0.5c2.2,0,2.2-0.6,2.2-3.9v-8.4c0-3.5-0.1-3.7-2.3-3.7h-0.4v-0.6h8.2v0.6h-0.7
		c-2.2,0-2.3,0.2-2.3,3.7v8.9c0,3,0,3.3,2.6,3.3h1.3c2.1,0,3.8,0,5-4.3c0,0,0-0.1,0.1-0.2h0.5"/>
	<path class="st1" d="M56.1,52.4h3v4.3c-0.5,0.3-1.3,0.6-2.4,0.6c-2.8,0-3.9-1.3-3.9-4.4c0-2.5,1.1-4.3,3.9-4.3
		c1.2,0,1.9,0.3,2.5,0.6L59,50.6c-0.5-0.3-1.4-0.6-2.2-0.6c-1.8,0-2.4,1-2.4,3c0,1.7,0.4,2.9,2.4,2.9c0.4,0,0.7-0.1,1.1-0.1v-2h-1.6
		v-1.4"/>
	<path class="st1" d="M64,50c-1.7,0-2,1.1-2,3c0,1.8,0.3,3,2,3s2-1.1,2-3C66,51.1,65.7,50,64,50 M60.5,52.9c0-2.5,0.7-4.3,3.5-4.3
		c2.8,0,3.5,1.8,3.5,4.3s-0.7,4.3-3.5,4.3C61.2,57.3,60.5,55.5,60.5,52.9"/>
	<polygon class="st1" points="73.8,57.1 72.3,57.1 72.3,48.7 78,48.7 78,50.1 73.8,50.1 73.8,52.2 77.4,52.2 77.4,53.6 73.8,53.6 	
		"/>
	<path class="st1" d="M82.5,50c-1.7,0-2,1.1-2,3c0,1.8,0.3,3,2,3s2-1.1,2-3C84.5,51.1,84.2,50,82.5,50 M78.9,52.9
		c0-2.5,0.7-4.3,3.5-4.3s3.5,1.8,3.5,4.3s-0.7,4.3-3.5,4.3C79.7,57.3,78.9,55.5,78.9,52.9"/>
	<path class="st1" d="M88.6,50.1v2.5h1.7c1.3,0,1.7-0.5,1.7-1.2c0-0.8-0.4-1.2-1.7-1.2h-1.7 M91.7,53.8l2.2,3.4h-1.7L90.1,54h-1.5
		v3.2h-1.5v-8.4h3.2c2.3,0,3.2,1.1,3.2,2.6C93.6,52.5,93,53.4,91.7,53.8"/>
	<polygon class="st1" points="102.7,54.9 104.5,48.7 106,48.7 103.4,57.1 101.9,57.1 100.1,51.2 98.3,57.1 96.8,57.1 94.2,48.7 
		95.7,48.7 97.5,54.9 99.4,48.7 100.9,48.7 	"/>
	<path class="st1" d="M107.9,53.9h2.5l-1.3-3.3L107.9,53.9z M110.9,55.3h-3.6l-0.7,1.9h-1.5l3.3-8.4h1.5l3.3,8.4h-1.5L110.9,55.3z"
		/>
	<path class="st1" d="M115.5,50.1v2.5h1.7c1.3,0,1.7-0.5,1.7-1.2c0-0.8-0.4-1.2-1.7-1.2h-1.7 M118.5,53.8l2.2,3.4H119l-2.1-3.2h-1.5
		v3.2H114v-8.4h3.2c2.3,0,3.2,1.1,3.2,2.6C120.4,52.5,119.8,53.4,118.5,53.8"/>
	<path class="st1" d="M126.8,52.9c0-1.8-0.4-2.8-2.3-2.8h-1.1v5.7h1.1C126.2,55.7,126.8,55,126.8,52.9 M121.9,48.7h2.6
		c2.7,0,3.9,1.1,3.9,4.2c0,2.6-1.1,4.2-3.9,4.2h-2.6C121.9,57.1,121.9,48.7,121.9,48.7z"/>
	<path class="st0" d="M49.5,53.3c0-0.1,0-0.2-0.1-0.3l0,0c0-0.1-0.1-0.2-0.2-0.2l0,0l-3.6-3.6v2.4l1.8,1.8l-1.8,1.8v2.4l3.6-3.6
		C49.5,53.8,49.5,53.6,49.5,53.3C49.5,53.4,49.5,53.3,49.5,53.3"/>
</g>
</svg>
