<?xml version="1.0" encoding="utf-8"?>
<!-- Generator: Adobe Illustrator 25.2.1, SVG Export Plug-In . SVG Version: 6.00 Build 0)  -->
<svg version="1.1" id="Layer_1" xmlns="http://www.w3.org/2000/svg" xmlns:xlink="http://www.w3.org/1999/xlink" x="0px" y="0px"
	 viewBox="0 0 155.9 49.3" style="enable-background:new 0 0 155.9 49.3;" xml:space="preserve">
<style type="text/css">
	.st0{fill:#E51B24;}
</style>
<g>
	<g>
		<path class="st0" d="M38.1,0.6c8.8,0,14.3,0,14.3,0l-7.2,16.7c0,0-14.9-0.1-16.6-0.1c-2.6,0-8.8,0.7-8.8,6.8
			c0,5.2,3.5,6.7,5.7,6.7H40l-7.2,17.7H19c-5.3,0-19.8-6-19-23.6C0,16.9,7.2,0.6,23.7,0.6C29.2,0.7,34,0.6,38.1,0.6"/>
	</g>
	<polygon class="st0" points="57.8,0.2 39.7,48.2 58.4,48.2 66.2,26.8 74,48.2 90.8,48.2 109.4,0 91.2,0 82.6,22.2 74.8,0.4 	"/>
	<path class="st0" d="M137.8,0.5H115L96.7,48.6h17.5l2.8-8.9h18.4l3.5,9.6h17L137.8,0.5z M119.9,29.9l6.2-14.9l5.5,14.9H119.9z"/>
</g>
</svg>
