<?xml version="1.0" encoding="utf-8"?>
<!-- Generator: Adobe Illustrator 25.2.1, SVG Export Plug-In . SVG Version: 6.00 Build 0)  -->
<svg version="1.1" id="Layer_1" xmlns="http://www.w3.org/2000/svg" xmlns:xlink="http://www.w3.org/1999/xlink" x="0px" y="0px"
	 viewBox="0 0 156.2 27.9" style="enable-background:new 0 0 156.2 27.9;" xml:space="preserve">
<style type="text/css">
	.st0{fill:#0259A3;}
	.st1{fill:#FEDD10;}
	.st2{fill:#60BC55;}
</style>
<g>
	<path class="st0" d="M91.8,0.8c0.5,0.1,2.3,0.6,2.3,1.9v20.4h6.2v-23H92L91.8,0.8L91.8,0.8z"/>
	<path class="st0" d="M44.2,0.1v0.7c0.7,0.2,2.3,0.6,1.7,2l-9,20.2h4.8l2.8-6.3h10L57,23h6.3L54.5,0L44.2,0.1L44.2,0.1z M45.8,13.9
		l4-9l3.5,9H45.8z"/>
	<path class="st0" d="M137.1,0.1v0.7c0.7,0.2,2.3,0.6,1.7,2l-9,20.2h4.8l2.8-6.3h10l2.5,6.3h6.3l-8.9-23L137.1,0.1L137.1,0.1z
		 M138.6,13.9l4.1-9l3.5,9H138.6z"/>
	<path class="st0" d="M121,23.1l9.6-23H126l-7,16.8l-6.8-16.8h-8.5v0.7c1.1,0.1,2.1,0.8,2.6,1.9l8.1,20.4L121,23.1z"/>
	<path class="st0" d="M79,23.1l9.6-23H84l-7,16.8L70.3,0.1h-8.5v0.7c1.1,0.1,2.1,0.8,2.6,1.9l8,20.4C72.4,23.1,79,23.1,79,23.1z"/>
	<path class="st1" d="M22.4,23.2L20.2,0.1l0,0l-2.3,23.4C19.4,23.4,20.9,23.2,22.4,23.2z"/>
	<path class="st2" d="M27.9,23V0.1h-7.8l2.2,23.1C24.2,23,26,23,27.9,23z"/>
	<path class="st0" d="M17.9,23.5l2.3-23.4H0v27.8C5.7,25.6,11.7,24.1,17.9,23.5z"/>
</g>
</svg>
