<?xml version="1.0" encoding="utf-8"?>
<!-- Generator: Adobe Illustrator 25.2.1, SVG Export Plug-In . SVG Version: 6.00 Build 0)  -->
<svg version="1.1" id="Layer_1" xmlns="http://www.w3.org/2000/svg" xmlns:xlink="http://www.w3.org/1999/xlink" x="0px" y="0px"
	 viewBox="0 0 156.1 31.7" style="enable-background:new 0 0 156.1 31.7;" xml:space="preserve">
<style type="text/css">
	.st0{fill:#E21B23;}
	.st1{fill:#231F20;}
	.st2{fill:#FEFEFE;}
	.st3{fill:#969798;}
</style>
<g>
	<path class="st0" d="M138.2,0.1c5.4,0.1,10,2,13.8,5.7c1.7,1.7,3,3.6,4,5.7c0,0.1,0.2,0.2,0.1,0.3c-0.1,0.1-0.2,0-0.3-0.1
		c-1.9-1-4-1.3-6.2-1.2c-1.4,0.1-2.8,0.4-4.1,1c-0.1,0-0.1,0.1-0.2,0.1c-0.3,0.2-0.6,0.5-1,0.5c-0.3,0-0.6-0.4-0.9-0.5
		c-1.9-1-4-1.3-6.1-1.1c-1.5,0.1-3,0.5-4.3,1.2c-0.3,0.2-0.6,0.5-0.9,0.5c-0.3,0-0.6-0.3-0.9-0.5c-1.5-0.8-3.1-1.2-4.8-1.2
		c-2-0.1-3.9,0.3-5.7,1.2c-0.1,0-0.2,0.1-0.3,0c-0.1-0.1,0-0.2,0-0.3c0.7-1.5,1.5-2.9,2.6-4.2c3.3-4,7.5-6.4,12.6-7.1
		c0.3,0,0.5-0.1,0.8-0.1C136.9,0.1,137.5,0.1,138.2,0.1z"/>
	<path class="st1" d="M112.7,31.5c-1.1,0-2.1,0-3.2,0c-0.2,0-0.2-0.2-0.2-0.3c-0.6-2.1-1.3-4.1-1.9-6.2c-0.1-0.3-0.2-0.4-0.5-0.4
		c-0.6,0-1.3,0-1.9,0c-0.3,0-0.4,0.1-0.4,0.4c-0.2,1.8-0.4,3.6-0.6,5.4c0,0.3-0.1,0.6-0.1,0.9c0,0.2-0.1,0.2-0.3,0.2
		c-0.9,0-1.9,0-2.8,0c-0.2,0-0.2,0-0.2-0.2c0.4-3.7,0.8-7.4,1.2-11.1c0.2-2,0.4-3.9,0.6-5.9c0-0.2,0.1-0.3,0.3-0.3
		c2.4,0,4.7,0,7.1,0c0.6,0,1.1,0.1,1.7,0.2c1.6,0.4,2.4,1.3,2.5,2.9c0.1,1.4,0,2.7-0.4,4c-0.4,1.5-1.4,2.4-2.8,2.9
		c-0.3,0.1-0.4,0.2-0.3,0.5c0.7,2.2,1.4,4.3,2,6.5C112.6,31.2,112.6,31.3,112.7,31.5z"/>
	<path class="st1" d="M21.1,14.1c1.1,0,2.5-0.1,3.8,0.1c0.5,0,1,0.1,1.4,0.3c1.2,0.4,1.9,1.1,2.1,2.3c0.3,1.7,0.1,3.4-0.5,5
		c-0.5,1.2-1.4,1.9-2.6,2.3c-0.5,0.2-0.5,0.2-0.3,0.6c0.7,2.2,1.3,4.3,2,6.5c0.1,0.3,0,0.3-0.2,0.3c-0.9,0-1.8,0-2.6,0
		c-0.3,0-0.3-0.1-0.4-0.3c-0.6-2.1-1.3-4.1-1.9-6.2c-0.1-0.3-0.2-0.4-0.5-0.4c-0.7,0-1.4,0-2,0c-0.2,0-0.3,0-0.3,0.3
		c-0.2,2.1-0.5,4.2-0.7,6.2c0,0.3-0.1,0.4-0.4,0.4c-0.9,0-1.7,0-2.6,0c-0.2,0-0.3-0.1-0.3-0.3c0.4-3.1,0.7-6.3,1-9.4
		c0.3-2.4,0.5-4.9,0.8-7.3c0-0.3,0.1-0.4,0.4-0.3C18.5,14.1,19.7,14.1,21.1,14.1z"/>
	<path class="st1" d="M43.1,31.5c-1.1,0-2.2,0-3.2,0c-0.2,0-0.2-0.1-0.2-0.2c-0.1-0.8-0.3-1.6-0.4-2.4c0-0.2-0.1-0.3-0.4-0.3
		c-1.7,0-3.4,0-5.1,0c-0.2,0-0.3,0.1-0.4,0.3c-0.3,0.8-0.7,1.6-1,2.4c0,0.1-0.1,0.2-0.3,0.2c-1,0-2.1,0-3.1,0
		c-0.1-0.1,0-0.2,0.1-0.3c2.4-5.6,4.8-11.3,7.2-16.9c0.1-0.2,0.2-0.3,0.5-0.3c0.9,0,1.7,0,2.6,0c0.2,0,0.3,0,0.4,0.3
		c0.7,3.6,1.4,7.2,2.1,10.8C42.3,27.2,42.7,29.3,43.1,31.5C43.1,31.4,43.1,31.4,43.1,31.5z"/>
	<path class="st1" d="M64.9,31.5c-1.6,0-3.2,0-4.8,0c-0.4,0-0.4,0-0.4-0.4c0.3-2.6,0.6-5.2,0.9-7.8c0.3-3,0.7-5.9,1-8.9
		c0-0.3,0.2-0.2,0.4-0.2c2.3,0,4.7,0,7,0c0.9,0,1.8,0,2.7,0c0.2,0,0.3,0,0.3,0.3c-0.1,0.8-0.2,1.5-0.3,2.3c0,0.2-0.1,0.3-0.3,0.3
		c-2.1,0-4.2,0-6.3,0c-0.2,0-0.3,0-0.4,0.3c-0.1,1.2-0.2,2.4-0.4,3.6c0,0.3,0.1,0.3,0.3,0.3c1.6,0,3.3,0,4.9,0c0.4,0,0.4,0,0.4,0.4
		c-0.1,0.7-0.2,1.5-0.2,2.2c0,0.3-0.1,0.3-0.3,0.3c-1.7,0-3.3,0-5,0c-0.3,0-0.4,0.1-0.4,0.4c-0.1,1.3-0.3,2.5-0.4,3.8
		c0,0.3,0.1,0.4,0.4,0.4c2.1,0,4.3,0,6.4,0c0.3,0,0.3,0.1,0.3,0.3c-0.1,0.8-0.2,1.5-0.2,2.3c0,0.2-0.1,0.3-0.3,0.3
		C68.3,31.5,66.6,31.5,64.9,31.5z"/>
	<path class="st1" d="M86.7,31.5c0.3-3,0.7-6.1,1-9.1c0.3-2.6,0.6-5.3,0.9-7.9c0-0.3,0.1-0.3,0.4-0.3c3.2,0,6.4,0,9.6,0
		c0.3,0,0.3,0.1,0.3,0.4c-0.1,0.7-0.2,1.5-0.3,2.2c0,0.3-0.1,0.3-0.4,0.3c-2.1,0-4.2,0-6.2,0c-0.3,0-0.4,0.1-0.5,0.4
		c-0.1,1.1-0.2,2.3-0.4,3.4c0,0.3,0.1,0.3,0.3,0.3c1.7,0,3.3,0,5,0c0.2,0,0.3,0,0.3,0.3c-0.1,0.8-0.2,1.6-0.3,2.3
		c0,0.2-0.1,0.3-0.4,0.3c-1.7,0-3.3,0-5,0c-0.2,0-0.4,0-0.4,0.3c-0.1,1.3-0.3,2.6-0.4,4c0,0.3,0.1,0.2,0.3,0.2c2.2,0,4.3,0,6.5,0
		c0.3,0,0.4,0,0.4,0.4c-0.1,0.7-0.2,1.5-0.2,2.2c0,0.2,0,0.3-0.3,0.3c-3.4,0-6.7,0-10.1,0C86.9,31.5,86.8,31.5,86.7,31.5z"/>
	<path class="st1" d="M120.2,31.7c-1.5,0-3-0.2-4.5-0.4c-0.3,0-0.3-0.1-0.3-0.4c0.1-0.8,0.3-1.5,0.4-2.3c0-0.2,0.1-0.2,0.3-0.2
		c1.6,0.3,3.2,0.5,4.8,0.5c0.4,0,0.9,0,1.3-0.1c0.7-0.1,1.2-0.5,1.4-1.3c0.1-0.4,0.1-0.8,0.2-1.2c0.1-0.8-0.2-1.2-0.9-1.5
		c-0.7-0.3-1.4-0.5-2.2-0.8c-0.7-0.2-1.3-0.5-2-0.8c-1.4-0.6-2.1-1.6-2-3.1c0-1,0.1-1.9,0.3-2.9c0.5-1.8,1.7-2.8,3.4-3.1
		c1.6-0.3,3.2-0.2,4.8-0.1c0.7,0.1,1.5,0.2,2.2,0.3c0.2,0,0.3,0.1,0.2,0.3c-0.1,0.8-0.2,1.5-0.3,2.3c0,0.3-0.1,0.3-0.4,0.3
		c-1.5-0.2-3.1-0.4-4.7-0.4c-0.3,0-0.6,0-0.8,0.1c-0.7,0.1-1.2,0.5-1.4,1.3c0,0.1,0,0.2-0.1,0.2c-0.2,1.6,0,1.9,1.5,2.5
		c1.1,0.4,2.1,0.7,3.2,1.1c1.7,0.7,2.5,1.9,2.4,3.7c-0.1,0.9-0.1,1.7-0.3,2.5c-0.5,1.8-1.6,2.9-3.4,3.2
		C122.3,31.6,121.2,31.7,120.2,31.7z"/>
	<path class="st1" d="M44.5,14.1c1.1,0,2.2,0,3.3,0c0.2,0,0.2,0.1,0.2,0.3c0.4,2.2,0.8,4.5,1.3,6.7c0.3,1.8,0.7,3.6,1,5.4
		c0,0.1,0,0.1,0.1,0.3c0.7-1.8,1.4-3.6,2.1-5.3c0.9-2.4,1.9-4.7,2.8-7.1c0.1-0.1,0.1-0.3,0.3-0.3c1,0,2.1,0,3.1,0
		c-0.4,1-0.8,2-1.2,3c-1.9,4.7-3.9,9.4-5.8,14.1c-0.1,0.3-0.3,0.4-0.6,0.4c-0.9,0-1.8,0-2.7,0c-0.2,0-0.3-0.1-0.3-0.3
		c-1.1-5.7-2.3-11.4-3.4-17C44.6,14.2,44.6,14.2,44.5,14.1z"/>
	<path class="st1" d="M14.5,14.1c-0.1,0.4-0.2,0.8-0.3,1.1c-0.5,1.2-1.4,1.8-2.7,1.8c-0.8,0-1.6,0-2.4,0c-0.3,0-0.4,0.1-0.4,0.4
		c-0.2,2-0.4,4-0.6,6c-0.3,2.6-0.6,5.3-0.9,7.9c0,0.2-0.1,0.2-0.3,0.2c-1,0-1.9,0-2.9,0c-0.2,0-0.2,0-0.2-0.2
		c0.4-3.5,0.8-6.9,1.2-10.4c0.1-1.2,0.3-2.4,0.4-3.6c0-0.3,0-0.3-0.3-0.3c-1.6,0-3.2,0-4.8,0C0,17,0,16.9,0,16.6
		c0.1-0.7,0.2-1.4,0.2-2.2C0.2,14,0.3,14,0.7,14c3.8,0,7.7,0,11.5,0C13,14.1,13.7,14.1,14.5,14.1z"/>
	<path class="st1" d="M84.9,28.6c-0.1,0.5-0.2,0.9-0.4,1.4c-0.5,1-1.3,1.5-2.4,1.5c-2.7,0-5.5,0-8.2,0c-0.3,0-0.2-0.1-0.2-0.3
		c0.2-1.6,0.3-3.2,0.5-4.8c0.3-2.7,0.6-5.4,0.9-8.1c0.1-1.3,0.3-2.6,0.4-4c0-0.2,0.1-0.3,0.3-0.3c0.9,0,1.9,0,2.8,0
		c0.2,0,0.3,0.1,0.2,0.3c-0.5,4.7-1,9.3-1.5,14c0,0.3,0.1,0.3,0.3,0.3c2.3,0,4.6,0,6.9,0C84.6,28.6,84.7,28.6,84.9,28.6z"/>
	<path class="st0" d="M139.2,20.2c0,2.6,0,5.2,0,7.8c0,1.7-1.3,3.2-2.9,3.5c-1.8,0.3-3.5-0.6-4.1-2.3c-0.2-0.4-0.1-0.9,0.3-1.2
		c0.3-0.3,0.8-0.3,1.2-0.1c0.2,0.1,0.3,0.3,0.4,0.5c0.4,0.8,1.1,1.2,1.8,1.1c0.8-0.2,1.3-0.8,1.3-1.7c0-4.7,0-9.4,0-14.1
		c0-0.5,0-1,0-1.5c0-0.2,0.1-0.3,0.3-0.3c0.4,0,0.9,0,1.3,0c0.3,0,0.4,0.1,0.4,0.4C139.1,14.9,139.2,17.6,139.2,20.2z"/>
	<path class="st2" d="M107.6,16.8c0.6,0,1.3,0,1.9,0c0.7,0.1,1.1,0.4,1.2,1.2c0.1,1,0,1.9-0.4,2.8c-0.3,0.8-1,1-1.8,1.1
		c-1.1,0-2.2,0-3.3,0c-0.2,0-0.2,0-0.2-0.2c0.2-1.5,0.3-3,0.5-4.5c0-0.3,0.1-0.3,0.4-0.3C106.4,16.8,106.9,16.8,107.6,16.8z"/>
	<path class="st2" d="M22.1,16.8c0.6,0,1.3,0,2,0.1s1.1,0.4,1.2,1.2c0.1,0.9,0,1.9-0.4,2.8c-0.3,0.6-0.7,1-1.4,1
		c-1.1,0.1-2.2,0-3.3,0.1c-0.8,0-0.8,0-0.7-0.8c0.2-1.3,0.3-2.7,0.4-4c0-0.2,0.1-0.3,0.3-0.3C20.8,16.8,21.4,16.8,22.1,16.8z"/>
	<path class="st2" d="M37.6,18.8c0.4,2.3,0.7,4.7,1.1,7c-1.3,0-2.6,0-4,0c0.9-2.4,1.8-4.7,2.8-7C37.5,18.8,37.5,18.8,37.6,18.8z"/>
	<path class="st3" d="M37.6,18.8L37.6,18.8c-0.1-0.1-0.1-0.2,0-0.2C37.6,18.7,37.6,18.7,37.6,18.8z"/>
</g>
</svg>
