<?xml version="1.0" encoding="utf-8"?>
<!-- Generator: Adobe Illustrator 25.2.1, SVG Export Plug-In . SVG Version: 6.00 Build 0)  -->
<svg version="1.1" id="Layer_1" xmlns="http://www.w3.org/2000/svg" xmlns:xlink="http://www.w3.org/1999/xlink" x="0px" y="0px"
	 viewBox="0 0 156 52.4" style="enable-background:new 0 0 156 52.4;" xml:space="preserve">
<style type="text/css">
	.st0{fill:#003057;}
	.st1{fill:#B2292E;}
</style>
<g>
	<rect x="24.9" y="43.9" class="st0" width="1.6" height="8.3"/>
	<polygon class="st0" points="35.4,52.2 31.4,46.5 31.4,52.2 29.9,52.2 29.9,43.9 31.5,43.9 35.2,49.3 35.2,43.9 36.7,43.9 
		36.7,52.2 	"/>
	<path class="st0" d="M42.3,52.3c-1,0-1.9-0.2-2.6-0.6l0.2-1.5c0.7,0.4,1.6,0.7,2.4,0.7c0.7,0,1.2-0.3,1.2-1c0-0.6-0.3-0.9-1.5-1.4
		c-1.6-0.7-2.3-1.2-2.3-2.5c0-1.5,1.1-2.3,2.7-2.3c0.9,0,1.6,0.2,2.2,0.5l-0.2,1.5c-0.6-0.4-1.3-0.7-2-0.7c-0.8,0-1.1,0.4-1.1,0.9
		s0.3,0.8,1.4,1.3c1.7,0.7,2.3,1.3,2.3,2.6C45.1,51.5,43.9,52.3,42.3,52.3z"/>
	<path class="st0" d="M50.8,52.4c-2,0-3.3-1.2-3.3-3.4v-5.1h1.6v5c0,1.3,0.6,2.1,1.8,2.1s1.8-0.7,1.8-2v-5.1h1.6V49
		C54.2,51.2,52.8,52.4,50.8,52.4z"/>
	<path class="st0" d="M61.8,52.3L59.6,49h-0.7v3.2h-1.6v-8.3h2.6c1.9,0,3,0.9,3,2.5c0,1.2-0.7,2-1.7,2.3l2.2,3.3L61.8,52.3z
		 M59.8,45.2h-0.9v2.6h0.8c1,0,1.6-0.5,1.6-1.3C61.3,45.6,60.8,45.2,59.8,45.2z"/>
	<path class="st0" d="M68.3,43.8H70l3.1,8.2l-1.6,0.3l-0.8-2.2h-3.2l-0.7,2.1h-1.6L68.3,43.8z M67.9,48.8h2.3l-1.1-3.2L67.9,48.8z"
		/>
	<polygon class="st0" points="80.7,52.2 76.8,46.5 76.8,52.2 75.3,52.2 75.3,43.9 76.8,43.9 80.5,49.3 80.5,43.9 82,43.9 82,52.2 	
		"/>
	<path class="st0" d="M88.5,52.4c-2.4,0-3.9-1.7-3.9-4.3c0-2.6,1.6-4.3,3.9-4.3c1,0,1.7,0.2,2.3,0.6l-0.2,1.5
		c-0.5-0.4-1.2-0.7-2-0.7c-1.5,0-2.4,1.1-2.4,2.9s1,2.9,2.4,2.9c0.8,0,1.5-0.3,2.1-0.7l0.2,1.4C90.3,52.1,89.4,52.4,88.5,52.4z"/>
	<polygon class="st0" points="93.3,52.2 93.3,43.9 98.1,43.9 98.1,45.2 94.9,45.2 94.9,47.2 97.4,47.2 97.6,48.5 94.9,48.5 
		94.9,50.9 98.2,50.9 98.2,52.2 	"/>
	<path class="st0" d="M34.1,34c-1.3,0.7-2.8,1.1-4.5,1.1c-4.3,0-5.7-2.8-5.7-6.3c0-4.2,2.4-6.2,5.5-6.2c2.9,0,4.9,1.6,4.9,5.6
		c0,0.3,0,0.9-0.1,1.3h-7.5c0.1,2.2,1,3.4,3.2,3.4c1.1,0,2-0.2,3.4-0.8L34.1,34z M31.6,27.6c0-2.3-1-3-2.3-3s-2.5,0.9-2.6,3H31.6z"
		/>
	<path class="st0" d="M46.8,34.1c-1,0.6-2.6,1-4.2,1c-4.1,0-5.8-2.6-5.8-6.1c0-4.4,2.6-6.4,6.2-6.4c1.8,0,3.2,0.5,3.8,0.8v3.3
		l-1.9-0.1l-0.3-1.5c0-0.2-0.1-0.3-0.3-0.3c-0.3-0.1-0.9-0.2-1.4-0.2c-1.8,0-3.3,1.1-3.3,4.2c0,3.2,1.5,4.2,3.5,4.2
		c1.2,0,2.2-0.3,3-0.7L46.8,34.1z"/>
	<path class="st0" d="M48.6,29c0-3.9,1.9-6.4,6-6.4s5.7,2.5,5.7,6.1c0,3.9-1.8,6.5-5.9,6.5C50.1,35.1,48.6,32.5,48.6,29z M57.5,28.8
		c0-3-1-4.2-3-4.2s-3.2,1.2-3.2,4.2s1.1,4.3,3.1,4.3C56.4,33.1,57.5,31.8,57.5,28.8z"/>
	<path class="st0" d="M69.4,34.8v-1.5l1.2-0.1c0.3,0,0.4-0.2,0.4-0.5v-5.4c0-1.4-0.2-2.6-1.6-2.6c-1.2,0-2.4,0.7-3.2,1.2v6.7
		c0,0.4,0,0.4,0.4,0.5l1.2,0.2v1.5H62v-1.5l1-0.1c0.3,0,0.4-0.1,0.4-0.5v-7.5c0-0.3-0.1-0.4-0.3-0.5l-1.3-0.4l0.2-1.5h3.4l0.2,1.3
		h0.1c1.3-0.9,2.7-1.5,4.3-1.5c2.5,0,3.5,1.6,3.5,4.3v5.9c0,0.4,0,0.4,0.4,0.5l1.3,0.2V35h-5.8V34.8z"/>
	<path class="st0" d="M77,29c0-3.9,1.9-6.4,6-6.4s5.7,2.5,5.7,6.1c0,3.9-1.8,6.5-5.9,6.5C78.5,35.1,77,32.5,77,29z M85.9,28.8
		c0-3-1-4.2-3-4.2s-3.2,1.2-3.2,4.2s1.1,4.3,3.1,4.3S85.9,31.8,85.9,28.8z"/>
	<path class="st0" d="M104.6,34.8v-1.5l1.2-0.2c0.3,0,0.4-0.2,0.4-0.5v-5.5c0-1.3-0.2-2.4-1.5-2.4c-1,0-2.1,0.5-2.9,0.9
		c0.1,0.4,0.1,0.8,0.1,1.3v5.7c0,0.4,0,0.4,0.4,0.5l1.1,0.2v1.5h-5.7v-1.5l1.2-0.2c0.3,0,0.4-0.2,0.4-0.5v-5.3
		c0-1.3-0.1-2.6-1.4-2.6c-1.1,0-2.1,0.6-2.9,1.2v6.7c0,0.4,0,0.4,0.4,0.5l1.1,0.2v1.5h-5.7v-1.5l1.1-0.2c0.3,0,0.4-0.1,0.4-0.5v-7.4
		c0-0.3-0.1-0.4-0.3-0.5l-1.3-0.4l0.2-1.5h3.4l0.2,1.3h0.1c1.2-0.9,2.4-1.6,4-1.6c1.1,0,2.2,0.3,2.8,1.4c1.1-0.7,2.4-1.4,4-1.4
		c2.6,0,3.4,1.6,3.4,4v6.2c0,0.4,0,0.4,0.4,0.5l1.3,0.2v1.5L104.6,34.8L104.6,34.8z"/>
	<path class="st0" d="M112.4,34.8v-1.5l1.4-0.2c0.3,0,0.4-0.1,0.4-0.5v-7.4c0-0.3-0.1-0.4-0.3-0.5l-1.3-0.4l0.2-1.5h4v9.9
		c0,0.4,0,0.4,0.4,0.5l1.4,0.2v1.5L112.4,34.8L112.4,34.8z M115.3,20.5c-1.1,0-1.7-0.6-1.7-1.7s0.6-1.7,1.7-1.7s1.7,0.6,1.7,1.7
		C117,19.9,116.4,20.5,115.3,20.5z"/>
	<path class="st0" d="M130.5,34.1c-1,0.6-2.6,1-4.2,1c-4.1,0-5.8-2.6-5.8-6.1c0-4.4,2.6-6.4,6.2-6.4c1.8,0,3.2,0.5,3.8,0.8v3.3
		l-1.9-0.1l-0.3-1.5c0-0.2-0.1-0.3-0.3-0.3c-0.3-0.1-0.9-0.2-1.4-0.2c-1.8,0-3.3,1.1-3.3,4.2c0,3.2,1.5,4.2,3.5,4.2
		c1.2,0,2.2-0.3,3-0.7L130.5,34.1z"/>
	<path class="st0" d="M140.6,34.8l-0.2-1.4h-0.1c-1,1-2.3,1.7-4.1,1.7c-2.9,0-3.3-2-3.3-3.3c0-2.3,1.4-3.4,4.3-3.7l3-0.2v-1.2
		c0-1.5-0.3-2.3-2-2.3c-1.3,0-2.1,0.1-2.1,1.7l-2.5-0.2c0-3,2.7-3.3,4.7-3.3c3.4,0,4.6,1,4.6,4.2v6c0,0.4,0,0.4,0.4,0.5l1.1,0.2V35
		h-3.8V34.8z M140.1,29.6l-2.2,0.2c-1.7,0.2-2.3,0.6-2.3,1.8c0,1.1,0.5,1.5,1.5,1.5c1.1,0,2.3-0.7,3-1.4V29.6z"/>
	<path class="st0" d="M145.7,34.8v-1.5l1.3-0.1c0.3,0,0.4-0.1,0.4-0.5v-13c0-0.3-0.1-0.4-0.3-0.5l-1.3-0.4l0.2-1.5h4.1v15.4
		c0,0.4,0,0.4,0.4,0.5l1.3,0.2v1.5L145.7,34.8L145.7,34.8z"/>
	<path class="st1" d="M53.4,0c3.2,0,5.7,2.6,5.7,5.7c0,3.2-2.6,5.7-5.7,5.7c-3.2,0-5.7-2.6-5.7-5.7C47.7,2.6,50.2,0,53.4,0"/>
	<path class="st1" d="M29.5,0c3.2,0,5.7,2.6,5.7,5.7c0,3.2-2.6,5.7-5.7,5.7c-3.2,0-5.7-2.6-5.7-5.7C23.8,2.6,26.4,0,29.5,0"/>
	<path class="st1" d="M5.7,0c3.2,0,5.7,2.6,5.7,5.7c0,3.2-2.6,5.7-5.7,5.7C2.5,11.4,0,8.8,0,5.7C0,2.6,2.6,0,5.7,0"/>
	<path class="st0" d="M154.4,20.4c-1,0-1.6-0.7-1.6-1.6c0-1,0.6-1.6,1.6-1.6c0.9,0,1.6,0.7,1.6,1.6S155.3,20.4,154.4,20.4z
		 M154.4,17.3c-0.8,0-1.4,0.6-1.4,1.5s0.6,1.5,1.4,1.5c0.8,0,1.4-0.6,1.4-1.5C155.8,17.9,155.2,17.3,154.4,17.3z M154.9,19.6
		l-0.5-0.8h-0.2v0.8h-0.3v-1.8h0.5c0.4,0,0.6,0.2,0.6,0.5s-0.2,0.4-0.4,0.5l0.5,0.7L154.9,19.6z M154.4,18h-0.2v0.6h0.2
		c0.2,0,0.4-0.1,0.4-0.3C154.7,18.1,154.6,18,154.4,18z"/>
</g>
</svg>
