<?xml version="1.0" encoding="utf-8"?>
<!-- Generator: Adobe Illustrator 25.2.1, SVG Export Plug-In . SVG Version: 6.00 Build 0)  -->
<svg version="1.1" id="Layer_1" xmlns="http://www.w3.org/2000/svg" xmlns:xlink="http://www.w3.org/1999/xlink" x="0px" y="0px"
	 viewBox="0 0 156 28.6" style="enable-background:new 0 0 156 28.6;" xml:space="preserve">
<style type="text/css">
	.st0{fill:#00AC5B;}
</style>
<g>
	<path d="M83.7,17.5l-2.3,0.3c-2,0.2-3.7,0.9-3.7,2.6c0,1.2,1,2,2.3,2c1.6,0,2.8-1,3.7-2V17.5L83.7,17.5z M83.7,24.7V23
		c-0.8,0.9-2.1,2-4.4,2c-2.6,0-4.8-1.7-4.8-4.5c0-3.5,3.2-4.7,6.4-5.1l1.2-0.1c1.2-0.1,1.6-0.8,1.6-1.6c0-1-0.9-1.7-2.4-1.7
		c-1.6,0-3.2,1.2-3.8,2.1l-1.9-2.2c1.2-1.5,3.2-2.6,5.9-2.6c3.4,0,5.4,1.8,5.4,4.7v10.6L83.7,24.7z M93.3,24.7H90v-15h3.3v1.7
		c1.2-1.1,3-2,4.9-2c1.8,0,4.2,1,4.2,4.7v10.7h-3.3V15c0-1.5-0.6-2.7-2.1-2.7c-1.3,0-2.9,1.1-3.6,1.8L93.3,24.7z M114,9.7h3.3v15
		h-3.4v-1.6c-0.9,0.9-2.4,2-4.3,2s-4.6-1-4.6-4.8V9.7h3.3v9.5c0,1.7,0.8,3,2.3,3c1.3,0,2.5-0.8,3.4-1.9L114,9.7z M124.3,24.7H121V5
		l3.3-3.3V24.7z M131.4,24.7H128v-15h3.4V24.7z M129.7,3c1.1,0,2.1,0.9,2.1,2.1s-1,2.1-2.1,2.1c-1.2,0-2.1-1-2.1-2.1
		C127.5,3.9,128.5,3,129.7,3 M141.8,12.5h-3.1v12.2h-3.3V12.5h-2V9.8h2V6.7c0-2.5,1.6-4.7,4.7-4.7c1.4,0,2.7,0.4,3.4,0.8l-1,2.6
		c-0.5-0.3-1.2-0.5-1.8-0.5c-1,0-1.9,0.8-1.9,2.1v2.9h3.9L141.8,12.5z M152.5,15.6c0-1.8-1.2-3.5-3.2-3.5c-1.9,0-3.4,1.8-3.5,3.5
		H152.5z M145.8,18.1c0,2.4,1.8,4.1,3.8,4.1c1.6,0,3.2-1,3.9-2.3l2.1,1.9c-1.2,1.8-3.5,3.2-6.3,3.2c-4.3,0-6.9-3.2-6.9-7.8
		c0-4.5,2.9-7.8,7-7.8c4,0,6.8,2.6,6.6,8.7L145.8,18.1z M55.6,24.7H52V3.9h3.9L62,14.1h0.1l6.1-10.2H72v20.8h-3.6V10h-0.1L62,20.4
		L55.7,9.9h-0.1C55.6,9.9,55.6,24.7,55.6,24.7z"/>
	<path class="st0" d="M20.8,5.2v23.4l5.2-5.2V0L20.8,5.2z M10.4,28.6l5.2-5.2V0l-5.2,5.2L10.4,28.6z M0,28.6l5.2-5.2V0L0,5.2V28.6z"
		/>
</g>
</svg>
