<?xml version="1.0" encoding="utf-8"?>
<!-- Generator: Adobe Illustrator 25.2.1, SVG Export Plug-In . SVG Version: 6.00 Build 0)  -->
<svg version="1.1" id="Layer_1" xmlns="http://www.w3.org/2000/svg" xmlns:xlink="http://www.w3.org/1999/xlink" x="0px" y="0px"
	 viewBox="0 0 156.1 64" style="enable-background:new 0 0 156.1 64;" xml:space="preserve">
<style type="text/css">
	.st0{fill-rule:evenodd;clip-rule:evenodd;fill:#003955;}
	.st1{fill-rule:evenodd;clip-rule:evenodd;fill:#DFB22F;}
</style>
<g>
	<path class="st0" d="M8.5,32.4c-0.3-1.1-0.7-3.3-3.2-3.3C4,29.1,3,29.9,3,31.3c0,3.4,7.3,3.1,7.3,7.8c0,3.1-2.9,4.2-5.6,4.2
		c-2,0-3.3-0.5-4-0.9C0.1,41,0,40,0,38.3l1-0.1c0.3,1.3,1.1,4.4,4,4.4c1.4,0,2.4-1,2.4-2.4c0-3.7-7.1-3.4-7.1-7.9
		c0-2.8,2.2-3.9,5.1-3.9c1.7,0,2.7,0.4,3.6,0.8c0.2,1.1,0.3,2.2,0.3,3.3L8.5,32.4L8.5,32.4z M20.1,42.2c-0.7,0.4-1.8,1.1-3.5,1.1
		c-3.5,0-3.7-2-3.7-4.4v-3.2c0-0.8,0-1.7-0.7-1.7c-0.3,0-0.6,0.1-0.7,0.1v-0.6c1.7-0.5,3-0.7,4.2-0.8v6.1c0,1.7,0.3,3.2,2.6,3.2
		c0.9,0,1.4-0.4,1.7-0.5v-5.7c0-0.8,0-1.7-0.7-1.7c-0.3,0-0.6,0.1-0.7,0.1v-0.6c1.7-0.5,3-0.7,4.2-0.8v6.5c0,1.8,0,2.6,0.8,2.6
		c0.1,0,0.4,0,0.6,0v0.6c-1.1,0.4-2.3,0.7-3.5,0.9L20.1,42.2L20.1,42.2z M26.9,35.8c0-0.8,0-1.7-0.7-1.7c-0.3,0-0.6,0.1-0.7,0.1
		v-0.6c1.7-0.5,2.9-0.7,4.1-0.8V34c0.6-0.5,1.7-1.3,3.6-1.3c2.1,0,3.5,0.9,3.5,3.9V41c0,1.2,0.1,1.4,0.9,1.5h0.5V43h-5.6v-0.6H33
		c0.8-0.1,0.9-0.3,0.9-1.5v-3.1c0-1.7,0-3.8-2.4-3.8c-0.9,0-1.5,0.5-1.9,0.8V41c0,1.2,0.1,1.4,0.9,1.5H31V43h-5.5v-0.6H26
		c0.8-0.1,0.9-0.3,0.9-1.5V35.8L26.9,35.8L26.9,35.8z M63.3,63.1l0.5-0.1c1.1-0.1,1.1-0.2,1.1-2.6v-8c0-2.3,0-2.4-1.1-2.6l-0.5-0.1
		v-0.6h10.6c0.2,1.1,0.3,2.4,0.3,3.5l-0.8,0.1c-0.5-2.1-0.6-2.8-3.6-2.8H68V56h1.8c1.8,0,2.2,0,2.4-0.9l0.1-0.8h0.6v4.4h-0.6
		l-0.1-0.8C72,57,71.4,57,69.8,57H68v3.3c0,2.3,0,2.4,1.1,2.6l0.5,0.1v0.6h-6.2L63.3,63.1L63.3,63.1L63.3,63.1z M75.4,63.1h0.5
		c0.8-0.1,0.9-0.3,0.9-1.5v-5.1c0-0.8,0-1.7-0.7-1.7c-0.3,0-0.6,0.1-0.7,0.1v-0.6c1.7-0.5,3-0.7,4.2-0.8v8.2c0,1.2,0.1,1.4,0.9,1.5
		H81v0.6h-5.6L75.4,63.1L75.4,63.1z M76.5,50.1c0-0.8,0.7-1.5,1.6-1.5s1.6,0.7,1.6,1.5c0,0.9-0.7,1.6-1.6,1.6
		C77.2,51.6,76.5,51,76.5,50.1z M84,56.4c0-0.8,0-1.7-0.7-1.7c-0.3,0-0.6,0.1-0.7,0.1v-0.6c1.7-0.5,2.9-0.7,4.1-0.8v1.3
		c0.6-0.5,1.7-1.3,3.6-1.3c2.1,0,3.5,0.9,3.5,3.9v4.3c0,1.2,0.1,1.4,0.9,1.5h0.5v0.6h-5.6v-0.6h0.5c0.8-0.1,0.9-0.3,0.9-1.5v-3.1
		c0-1.7,0-3.8-2.4-3.8c-0.9,0-1.5,0.5-1.9,0.8v6.1c0,1.2,0.1,1.4,0.9,1.5h0.5v0.6h-5.5v-0.6h0.5c0.8-0.1,0.9-0.3,0.9-1.5L84,56.4
		L84,56.4z M102.3,61c0,0.4,0.1,1,0.1,1.2c-0.2,0.1-0.6,0.5-1.4,0.5c-1,0-1.7-0.8-1.7-1.8c0-1.6,1.4-2.3,2.8-2.3c0.1,0,0.2,0,0.3,0
		L102.3,61L102.3,61L102.3,61z M106.7,63.2c-0.1,0-0.1,0-0.2,0c-1.5,0-1.5-1.6-1.5-3.2v-2.7c0-2.5-0.5-3.9-3.4-3.9
		c-2.3,0-3.9,1.2-4.9,2.3c0.2,0.5,0.3,0.7,0.6,1.1h0.2c0.3-0.7,1-2.2,2.7-2.2c1.6,0,2,1.2,2,2.4v0.5c-1.9,0.5-5.9,1.2-5.9,4
		c0,1.4,1.2,2.4,3,2.4c1.6,0,2.5-0.7,3.2-1.1c0.4,0.5,0.8,1.1,2.2,1.1c1,0,1.7-0.4,2-0.5L106.7,63.2L106.7,63.2z M109.2,56.4
		c0-0.8,0-1.7-0.7-1.7c-0.3,0-0.6,0.1-0.7,0.1v-0.6c1.7-0.5,2.9-0.7,4.1-0.8v1.3c0.6-0.5,1.7-1.3,3.6-1.3c2.1,0,3.5,0.9,3.5,3.9v4.3
		c0,1.2,0.1,1.4,0.9,1.5h0.5v0.6h-5.6v-0.6h0.5c0.8-0.1,0.9-0.3,0.9-1.5v-3.1c0-1.7,0-3.8-2.4-3.8c-0.9,0-1.5,0.5-1.9,0.8v6.1
		c0,1.2,0.1,1.4,0.9,1.5h0.5v0.6h-5.5v-0.6h0.5c0.8-0.1,0.9-0.3,0.9-1.5L109.2,56.4L109.2,56.4L109.2,56.4z M130.7,62.9
		c-0.7,0.5-1.9,1.1-4.1,1.1c-2.5,0-5.4-1.6-5.4-4.8c0-4,3.5-5.8,6-5.8c1.6,0,2.5,0.3,3.1,0.7c-0.1,0.7-0.3,1.1-0.9,1.8h-0.2
		c-0.5-0.5-1.3-1.4-2.6-1.4c-1.5,0-2.5,1.3-2.5,3.5c0,3.3,2,4.7,4.3,4.7c0.8,0,1.8-0.3,2.1-0.4L130.7,62.9z M131.9,63.1h0.5
		c0.8-0.1,0.9-0.3,0.9-1.5v-5.1c0-0.8,0-1.7-0.7-1.7c-0.3,0-0.6,0.1-0.7,0.1v-0.6c1.7-0.5,3-0.7,4.2-0.8v8.2c0,1.2,0.1,1.4,0.9,1.5
		h0.5v0.6h-5.6L131.9,63.1L131.9,63.1L131.9,63.1z M133,50.1c0-0.8,0.7-1.5,1.6-1.5c0.9,0,1.6,0.7,1.6,1.5c0,0.9-0.7,1.6-1.6,1.6
		C133.7,51.6,133,51,133,50.1z M145.1,61c0,0.4,0.1,1,0.1,1.2c-0.2,0.1-0.6,0.5-1.4,0.5c-1,0-1.7-0.8-1.7-1.8c0-1.6,1.4-2.3,2.7-2.3
		c0.1,0,0.2,0,0.3,0L145.1,61L145.1,61L145.1,61z M149.5,63.2c-0.1,0-0.1,0-0.2,0c-1.5,0-1.5-1.6-1.5-3.2v-2.7
		c0-2.5-0.5-3.9-3.4-3.9c-2.3,0-3.9,1.2-4.9,2.3c0.2,0.5,0.3,0.7,0.6,1.1h0.2c0.3-0.7,1-2.2,2.7-2.2c1.6,0,2,1.2,2,2.4v0.5
		c-1.9,0.5-5.9,1.2-5.9,4c0,1.4,1.2,2.4,3,2.4c1.6,0,2.5-0.7,3.2-1.1c0.4,0.5,0.8,1.1,2.2,1.1c1,0,1.7-0.4,2-0.5L149.5,63.2
		L149.5,63.2z M150.5,63.1h0.5c0.8-0.1,0.9-0.3,0.9-1.5v-9.8c0-1.9,0-2.8-0.8-2.8c-0.3,0-0.5,0-0.6,0v-0.6c1.9-0.4,2.9-0.5,4.2-0.5
		v13.6c0,1.2,0.1,1.4,0.9,1.5h0.5v0.6h-5.6L150.5,63.1L150.5,63.1z M20.5,63.1L21,63c1.1-0.2,1.1-0.1,1.1-2.6v-8
		c0-2.1,0-2.4-1.1-2.5l-0.5-0.1v-0.6h6.2v0.6l-0.6,0.1C25,50.1,25,50.3,25,52.4v10.1c0.7,0.2,0.9,0.3,1.6,0.3c3.2,0,3.3-1.5,3.9-3.3
		l0.8,0.2c-0.1,1.4-0.3,2.6-0.8,4h-10V63.1z M32.5,63.1H33c0.8-0.1,0.9-0.3,0.9-1.5v-5.2c0-0.8,0-1.7-0.7-1.7
		c-0.3,0-0.6,0.1-0.7,0.1v-0.6c1.7-0.5,3-0.7,4.2-0.8v8.2c0,1.2,0.1,1.4,0.9,1.5h0.5v0.6h-5.6L32.5,63.1L32.5,63.1z M33.5,50
		c0-0.8,0.7-1.5,1.6-1.5c0.9,0,1.6,0.7,1.6,1.5c0,0.9-0.7,1.5-1.6,1.5C34.2,51.6,33.5,50.9,33.5,50z M41,54.7v-1
		c0-3,1.6-6.1,5.2-6.1c1.2,0,2,0.4,2.5,0.7c-0.2,0.7-0.3,1.1-0.9,1.6h-0.2c-0.4-0.4-1.5-1.3-2.4-1.3c-1.4,0-1.5,1.8-1.5,3.8v1.2
		c0.9,0,1.9,0.1,2.8,0.2v0.6c-0.9,0.1-1.9,0.2-2.8,0.2v6.9c0,1.2,0.1,1.4,1,1.5h0.9v0.6h-6V63h0.5c0.8-0.1,1-0.3,1-1.5L41,54.7
		L41,54.7z M50.1,58c0-0.4,0-3.8,2-3.8c1.4,0,2.1,1.3,2.3,2.9C53,57.5,51.6,57.8,50.1,58L50.1,58z M56.9,62.1
		c-0.3,0.2-1.3,0.6-2.5,0.6c-3.1,0-3.8-2.4-4.1-3.7c2.4-0.5,4.9-1.2,6.9-2.1c-0.3-1.3-0.8-3.6-4.5-3.6c-2.6,0-5.2,2-5.2,5.4
		c0,3.5,2.7,5.1,5.4,5.1c2.3,0,3.8-0.9,4.4-1.4L56.9,62.1L56.9,62.1z"/>
	<path class="st1" d="M71.4,7.3c-0.1-1.8,0.3-3.6,0.9-5.3l-0.2-0.1c-1.4,1.2-2.6,2.6-3.5,4.2C69.6,6.4,70.5,6.8,71.4,7.3L71.4,7.3z
		 M61.7,5c-1-1.5-1.6-3.2-1.9-5h-0.2c-0.7,1.7-1,3.6-0.9,5.4C59.7,5.2,60.7,5.1,61.7,5L61.7,5z M66.7,5.5c-0.5-1.7-0.7-3.6-0.5-5.4
		H66c-1.1,1.5-1.9,3.2-2.3,5C64.7,5.1,65.7,5.3,66.7,5.5z M75.5,10.3c0.4-1.8,1.2-3.4,2.3-4.9l-0.2-0.2c-1.7,0.7-3.2,1.8-4.5,3.1
		C73.9,8.9,74.7,9.6,75.5,10.3z M78.6,14.2c0.9-1.6,2.1-3,3.5-4.1L82,9.9c-1.8,0.3-3.6,0.9-5.1,1.8C77.5,12.5,78.1,13.3,78.6,14.2z
		 M80.4,18.2c0.1,0.2,0.1,0.4,0.2,0.5c1.3-1.3,2.8-2.3,4.4-3.1v-0.1c-1.8-0.2-3.7-0.1-5.5,0.4C79.9,16.7,80.2,17.4,80.4,18.2
		L80.4,18.2z M80.7,28.7c1.8-0.5,3.6-0.6,5.4-0.4l0.1-0.2c-1.5-1.1-3.1-1.9-4.9-2.4C81.1,26.7,81,27.7,80.7,28.7L80.7,28.7z
		 M81,20.7c0.2,1,0.3,2,0.3,3c1.6-0.9,3.3-1.5,5.1-1.8v-0.2C84.7,21,82.9,20.7,81,20.7L81,20.7z M80.1,30.6c-0.4,1-0.8,1.9-1.3,2.8
		c1.8,0,3.6,0.3,5.3,1l0.1-0.2C83.1,32.7,81.7,31.5,80.1,30.6z M56.7,5.9C56.8,5.9,56.8,5.9,56.7,5.9c-1.3-1.2-2.4-2.7-3.1-4.4
		l-0.2,0.1c-0.2,1.8,0,3.7,0.6,5.4C54.8,6.6,55.8,6.2,56.7,5.9L56.7,5.9z M71.7,40.4c1.6,0.9,2.9,2.1,4,3.6l0.2-0.1
		c-0.2-1.8-0.8-3.6-1.7-5.2C73.5,39.3,72.6,39.9,71.7,40.4z M75.7,37.3c1.8,0.5,3.4,1.3,4.8,2.4l0.2-0.2c-0.7-1.7-1.7-3.3-3-4.6
		C77.1,35.8,76.5,36.6,75.7,37.3z M49.5,30.3c1,0,2,0,3-0.2c-0.1-0.2-0.2-0.4-0.3-0.6c-1.5-2.8-2.5-5.6-3.1-8.2c-0.7,0-1.4,0-2.1,0
		c-2-0.2-3.4-1.3-3.4-1.3c-0.6,2.4-0.8,5-0.4,7.5C43.3,27.4,44.8,30.4,49.5,30.3z"/>
	<path class="st1" d="M56.5,38c0.6-0.1,1.3-0.2,1.9-0.3c-1.9-1.7-3.7-3.9-5.2-6.5c-1,0.2-2,0.3-3,0.3c-5.6-0.1-6.5-2.2-6.5-2.2
		c0,0.1,0.2,0.7,0.3,0.8c0.4,1.2,0.8,2.3,1.4,3.4c0.4,0.7,0.8,1.4,1.3,2.1C46.7,35.6,49.6,38.7,56.5,38L56.5,38z M49.9,20.1
		c1.5-0.2,3.4-0.6,5.7-1.6c0.2-0.1,0.5-0.2,0.7-0.3c-1.6-3.5-2.8-6.9-3.7-10c-0.1,0-0.1,0.1-0.2,0.1c-0.6,0.3-1.1,0.7-1.6,1.1
		C49.2,11.7,48.9,15.6,49.9,20.1L49.9,20.1z"/>
	<path class="st1" d="M49,20.2c-0.7-4.1-0.3-7.8,1.2-10.2c-2.8,2.3-4.8,5.4-5.9,8.9C44.6,19.1,46,20.3,49,20.2L49,20.2z M59.5,38.6
		c-3.3,0.8-7,1-10.2-0.5c4.8,4.4,11.6,6,17.9,4C64.8,42,62.1,40.8,59.5,38.6L59.5,38.6z"/>
	<path class="st1" d="M74.5,29.7c-1.6,2.1-4.1,4.2-7.1,6c-0.2,0.1-0.6,0.3-1,0.5c-1.9,0.9-3.8,1.6-5.8,2.2c2.6,2.2,5.3,3.5,7.5,3.5
		c0.6-0.2,1.3-0.5,1.9-0.8h0.1c0,0-2.2-2.8-2.9-3.8c0.1,0,0.2-0.1,0.3-0.1c0.6-0.3,1.1-0.7,1.5-0.9c2.6-1.8,4.6-3.9,5.8-5.9
		c0.6-1,1-2,1.3-2.9L76,27.4C75.5,28.1,75.1,28.9,74.5,29.7z"/>
	<path class="st1" d="M74.1,16.1c-0.6,1.7-1.7,3.6-3.2,5.3c-2,2.4-4.8,4.6-8.1,6.4c-0.2,0.1-0.3,0.2-0.5,0.3l0,0
		c-0.3,0.1-0.6,0.3-0.8,0.4c-0.3,0.1-0.5,0.2-0.8,0.4c-1.1,0.5-2.2,0.9-3.4,1.3c0,0-0.7,0.2-1.4,0.4l0,0c-0.5,0.1-1.1,0.3-1.6,0.4
		c1.6,2.5,3.3,4.7,5.1,6.5c1.9-0.5,3.8-1.1,5.6-1.9c0.2-0.1,0.4-0.2,0.6-0.3c-1.2-1.8-2.4-3.7-3.5-5.6c0,0,0,0,0.1,0
		c0.2-0.1,0.5-0.2,0.8-0.4c0.6-0.3,1.1-0.6,1.6-1c2.7-1.7,4.9-3.9,6.6-6.2c1.5-2,2.5-4.1,2.9-5.9V16.1L74.1,16.1z"/>
	<path class="st1" d="M56.8,19.3c-0.2,0.1-0.5,0.2-0.7,0.3c-1.5,0.6-3.6,1.3-5.9,1.6c0.7,2.5,1.7,5.2,3.1,7.8c0.2,0.3,0.4,0.6,0.5,1
		c2.5-0.5,4.8-1.4,6.4-2.1c0.3-0.1,0.5-0.2,0.8-0.4c-0.4-0.7-0.8-1.5-1.2-2.3c0,0.1-1.4-2.7-2.1-4.1l-0.3-0.7c0.1,0,0.2-0.1,0.3-0.1
		c0.1-0.1,0.2-0.1,0.3-0.2c0.1,0,0.1,0,0.1,0l0.9-0.5c3.4-1.9,5.7-4.4,7.1-6.9c0.6-1.1,1-2.1,1.2-3.1L67,9.7
		c-0.3,0.8-0.8,1.7-1.5,2.6c-1.6,2.2-4.2,4.5-7.3,6.2l-0.1,0.1C58.1,18.6,57.7,18.8,56.8,19.3L56.8,19.3z"/>
</g>
</svg>
