<?xml version="1.0" encoding="UTF-8"?>
<svg width="116px" height="116px" viewBox="0 0 116 116" version="1.1" xmlns="http://www.w3.org/2000/svg" xmlns:xlink="http://www.w3.org/1999/xlink">
    <title>491A1746-7877-4EC6-B1D8-1D497212466E</title>
    <g id="Design" stroke="none" stroke-width="1" fill="none" fill-rule="evenodd">
        <g id="Main-Product" transform="translate(-1052.000000, -3576.000000)">
            <rect fill="none" x="0" y="0" width="1440" height="5577"></rect>
            <g id="Background" transform="translate(0.000000, 3395.000000)">
                <rect id="Atoms-/-Colors-/-Black" fill="none" x="0" y="0" width="1440" height="603"></rect>
                <g id="Group-13" transform="translate(170.000000, 180.197044)">
                    <g id="Education" transform="translate(780.000000, 0.000000)">
                        <g id="Oval" transform="translate(102.000000, 0.000000)">
                            <circle fill="#3DA89A" cx="58" cy="58.4285714" r="58"></circle>
                            <g id="Education-speciality" transform="translate(25.000000, 25.428571)">
                                <rect id="Rectangle-Copy-7" x="0" y="0" width="66" height="66"></rect>
                                <g id="Group-27-Copy" transform="translate(10.676471, 1.941176)" stroke="#FFFFFF" stroke-linejoin="round" stroke-width="2.37037037">
                                    <path d="M4.60130719,9.20261438 L3.45098039,9.20261438 C1.54488889,9.20261438 0,10.7475033 0,12.6535948 L0,58.6666667 C0,60.5727582 1.54488889,62.1176471 3.45098039,62.1176471 L40.2614379,62.1176471 C42.1675294,62.1176471 43.7124183,60.5727582 43.7124183,58.6666667 L43.7124183,12.6535948 C43.7124183,10.7475033 42.1675294,9.20261438 40.2614379,9.20261438 L39.1111111,9.20261438" id="Stroke-1" stroke-linecap="round"></path>
                                    <path d="M20.7058824,5.75163399 C20.7058824,5.11665359 21.2212288,4.60130719 21.8562092,4.60130719 C22.4911895,4.60130719 23.0065359,5.11665359 23.0065359,5.75163399 C23.0065359,6.38661438 22.4911895,6.90196078 21.8562092,6.90196078 C21.2212288,6.90196078 20.7058824,6.38661438 20.7058824,5.75163399 Z" id="Stroke-3" stroke-linecap="round"></path>
                                    <path d="M21.8562092,0 C24.5422222,0 26.7980131,1.8416732 27.4306928,4.33098039 C27.6550065,5.21213072 28.3762614,5.87932026 29.2746667,6.02886275 L32.5876078,6.58216993 C33.6965229,6.76622222 34.5098039,7.7267451 34.5098039,8.85061438 L34.5098039,11.503268 C34.5098039,12.7732288 33.4791111,13.8039216 32.2091503,13.8039216 L11.503268,13.8039216 C10.2333072,13.8039216 9.20261438,12.7732288 9.20261438,11.503268 L9.20261438,8.85061438 C9.20261438,7.7267451 10.0158954,6.76622222 11.1248105,6.58216993 L14.4377516,6.02886275 C15.3361569,5.87932026 16.0574118,5.21213072 16.2817255,4.33098039 C16.9144052,1.8416732 19.1701961,0 21.8562092,0" id="Stroke-5"></path>
                                    <polyline id="Stroke-7" stroke-linecap="round" points="23.0065359 25.3071895 27.6078431 20.7058824 32.2091503 25.3071895"></polyline>
                                    <line x1="9.20261438" y1="20.7058824" x2="16.1045752" y2="27.6078431" id="Stroke-9" stroke-linecap="round"></line>
                                    <line x1="16.1045752" y1="20.7058824" x2="9.20261438" y2="27.6078431" id="Stroke-11" stroke-linecap="round"></line>
                                    <line x1="23.0065359" y1="48.3137255" x2="29.9084967" y2="55.2156863" id="Stroke-13" stroke-linecap="round"></line>
                                    <line x1="29.9084967" y1="48.3137255" x2="23.0065359" y2="55.2156863" id="Stroke-15" stroke-linecap="round"></line>
                                    <line x1="29.9084967" y1="36.8104575" x2="36.8104575" y2="43.7124183" id="Stroke-17" stroke-linecap="round"></line>
                                    <line x1="36.8104575" y1="36.8104575" x2="29.9084967" y2="43.7124183" id="Stroke-19" stroke-linecap="round"></line>
                                    <path d="M13.8039216,37.9607843 C13.8039216,39.8668758 12.2590327,41.4117647 10.3529412,41.4117647 C8.44684967,41.4117647 6.90196078,39.8668758 6.90196078,37.9607843 C6.90196078,36.0546928 8.44684967,34.5098039 10.3529412,34.5098039 C12.2590327,34.5098039 13.8039216,36.0546928 13.8039216,37.9607843 Z" id="Stroke-21" stroke-linecap="round"></path>
                                    <path d="M16.1045752,51.7647059 C16.1045752,53.6707974 14.5596863,55.2156863 12.6535948,55.2156863 C10.7475033,55.2156863 9.20261438,53.6707974 9.20261438,51.7647059 C9.20261438,49.8586144 10.7475033,48.3137255 12.6535948,48.3137255 C14.5596863,48.3137255 16.1045752,49.8586144 16.1045752,51.7647059 Z" id="Stroke-23" stroke-linecap="round"></path>
                                    <path d="M13.8039216,37.9607843 C21.4271373,37.9607843 27.6078431,31.7800784 27.6078431,24.1568627 L27.6078431,20.7058824" id="Stroke-25" stroke-linecap="round"></path>
                                </g>
                            </g>
                        </g>
                    </g>
                </g>
            </g>
        </g>
    </g>
</svg>